solid OpenSCAD_Model
  facet normal -0.5877852522924725 -0.809016994374948 0
    outer loop
      vertex 18.08772803075393 -2.311539728327368 0.5
      vertex 18.39251961506301 -2.532983776506045 0.5
      vertex 18.08772803075393 -2.311539728327368 5.4
    endloop
  endfacet
  facet normal -0.6845471059286915 -0.7289686274214088 0
    outer loop
      vertex 18.08772803075393 -2.311539728327368 0.5
      vertex 17.813094117735766 -2.0536413177860657 5.4
      vertex 17.813094117735766 -2.0536413177860657 0.5
    endloop
  endfacet
  facet normal -0.7705132427757875 -0.6374239897486919 0
    outer loop
      vertex 17.813094117735766 -2.0536413177860657 0.5
      vertex 17.572949016875157 -1.7633557568774194 5.4
      vertex 17.572949016875157 -1.7633557568774194 0.5
    endloop
  endfacet
  facet normal -0.8443279255020176 -0.5358267949789927 0
    outer loop
      vertex 17.572949016875157 -1.7633557568774194 0.5
      vertex 17.37107995986841 -1.445261022305146 5.4
      vertex 17.37107995986841 -1.445261022305146 0.5
    endloop
  endfacet
  facet normal -0.24868988716485402 -0.9685831611286313 0
    outer loop
      vertex 19.072949016875157 -2.8531695488854605 0.5
      vertex 19.437856056242826 -2.9468617521860656 0.5
      vertex 19.072949016875157 -2.8531695488854605 5.4
    endloop
  endfacet
  facet normal -0.3681245526846789 -0.929776485888251 0
    outer loop
      vertex 18.722662125304783 -2.7144811573980587 0.5
      vertex 19.072949016875157 -2.8531695488854605 0.5
      vertex 18.722662125304783 -2.7144811573980587 5.4
    endloop
  endfacet
  facet normal -0.48175367410171316 -0.8763066800438648 0
    outer loop
      vertex 18.722662125304783 -2.7144811573980587 0.5
      vertex 18.39251961506301 -2.532983776506045 5.4
      vertex 18.39251961506301 -2.532983776506045 0.5
    endloop
  endfacet
  facet normal -0.12533323356430526 -0.9921147013144777 0
    outer loop
      vertex 19.437856056242826 -2.9468617521860656 0.5
      vertex 19.811628441412058 -2.9940801852848145 0.5
      vertex 19.437856056242826 -2.9468617521860656 5.4
    endloop
  endfacet
  facet normal 0 -1 0
    outer loop
      vertex 19.811628441412058 -2.9940801852848145 0.5
      vertex 20.188371558587942 -2.9940801852848145 0.5
      vertex 19.811628441412058 -2.9940801852848145 5.4
    endloop
  endfacet
  facet normal -0.9048270524660165 -0.4257792915650792 0
    outer loop
      vertex 17.210670542335244 -1.1043736580540335 0.5
      vertex 17.37107995986841 -1.445261022305146 0.5
      vertex 17.210670542335244 -1.1043736580540335 5.4
    endloop
  endfacet
  facet normal -0.9510565162951552 -0.3090169943749426 0
    outer loop
      vertex 17.210670542335244 -1.1043736580540335 0.5
      vertex 17.094250516614107 -0.7460696614945646 5.4
      vertex 17.094250516614107 -0.7460696614945646 0.5
    endloop
  endfacet
  facet normal -0.9822872507286889 -0.18738131458572238 0
    outer loop
      vertex 17.094250516614107 -0.7460696614945646 0.5
      vertex 17.023655896056567 -0.3759997006929122 5.4
      vertex 17.023655896056567 -0.3759997006929122 0.5
    endloop
  endfacet
  facet normal -0.9980267284282714 -0.06279051952931575 0
    outer loop
      vertex 17.023655896056567 -0.3759997006929122 0.5
      vertex 17 0 5.4
      vertex 17 0 0.5
    endloop
  endfacet
  facet normal 0.12533323356430526 -0.9921147013144777 0
    outer loop
      vertex 20.188371558587942 -2.9940801852848145 0.5
      vertex 20.562143943757174 -2.9468617521860656 0.5
      vertex 20.188371558587942 -2.9940801852848145 5.4
    endloop
  endfacet
  facet normal 0.24868988716485402 -0.9685831611286313 0
    outer loop
      vertex 20.562143943757174 -2.9468617521860656 0.5
      vertex 20.927050983124843 -2.8531695488854605 0.5
      vertex 20.562143943757174 -2.9468617521860656 5.4
    endloop
  endfacet
  facet normal 0.3681245526846789 -0.929776485888251 0
    outer loop
      vertex 20.927050983124843 -2.8531695488854605 0.5
      vertex 21.277337874695217 -2.7144811573980587 0.5
      vertex 20.927050983124843 -2.8531695488854605 5.4
    endloop
  endfacet
  facet normal 0.48175367410171527 -0.8763066800438636 0
    outer loop
      vertex 21.277337874695217 -2.7144811573980587 0.5
      vertex 21.607480384936988 -2.532983776506046 0.5
      vertex 21.277337874695217 -2.7144811573980587 5.4
    endloop
  endfacet
  facet normal 0.5877852522924709 -0.809016994374949 0
    outer loop
      vertex 21.607480384936988 -2.532983776506046 0.5
      vertex 21.91227196924607 -2.311539728327367 0.5
      vertex 21.607480384936988 -2.532983776506046 5.4
    endloop
  endfacet
  facet normal 0.6845471059286903 -0.7289686274214099 0
    outer loop
      vertex 21.91227196924607 -2.311539728327367 0.5
      vertex 22.186905882264234 -2.0536413177860657 0.5
      vertex 21.91227196924607 -2.311539728327367 5.4
    endloop
  endfacet
  facet normal 0.7705132427757875 -0.6374239897486919 0
    outer loop
      vertex 22.186905882264234 -2.0536413177860657 0.5
      vertex 22.427050983124843 -1.7633557568774194 0.5
      vertex 22.186905882264234 -2.0536413177860657 5.4
    endloop
  endfacet
  facet normal 0.8443279255020176 -0.5358267949789927 0
    outer loop
      vertex 22.427050983124843 -1.7633557568774194 0.5
      vertex 22.62892004013159 -1.445261022305146 0.5
      vertex 22.427050983124843 -1.7633557568774194 5.4
    endloop
  endfacet
  facet normal 0.9048270524660195 -0.42577929156507305 0
    outer loop
      vertex 22.62892004013159 -1.445261022305146 0.5
      vertex 22.789329457664753 -1.104373658054035 0.5
      vertex 22.62892004013159 -1.445261022305146 5.4
    endloop
  endfacet
  facet normal 0.9510565162951531 -0.309016994374949 0
    outer loop
      vertex 22.789329457664753 -1.104373658054035 0.5
      vertex 22.905749483385893 -0.7460696614945633 0.5
      vertex 22.789329457664753 -1.104373658054035 5.4
    endloop
  endfacet
  facet normal 0.9822872507286889 -0.187381314585723 0
    outer loop
      vertex 22.905749483385893 -0.7460696614945633 0.5
      vertex 22.976344103943433 -0.3759997006929122 0.5
      vertex 22.905749483385893 -0.7460696614945633 5.4
    endloop
  endfacet
  facet normal 0.9980267284282714 -0.06279051952931575 0
    outer loop
      vertex 22.976344103943433 -0.3759997006929122 0.5
      vertex 23 0 0.5
      vertex 22.976344103943433 -0.3759997006929122 5.4
    endloop
  endfacet
  facet normal -0.7705132427757875 -0.6374239897486919 0
    outer loop
      vertex 17.813094117735766 -2.0536413177860657 0.5
      vertex 17.813094117735766 -2.0536413177860657 5.4
      vertex 17.572949016875157 -1.7633557568774194 5.4
    endloop
  endfacet
  facet normal -0.6845471059286915 -0.7289686274214088 0
    outer loop
      vertex 18.08772803075393 -2.311539728327368 0.5
      vertex 18.08772803075393 -2.311539728327368 5.4
      vertex 17.813094117735766 -2.0536413177860657 5.4
    endloop
  endfacet
  facet normal -0.8443279255020176 -0.5358267949789927 0
    outer loop
      vertex 17.572949016875157 -1.7633557568774194 0.5
      vertex 17.572949016875157 -1.7633557568774194 5.4
      vertex 17.37107995986841 -1.445261022305146 5.4
    endloop
  endfacet
  facet normal -0.48175367410171316 -0.8763066800438648 0
    outer loop
      vertex 18.722662125304783 -2.7144811573980587 0.5
      vertex 18.722662125304783 -2.7144811573980587 5.4
      vertex 18.39251961506301 -2.532983776506045 5.4
    endloop
  endfacet
  facet normal -0.3681245526846789 -0.929776485888251 0
    outer loop
      vertex 19.072949016875157 -2.8531695488854605 0.5
      vertex 19.072949016875157 -2.8531695488854605 5.4
      vertex 18.722662125304783 -2.7144811573980587 5.4
    endloop
  endfacet
  facet normal -0.5877852522924725 -0.809016994374948 0
    outer loop
      vertex 18.39251961506301 -2.532983776506045 0.5
      vertex 18.39251961506301 -2.532983776506045 5.4
      vertex 18.08772803075393 -2.311539728327368 5.4
    endloop
  endfacet
  facet normal -0.24868988716485402 -0.9685831611286313 0
    outer loop
      vertex 19.437856056242826 -2.9468617521860656 0.5
      vertex 19.437856056242826 -2.9468617521860656 5.4
      vertex 19.072949016875157 -2.8531695488854605 5.4
    endloop
  endfacet
  facet normal -0.12533323356430526 -0.9921147013144777 0
    outer loop
      vertex 19.811628441412058 -2.9940801852848145 0.5
      vertex 19.811628441412058 -2.9940801852848145 5.4
      vertex 19.437856056242826 -2.9468617521860656 5.4
    endloop
  endfacet
  facet normal 0 -1 0
    outer loop
      vertex 20.188371558587942 -2.9940801852848145 0.5
      vertex 20.188371558587942 -2.9940801852848145 5.4
      vertex 19.811628441412058 -2.9940801852848145 5.4
    endloop
  endfacet
  facet normal -0.9510565162951552 -0.3090169943749426 0
    outer loop
      vertex 17.210670542335244 -1.1043736580540335 0.5
      vertex 17.210670542335244 -1.1043736580540335 5.4
      vertex 17.094250516614107 -0.7460696614945646 5.4
    endloop
  endfacet
  facet normal -0.9048270524660165 -0.4257792915650792 0
    outer loop
      vertex 17.37107995986841 -1.445261022305146 0.5
      vertex 17.37107995986841 -1.445261022305146 5.4
      vertex 17.210670542335244 -1.1043736580540335 5.4
    endloop
  endfacet
  facet normal -0.9822872507286889 -0.18738131458572238 0
    outer loop
      vertex 17.094250516614107 -0.7460696614945646 0.5
      vertex 17.094250516614107 -0.7460696614945646 5.4
      vertex 17.023655896056567 -0.3759997006929122 5.4
    endloop
  endfacet
  facet normal -0.9980267284282714 -0.06279051952931575 0
    outer loop
      vertex 17.023655896056567 -0.3759997006929122 0.5
      vertex 17.023655896056567 -0.3759997006929122 5.4
      vertex 17 0 5.4
    endloop
  endfacet
  facet normal 0.12533323356430526 -0.9921147013144777 0
    outer loop
      vertex 20.562143943757174 -2.9468617521860656 0.5
      vertex 20.562143943757174 -2.9468617521860656 5.4
      vertex 20.188371558587942 -2.9940801852848145 5.4
    endloop
  endfacet
  facet normal 0.24868988716485402 -0.9685831611286313 0
    outer loop
      vertex 20.927050983124843 -2.8531695488854605 0.5
      vertex 20.927050983124843 -2.8531695488854605 5.4
      vertex 20.562143943757174 -2.9468617521860656 5.4
    endloop
  endfacet
  facet normal 0.3681245526846789 -0.929776485888251 0
    outer loop
      vertex 21.277337874695217 -2.7144811573980587 0.5
      vertex 21.277337874695217 -2.7144811573980587 5.4
      vertex 20.927050983124843 -2.8531695488854605 5.4
    endloop
  endfacet
  facet normal 0.48175367410171527 -0.8763066800438636 0
    outer loop
      vertex 21.607480384936988 -2.532983776506046 0.5
      vertex 21.607480384936988 -2.532983776506046 5.4
      vertex 21.277337874695217 -2.7144811573980587 5.4
    endloop
  endfacet
  facet normal 0.5877852522924709 -0.809016994374949 0
    outer loop
      vertex 21.91227196924607 -2.311539728327367 0.5
      vertex 21.91227196924607 -2.311539728327367 5.4
      vertex 21.607480384936988 -2.532983776506046 5.4
    endloop
  endfacet
  facet normal 0.6845471059286903 -0.7289686274214099 0
    outer loop
      vertex 22.186905882264234 -2.0536413177860657 0.5
      vertex 22.186905882264234 -2.0536413177860657 5.4
      vertex 21.91227196924607 -2.311539728327367 5.4
    endloop
  endfacet
  facet normal 0.7705132427757875 -0.6374239897486919 0
    outer loop
      vertex 22.427050983124843 -1.7633557568774194 0.5
      vertex 22.427050983124843 -1.7633557568774194 5.4
      vertex 22.186905882264234 -2.0536413177860657 5.4
    endloop
  endfacet
  facet normal 0.8443279255020176 -0.5358267949789927 0
    outer loop
      vertex 22.62892004013159 -1.445261022305146 0.5
      vertex 22.62892004013159 -1.445261022305146 5.4
      vertex 22.427050983124843 -1.7633557568774194 5.4
    endloop
  endfacet
  facet normal 0.9048270524660195 -0.42577929156507305 0
    outer loop
      vertex 22.789329457664753 -1.104373658054035 0.5
      vertex 22.789329457664753 -1.104373658054035 5.4
      vertex 22.62892004013159 -1.445261022305146 5.4
    endloop
  endfacet
  facet normal 0.9510565162951531 -0.309016994374949 0
    outer loop
      vertex 22.905749483385893 -0.7460696614945633 0.5
      vertex 22.905749483385893 -0.7460696614945633 5.4
      vertex 22.789329457664753 -1.104373658054035 5.4
    endloop
  endfacet
  facet normal 0.9822872507286889 -0.187381314585723 0
    outer loop
      vertex 22.976344103943433 -0.3759997006929122 0.5
      vertex 22.976344103943433 -0.3759997006929122 5.4
      vertex 22.905749483385893 -0.7460696614945633 5.4
    endloop
  endfacet
  facet normal 0.9980267284282714 -0.06279051952931575 0
    outer loop
      vertex 22.976344103943433 -0.3759997006929122 5.4
      vertex 23 0 0.5
      vertex 23 0 5.4
    endloop
  endfacet
  facet normal 0 0 1
    outer loop
      vertex 18.08772803075393 -2.311539728327368 5.4
      vertex 17.813094117735766 2.0536413177860657 5.4
      vertex 17.813094117735766 -2.0536413177860657 5.4
    endloop
  endfacet
  facet normal 0 0 1
    outer loop
      vertex 18.08772803075393 -2.311539728327368 5.4
      vertex 18.39251961506301 -2.532983776506045 5.4
      vertex 18.08772803075393 2.311539728327368 5.4
    endloop
  endfacet
  facet normal 0 0 1
    outer loop
      vertex 17.210670542335244 -1.1043736580540335 5.4
      vertex 17.37107995986841 -1.445261022305146 5.4
      vertex 17.210670542335244 1.1043736580540335 5.4
    endloop
  endfacet
  facet normal 0 0 1
    outer loop
      vertex 17.210670542335244 -1.1043736580540335 5.4
      vertex 17.094250516614107 0.7460696614945646 5.4
      vertex 17.094250516614107 -0.7460696614945646 5.4
    endloop
  endfacet
  facet normal 0 0 1
    outer loop
      vertex 17.094250516614107 -0.7460696614945646 5.4
      vertex 17.023655896056567 0.3759997006929122 5.4
      vertex 17.023655896056567 -0.3759997006929122 5.4
    endloop
  endfacet
  facet normal 0 0 1
    outer loop
      vertex 17.572949016875157 -1.7633557568774194 5.4
      vertex 17.37107995986841 1.445261022305146 5.4
      vertex 17.37107995986841 -1.445261022305146 5.4
    endloop
  endfacet
  facet normal 0 0 1
    outer loop
      vertex 17.813094117735766 -2.0536413177860657 5.4
      vertex 17.572949016875157 1.7633557568774194 5.4
      vertex 17.572949016875157 -1.7633557568774194 5.4
    endloop
  endfacet
  facet normal 0 0 1
    outer loop
      vertex 18.722662125304783 -2.7144811573980587 5.4
      vertex 18.39251961506301 2.532983776506045 5.4
      vertex 18.39251961506301 -2.532983776506045 5.4
    endloop
  endfacet
  facet normal 0 0 1
    outer loop
      vertex 18.722662125304783 -2.7144811573980587 5.4
      vertex 19.072949016875157 -2.8531695488854605 5.4
      vertex 18.722662125304783 2.7144811573980583 5.4
    endloop
  endfacet
  facet normal 0 0 1
    outer loop
      vertex 19.072949016875157 -2.8531695488854605 5.4
      vertex 19.437856056242826 -2.9468617521860656 5.4
      vertex 19.072949016875157 2.8531695488854605 5.4
    endloop
  endfacet
  facet normal 0 0 1
    outer loop
      vertex 19.437856056242826 -2.9468617521860656 5.4
      vertex 19.811628441412058 -2.9940801852848145 5.4
      vertex 19.437856056242826 2.946861752186066 5.4
    endloop
  endfacet
  facet normal 0 0 1
    outer loop
      vertex 19.811628441412058 -2.9940801852848145 5.4
      vertex 20.188371558587942 -2.9940801852848145 5.4
      vertex 19.81162844141206 2.9940801852848145 5.4
    endloop
  endfacet
  facet normal 0 0 1
    outer loop
      vertex 20.188371558587942 -2.9940801852848145 5.4
      vertex 20.562143943757174 -2.9468617521860656 5.4
      vertex 20.18837155858794 2.9940801852848145 5.4
    endloop
  endfacet
  facet normal 0 0 1
    outer loop
      vertex 20.562143943757174 -2.9468617521860656 5.4
      vertex 20.927050983124843 -2.8531695488854605 5.4
      vertex 20.562143943757174 2.946861752186066 5.4
    endloop
  endfacet
  facet normal 0 0 1
    outer loop
      vertex 20.927050983124843 -2.8531695488854605 5.4
      vertex 21.277337874695217 -2.7144811573980587 5.4
      vertex 20.927050983124843 2.8531695488854605 5.4
    endloop
  endfacet
  facet normal 0 0 1
    outer loop
      vertex 21.277337874695217 -2.7144811573980587 5.4
      vertex 21.607480384936988 -2.532983776506046 5.4
      vertex 21.277337874695217 2.7144811573980583 5.4
    endloop
  endfacet
  facet normal 0 0 1
    outer loop
      vertex 21.607480384936988 -2.532983776506046 5.4
      vertex 21.91227196924607 -2.311539728327367 5.4
      vertex 21.60748038493699 2.532983776506045 5.4
    endloop
  endfacet
  facet normal 0 0 1
    outer loop
      vertex 21.91227196924607 -2.311539728327367 5.4
      vertex 22.186905882264234 -2.0536413177860657 5.4
      vertex 21.91227196924607 2.3115397283273675 5.4
    endloop
  endfacet
  facet normal 0 0 1
    outer loop
      vertex 22.186905882264234 -2.0536413177860657 5.4
      vertex 22.427050983124843 -1.7633557568774194 5.4
      vertex 22.186905882264234 2.053641317786066 5.4
    endloop
  endfacet
  facet normal 0 0 1
    outer loop
      vertex 22.427050983124843 -1.7633557568774194 5.4
      vertex 22.62892004013159 -1.445261022305146 5.4
      vertex 22.427050983124843 1.7633557568774194 5.4
    endloop
  endfacet
  facet normal 0 0 1
    outer loop
      vertex 22.62892004013159 -1.445261022305146 5.4
      vertex 22.789329457664753 -1.104373658054035 5.4
      vertex 22.62892004013159 1.445261022305146 5.4
    endloop
  endfacet
  facet normal 0 0 1
    outer loop
      vertex 22.789329457664753 -1.104373658054035 5.4
      vertex 22.905749483385893 -0.7460696614945633 5.4
      vertex 22.789329457664753 1.104373658054034 5.4
    endloop
  endfacet
  facet normal 0 0 1
    outer loop
      vertex 22.905749483385893 -0.7460696614945633 5.4
      vertex 22.976344103943433 -0.3759997006929122 5.4
      vertex 22.905749483385893 0.7460696614945643 5.4
    endloop
  endfacet
  facet normal -0.9980267284282714 0.06279051952931575 0
    outer loop
      vertex 17 0 0.5
      vertex 17.023655896056567 0.3759997006929122 5.4
      vertex 17.023655896056567 0.3759997006929122 0.5
    endloop
  endfacet
  facet normal -0.9822872507286889 0.18738131458572238 0
    outer loop
      vertex 17.023655896056567 0.3759997006929122 0.5
      vertex 17.094250516614107 0.7460696614945646 5.4
      vertex 17.094250516614107 0.7460696614945646 0.5
    endloop
  endfacet
  facet normal -0.9510565162951552 0.3090169943749426 0
    outer loop
      vertex 17.094250516614107 0.7460696614945646 0.5
      vertex 17.210670542335244 1.1043736580540335 5.4
      vertex 17.210670542335244 1.1043736580540335 0.5
    endloop
  endfacet
  facet normal -0.9048270524660165 0.4257792915650792 0
    outer loop
      vertex 17.210670542335244 1.1043736580540335 0.5
      vertex 17.37107995986841 1.445261022305146 5.4
      vertex 17.37107995986841 1.445261022305146 0.5
    endloop
  endfacet
  facet normal -0.8443279255020176 0.5358267949789927 0
    outer loop
      vertex 17.37107995986841 1.445261022305146 0.5
      vertex 17.572949016875157 1.7633557568774194 5.4
      vertex 17.572949016875157 1.7633557568774194 0.5
    endloop
  endfacet
  facet normal -0.7705132427757875 0.6374239897486919 0
    outer loop
      vertex 17.572949016875157 1.7633557568774194 0.5
      vertex 17.813094117735766 2.0536413177860657 5.4
      vertex 17.813094117735766 2.0536413177860657 0.5
    endloop
  endfacet
  facet normal -0.6845471059286915 0.7289686274214088 0
    outer loop
      vertex 17.813094117735766 2.0536413177860657 0.5
      vertex 18.08772803075393 2.311539728327368 5.4
      vertex 18.08772803075393 2.311539728327368 0.5
    endloop
  endfacet
  facet normal -0.5877852522924725 0.809016994374948 0
    outer loop
      vertex 18.08772803075393 2.311539728327368 0.5
      vertex 18.39251961506301 2.532983776506045 5.4
      vertex 18.39251961506301 2.532983776506045 0.5
    endloop
  endfacet
  facet normal -0.48175367410171216 0.8763066800438652 0
    outer loop
      vertex 18.39251961506301 2.532983776506045 0.5
      vertex 18.722662125304783 2.7144811573980583 5.4
      vertex 18.722662125304783 2.7144811573980583 0.5
    endloop
  endfacet
  facet normal -0.36812455268468 0.9297764858882506 0
    outer loop
      vertex 18.722662125304783 2.7144811573980583 0.5
      vertex 19.072949016875157 2.8531695488854605 5.4
      vertex 19.072949016875157 2.8531695488854605 0.5
    endloop
  endfacet
  facet normal -0.24868988716485513 0.9685831611286311 0
    outer loop
      vertex 19.072949016875157 2.8531695488854605 0.5
      vertex 19.437856056242826 2.946861752186066 5.4
      vertex 19.437856056242826 2.946861752186066 0.5
    endloop
  endfacet
  facet normal -0.12533323356430293 0.992114701314478 0
    outer loop
      vertex 19.437856056242826 2.946861752186066 0.5
      vertex 19.81162844141206 2.9940801852848145 5.4
      vertex 19.81162844141206 2.9940801852848145 0.5
    endloop
  endfacet
  facet normal 0 1 0
    outer loop
      vertex 19.81162844141206 2.9940801852848145 0.5
      vertex 20.18837155858794 2.9940801852848145 5.4
      vertex 20.18837155858794 2.9940801852848145 0.5
    endloop
  endfacet
  facet normal 0.9980267284282714 0.06279051952931565 0
    outer loop
      vertex 23 0 0.5
      vertex 22.976344103943433 0.3759997006929128 0.5
      vertex 23 0 5.4
    endloop
  endfacet
  facet normal 0.9822872507286889 0.18738131458572277 0
    outer loop
      vertex 22.976344103943433 0.3759997006929128 0.5
      vertex 22.905749483385893 0.7460696614945643 0.5
      vertex 22.976344103943433 0.3759997006929128 5.4
    endloop
  endfacet
  facet normal 0.9510565162951526 0.3090169943749506 0
    outer loop
      vertex 22.905749483385893 0.7460696614945643 0.5
      vertex 22.789329457664753 1.104373658054034 0.5
      vertex 22.905749483385893 0.7460696614945643 5.4
    endloop
  endfacet
  facet normal 0.9048270524660199 0.4257792915650719 0
    outer loop
      vertex 22.789329457664753 1.104373658054034 0.5
      vertex 22.62892004013159 1.445261022305146 0.5
      vertex 22.789329457664753 1.104373658054034 5.4
    endloop
  endfacet
  facet normal 0.6845471059286903 0.7289686274214099 0
    outer loop
      vertex 22.186905882264234 2.053641317786066 0.5
      vertex 21.91227196924607 2.3115397283273675 0.5
      vertex 22.186905882264234 2.053641317786066 5.4
    endloop
  endfacet
  facet normal 0.12533323356430293 0.992114701314478 0
    outer loop
      vertex 20.18837155858794 2.9940801852848145 0.5
      vertex 20.562143943757174 2.946861752186066 5.4
      vertex 20.562143943757174 2.946861752186066 0.5
    endloop
  endfacet
  facet normal 0.24868988716485513 0.9685831611286311 0
    outer loop
      vertex 20.562143943757174 2.946861752186066 0.5
      vertex 20.927050983124843 2.8531695488854605 5.4
      vertex 20.927050983124843 2.8531695488854605 0.5
    endloop
  endfacet
  facet normal 0.36812455268468 0.9297764858882506 0
    outer loop
      vertex 21.277337874695217 2.7144811573980583 0.5
      vertex 20.927050983124843 2.8531695488854605 0.5
      vertex 21.277337874695217 2.7144811573980583 5.4
    endloop
  endfacet
  facet normal 0.5877852522924732 0.8090169943749475 0
    outer loop
      vertex 21.60748038493699 2.532983776506045 0.5
      vertex 21.91227196924607 2.3115397283273675 5.4
      vertex 21.91227196924607 2.3115397283273675 0.5
    endloop
  endfacet
  facet normal 0.48175367410171216 0.8763066800438652 0
    outer loop
      vertex 21.277337874695217 2.7144811573980583 0.5
      vertex 21.60748038493699 2.532983776506045 5.4
      vertex 21.60748038493699 2.532983776506045 0.5
    endloop
  endfacet
  facet normal 0.8443279255020176 0.5358267949789927 0
    outer loop
      vertex 22.62892004013159 1.445261022305146 0.5
      vertex 22.427050983124843 1.7633557568774194 0.5
      vertex 22.62892004013159 1.445261022305146 5.4
    endloop
  endfacet
  facet normal 0.770513242775788 0.6374239897486913 0
    outer loop
      vertex 22.186905882264234 2.053641317786066 0.5
      vertex 22.427050983124843 1.7633557568774194 5.4
      vertex 22.427050983124843 1.7633557568774194 0.5
    endloop
  endfacet
  facet normal -0.9980267284282714 0.06279051952931575 0
    outer loop
      vertex 17 0 0.5
      vertex 17 0 5.4
      vertex 17.023655896056567 0.3759997006929122 5.4
    endloop
  endfacet
  facet normal -0.9822872507286889 0.18738131458572238 0
    outer loop
      vertex 17.023655896056567 0.3759997006929122 0.5
      vertex 17.023655896056567 0.3759997006929122 5.4
      vertex 17.094250516614107 0.7460696614945646 5.4
    endloop
  endfacet
  facet normal -0.9510565162951552 0.3090169943749426 0
    outer loop
      vertex 17.094250516614107 0.7460696614945646 0.5
      vertex 17.094250516614107 0.7460696614945646 5.4
      vertex 17.210670542335244 1.1043736580540335 5.4
    endloop
  endfacet
  facet normal -0.9048270524660165 0.4257792915650792 0
    outer loop
      vertex 17.210670542335244 1.1043736580540335 0.5
      vertex 17.210670542335244 1.1043736580540335 5.4
      vertex 17.37107995986841 1.445261022305146 5.4
    endloop
  endfacet
  facet normal -0.8443279255020176 0.5358267949789927 0
    outer loop
      vertex 17.37107995986841 1.445261022305146 0.5
      vertex 17.37107995986841 1.445261022305146 5.4
      vertex 17.572949016875157 1.7633557568774194 5.4
    endloop
  endfacet
  facet normal -0.7705132427757875 0.6374239897486919 0
    outer loop
      vertex 17.572949016875157 1.7633557568774194 0.5
      vertex 17.572949016875157 1.7633557568774194 5.4
      vertex 17.813094117735766 2.0536413177860657 5.4
    endloop
  endfacet
  facet normal -0.6845471059286915 0.7289686274214088 0
    outer loop
      vertex 17.813094117735766 2.0536413177860657 0.5
      vertex 17.813094117735766 2.0536413177860657 5.4
      vertex 18.08772803075393 2.311539728327368 5.4
    endloop
  endfacet
  facet normal -0.5877852522924725 0.809016994374948 0
    outer loop
      vertex 18.08772803075393 2.311539728327368 0.5
      vertex 18.08772803075393 2.311539728327368 5.4
      vertex 18.39251961506301 2.532983776506045 5.4
    endloop
  endfacet
  facet normal -0.48175367410171216 0.8763066800438652 0
    outer loop
      vertex 18.39251961506301 2.532983776506045 0.5
      vertex 18.39251961506301 2.532983776506045 5.4
      vertex 18.722662125304783 2.7144811573980583 5.4
    endloop
  endfacet
  facet normal -0.36812455268468 0.9297764858882506 0
    outer loop
      vertex 18.722662125304783 2.7144811573980583 0.5
      vertex 18.722662125304783 2.7144811573980583 5.4
      vertex 19.072949016875157 2.8531695488854605 5.4
    endloop
  endfacet
  facet normal -0.24868988716485513 0.9685831611286311 0
    outer loop
      vertex 19.072949016875157 2.8531695488854605 0.5
      vertex 19.072949016875157 2.8531695488854605 5.4
      vertex 19.437856056242826 2.946861752186066 5.4
    endloop
  endfacet
  facet normal -0.12533323356430293 0.992114701314478 0
    outer loop
      vertex 19.437856056242826 2.946861752186066 0.5
      vertex 19.437856056242826 2.946861752186066 5.4
      vertex 19.81162844141206 2.9940801852848145 5.4
    endloop
  endfacet
  facet normal 0 1 0
    outer loop
      vertex 19.81162844141206 2.9940801852848145 0.5
      vertex 19.81162844141206 2.9940801852848145 5.4
      vertex 20.18837155858794 2.9940801852848145 5.4
    endloop
  endfacet
  facet normal 0.9980267284282714 0.06279051952931565 0
    outer loop
      vertex 22.976344103943433 0.3759997006929128 0.5
      vertex 22.976344103943433 0.3759997006929128 5.4
      vertex 23 0 5.4
    endloop
  endfacet
  facet normal 0.9822872507286889 0.18738131458572277 0
    outer loop
      vertex 22.905749483385893 0.7460696614945643 0.5
      vertex 22.905749483385893 0.7460696614945643 5.4
      vertex 22.976344103943433 0.3759997006929128 5.4
    endloop
  endfacet
  facet normal 0.9510565162951526 0.3090169943749506 0
    outer loop
      vertex 22.789329457664753 1.104373658054034 0.5
      vertex 22.789329457664753 1.104373658054034 5.4
      vertex 22.905749483385893 0.7460696614945643 5.4
    endloop
  endfacet
  facet normal 0.9048270524660199 0.4257792915650719 0
    outer loop
      vertex 22.62892004013159 1.445261022305146 0.5
      vertex 22.62892004013159 1.445261022305146 5.4
      vertex 22.789329457664753 1.104373658054034 5.4
    endloop
  endfacet
  facet normal 0.770513242775788 0.6374239897486913 0
    outer loop
      vertex 22.186905882264234 2.053641317786066 0.5
      vertex 22.186905882264234 2.053641317786066 5.4
      vertex 22.427050983124843 1.7633557568774194 5.4
    endloop
  endfacet
  facet normal 0.6845471059286903 0.7289686274214099 0
    outer loop
      vertex 21.91227196924607 2.3115397283273675 0.5
      vertex 21.91227196924607 2.3115397283273675 5.4
      vertex 22.186905882264234 2.053641317786066 5.4
    endloop
  endfacet
  facet normal 0.12533323356430293 0.992114701314478 0
    outer loop
      vertex 20.18837155858794 2.9940801852848145 0.5
      vertex 20.18837155858794 2.9940801852848145 5.4
      vertex 20.562143943757174 2.946861752186066 5.4
    endloop
  endfacet
  facet normal 0.24868988716485513 0.9685831611286311 0
    outer loop
      vertex 20.562143943757174 2.946861752186066 0.5
      vertex 20.562143943757174 2.946861752186066 5.4
      vertex 20.927050983124843 2.8531695488854605 5.4
    endloop
  endfacet
  facet normal 0.36812455268468 0.9297764858882506 0
    outer loop
      vertex 20.927050983124843 2.8531695488854605 0.5
      vertex 20.927050983124843 2.8531695488854605 5.4
      vertex 21.277337874695217 2.7144811573980583 5.4
    endloop
  endfacet
  facet normal 0.5877852522924732 0.8090169943749475 0
    outer loop
      vertex 21.60748038493699 2.532983776506045 0.5
      vertex 21.60748038493699 2.532983776506045 5.4
      vertex 21.91227196924607 2.3115397283273675 5.4
    endloop
  endfacet
  facet normal 0.48175367410171216 0.8763066800438652 0
    outer loop
      vertex 21.277337874695217 2.7144811573980583 0.5
      vertex 21.277337874695217 2.7144811573980583 5.4
      vertex 21.60748038493699 2.532983776506045 5.4
    endloop
  endfacet
  facet normal 0.8443279255020176 0.5358267949789927 0
    outer loop
      vertex 22.427050983124843 1.7633557568774194 0.5
      vertex 22.427050983124843 1.7633557568774194 5.4
      vertex 22.62892004013159 1.445261022305146 5.4
    endloop
  endfacet
  facet normal 0 0 1
    outer loop
      vertex 17.023655896056567 -0.3759997006929122 5.4
      vertex 17.023655896056567 0.3759997006929122 5.4
      vertex 17 0 5.4
    endloop
  endfacet
  facet normal 0 0 1
    outer loop
      vertex 17.094250516614107 -0.7460696614945646 5.4
      vertex 17.094250516614107 0.7460696614945646 5.4
      vertex 17.023655896056567 0.3759997006929122 5.4
    endloop
  endfacet
  facet normal 0 0 1
    outer loop
      vertex 17.210670542335244 -1.1043736580540335 5.4
      vertex 17.210670542335244 1.1043736580540335 5.4
      vertex 17.094250516614107 0.7460696614945646 5.4
    endloop
  endfacet
  facet normal 0 0 1
    outer loop
      vertex 17.37107995986841 -1.445261022305146 5.4
      vertex 17.37107995986841 1.445261022305146 5.4
      vertex 17.210670542335244 1.1043736580540335 5.4
    endloop
  endfacet
  facet normal 0 0 1
    outer loop
      vertex 17.572949016875157 -1.7633557568774194 5.4
      vertex 17.572949016875157 1.7633557568774194 5.4
      vertex 17.37107995986841 1.445261022305146 5.4
    endloop
  endfacet
  facet normal 0 0 1
    outer loop
      vertex 17.813094117735766 -2.0536413177860657 5.4
      vertex 17.813094117735766 2.0536413177860657 5.4
      vertex 17.572949016875157 1.7633557568774194 5.4
    endloop
  endfacet
  facet normal 0 0 1
    outer loop
      vertex 18.08772803075393 -2.311539728327368 5.4
      vertex 18.08772803075393 2.311539728327368 5.4
      vertex 17.813094117735766 2.0536413177860657 5.4
    endloop
  endfacet
  facet normal 0 0 1
    outer loop
      vertex 18.39251961506301 -2.532983776506045 5.4
      vertex 18.39251961506301 2.532983776506045 5.4
      vertex 18.08772803075393 2.311539728327368 5.4
    endloop
  endfacet
  facet normal 0 0 1
    outer loop
      vertex 18.722662125304783 -2.7144811573980587 5.4
      vertex 18.722662125304783 2.7144811573980583 5.4
      vertex 18.39251961506301 2.532983776506045 5.4
    endloop
  endfacet
  facet normal 0 0 1
    outer loop
      vertex 19.072949016875157 -2.8531695488854605 5.4
      vertex 19.072949016875157 2.8531695488854605 5.4
      vertex 18.722662125304783 2.7144811573980583 5.4
    endloop
  endfacet
  facet normal 0 0 1
    outer loop
      vertex 19.437856056242826 -2.9468617521860656 5.4
      vertex 19.437856056242826 2.946861752186066 5.4
      vertex 19.072949016875157 2.8531695488854605 5.4
    endloop
  endfacet
  facet normal 0 0 1
    outer loop
      vertex 19.811628441412058 -2.9940801852848145 5.4
      vertex 19.81162844141206 2.9940801852848145 5.4
      vertex 19.437856056242826 2.946861752186066 5.4
    endloop
  endfacet
  facet normal 0 0 1
    outer loop
      vertex 20.188371558587942 -2.9940801852848145 5.4
      vertex 20.18837155858794 2.9940801852848145 5.4
      vertex 19.81162844141206 2.9940801852848145 5.4
    endloop
  endfacet
  facet normal 0 0 1
    outer loop
      vertex 20.562143943757174 -2.9468617521860656 5.4
      vertex 20.562143943757174 2.946861752186066 5.4
      vertex 20.18837155858794 2.9940801852848145 5.4
    endloop
  endfacet
  facet normal 0 0 1
    outer loop
      vertex 20.927050983124843 -2.8531695488854605 5.4
      vertex 20.927050983124843 2.8531695488854605 5.4
      vertex 20.562143943757174 2.946861752186066 5.4
    endloop
  endfacet
  facet normal 0 0 1
    outer loop
      vertex 21.277337874695217 -2.7144811573980587 5.4
      vertex 21.277337874695217 2.7144811573980583 5.4
      vertex 20.927050983124843 2.8531695488854605 5.4
    endloop
  endfacet
  facet normal 0 0 1
    outer loop
      vertex 21.607480384936988 -2.532983776506046 5.4
      vertex 21.60748038493699 2.532983776506045 5.4
      vertex 21.277337874695217 2.7144811573980583 5.4
    endloop
  endfacet
  facet normal 0 0 1
    outer loop
      vertex 21.91227196924607 -2.311539728327367 5.4
      vertex 21.91227196924607 2.3115397283273675 5.4
      vertex 21.60748038493699 2.532983776506045 5.4
    endloop
  endfacet
  facet normal 0 0 1
    outer loop
      vertex 22.186905882264234 -2.0536413177860657 5.4
      vertex 22.186905882264234 2.053641317786066 5.4
      vertex 21.91227196924607 2.3115397283273675 5.4
    endloop
  endfacet
  facet normal 0 0 1
    outer loop
      vertex 22.976344103943433 -0.3759997006929122 5.4
      vertex 23 0 5.4
      vertex 22.976344103943433 0.3759997006929128 5.4
    endloop
  endfacet
  facet normal 0 0 1
    outer loop
      vertex 22.976344103943433 -0.3759997006929122 5.4
      vertex 22.976344103943433 0.3759997006929128 5.4
      vertex 22.905749483385893 0.7460696614945643 5.4
    endloop
  endfacet
  facet normal 0 0 1
    outer loop
      vertex 22.905749483385893 -0.7460696614945633 5.4
      vertex 22.905749483385893 0.7460696614945643 5.4
      vertex 22.789329457664753 1.104373658054034 5.4
    endloop
  endfacet
  facet normal 0 0 1
    outer loop
      vertex 22.789329457664753 -1.104373658054035 5.4
      vertex 22.789329457664753 1.104373658054034 5.4
      vertex 22.62892004013159 1.445261022305146 5.4
    endloop
  endfacet
  facet normal 0 0 1
    outer loop
      vertex 22.62892004013159 -1.445261022305146 5.4
      vertex 22.62892004013159 1.445261022305146 5.4
      vertex 22.427050983124843 1.7633557568774194 5.4
    endloop
  endfacet
  facet normal 0 0 1
    outer loop
      vertex 22.427050983124843 -1.7633557568774194 5.4
      vertex 22.427050983124843 1.7633557568774194 5.4
      vertex 22.186905882264234 2.053641317786066 5.4
    endloop
  endfacet
  facet normal -0.7705132427757875 -0.6374239897486919 0
    outer loop
      vertex -22.427050983124843 -1.7633557568774194 0.5
      vertex -22.186905882264234 -2.0536413177860657 0.5
      vertex -22.427050983124843 -1.7633557568774194 5.4
    endloop
  endfacet
  facet normal -0.8443279255020176 -0.5358267949789927 0
    outer loop
      vertex -22.427050983124843 -1.7633557568774194 0.5
      vertex -22.62892004013159 -1.445261022305146 5.4
      vertex -22.62892004013159 -1.445261022305146 0.5
    endloop
  endfacet
  facet normal -0.48175367410171316 -0.8763066800438648 0
    outer loop
      vertex -21.60748038493699 -2.532983776506045 0.5
      vertex -21.277337874695217 -2.7144811573980587 0.5
      vertex -21.60748038493699 -2.532983776506045 5.4
    endloop
  endfacet
  facet normal -0.5877852522924725 -0.809016994374948 0
    outer loop
      vertex -21.91227196924607 -2.311539728327368 0.5
      vertex -21.60748038493699 -2.532983776506045 0.5
      vertex -21.91227196924607 -2.311539728327368 5.4
    endloop
  endfacet
  facet normal -0.3681245526846789 -0.929776485888251 0
    outer loop
      vertex -20.927050983124843 -2.8531695488854605 0.5
      vertex -21.277337874695217 -2.7144811573980587 5.4
      vertex -21.277337874695217 -2.7144811573980587 0.5
    endloop
  endfacet
  facet normal -0.24868988716485402 -0.9685831611286313 0
    outer loop
      vertex -20.927050983124843 -2.8531695488854605 0.5
      vertex -20.562143943757174 -2.9468617521860656 0.5
      vertex -20.927050983124843 -2.8531695488854605 5.4
    endloop
  endfacet
  facet normal -0.12533323356430526 -0.9921147013144777 0
    outer loop
      vertex -20.562143943757174 -2.9468617521860656 0.5
      vertex -20.188371558587942 -2.9940801852848145 0.5
      vertex -20.562143943757174 -2.9468617521860656 5.4
    endloop
  endfacet
  facet normal -0.6845471059286915 -0.7289686274214088 0
    outer loop
      vertex -21.91227196924607 -2.311539728327368 0.5
      vertex -22.186905882264234 -2.0536413177860657 5.4
      vertex -22.186905882264234 -2.0536413177860657 0.5
    endloop
  endfacet
  facet normal -0.9048270524660165 -0.4257792915650792 0
    outer loop
      vertex -22.62892004013159 -1.445261022305146 0.5
      vertex -22.789329457664756 -1.1043736580540335 5.4
      vertex -22.789329457664756 -1.1043736580540335 0.5
    endloop
  endfacet
  facet normal -0.9510565162951552 -0.3090169943749426 0
    outer loop
      vertex -22.789329457664756 -1.1043736580540335 0.5
      vertex -22.905749483385893 -0.7460696614945646 5.4
      vertex -22.905749483385893 -0.7460696614945646 0.5
    endloop
  endfacet
  facet normal -0.9822872507286889 -0.18738131458572238 0
    outer loop
      vertex -22.905749483385893 -0.7460696614945646 0.5
      vertex -22.976344103943433 -0.3759997006929122 5.4
      vertex -22.976344103943433 -0.3759997006929122 0.5
    endloop
  endfacet
  facet normal -0.9980267284282714 -0.06279051952931575 0
    outer loop
      vertex -22.976344103943433 -0.3759997006929122 0.5
      vertex -23 0 5.4
      vertex -23 0 0.5
    endloop
  endfacet
  facet normal 0 -1 0
    outer loop
      vertex -20.188371558587942 -2.9940801852848145 0.5
      vertex -19.811628441412058 -2.9940801852848145 0.5
      vertex -20.188371558587942 -2.9940801852848145 5.4
    endloop
  endfacet
  facet normal 0.12533323356430526 -0.9921147013144777 0
    outer loop
      vertex -19.811628441412058 -2.9940801852848145 0.5
      vertex -19.437856056242826 -2.9468617521860656 0.5
      vertex -19.811628441412058 -2.9940801852848145 5.4
    endloop
  endfacet
  facet normal 0.24868988716485402 -0.9685831611286313 0
    outer loop
      vertex -19.437856056242826 -2.9468617521860656 0.5
      vertex -19.072949016875157 -2.8531695488854605 0.5
      vertex -19.437856056242826 -2.9468617521860656 5.4
    endloop
  endfacet
  facet normal 0.3681245526846789 -0.929776485888251 0
    outer loop
      vertex -19.072949016875157 -2.8531695488854605 0.5
      vertex -18.722662125304783 -2.7144811573980587 0.5
      vertex -19.072949016875157 -2.8531695488854605 5.4
    endloop
  endfacet
  facet normal 0.48175367410171527 -0.8763066800438636 0
    outer loop
      vertex -18.722662125304783 -2.7144811573980587 0.5
      vertex -18.392519615063012 -2.532983776506046 0.5
      vertex -18.722662125304783 -2.7144811573980587 5.4
    endloop
  endfacet
  facet normal 0.5877852522924709 -0.809016994374949 0
    outer loop
      vertex -18.392519615063012 -2.532983776506046 0.5
      vertex -18.08772803075393 -2.311539728327367 0.5
      vertex -18.392519615063012 -2.532983776506046 5.4
    endloop
  endfacet
  facet normal 0.6845471059286903 -0.7289686274214099 0
    outer loop
      vertex -18.08772803075393 -2.311539728327367 0.5
      vertex -17.813094117735766 -2.0536413177860657 0.5
      vertex -18.08772803075393 -2.311539728327367 5.4
    endloop
  endfacet
  facet normal 0.7705132427757875 -0.6374239897486919 0
    outer loop
      vertex -17.813094117735766 -2.0536413177860657 0.5
      vertex -17.572949016875157 -1.7633557568774194 0.5
      vertex -17.813094117735766 -2.0536413177860657 5.4
    endloop
  endfacet
  facet normal 0.8443279255020176 -0.5358267949789927 0
    outer loop
      vertex -17.572949016875157 -1.7633557568774194 0.5
      vertex -17.37107995986841 -1.445261022305146 0.5
      vertex -17.572949016875157 -1.7633557568774194 5.4
    endloop
  endfacet
  facet normal 0.9048270524660195 -0.42577929156507305 0
    outer loop
      vertex -17.37107995986841 -1.445261022305146 0.5
      vertex -17.210670542335247 -1.104373658054035 0.5
      vertex -17.37107995986841 -1.445261022305146 5.4
    endloop
  endfacet
  facet normal 0.9510565162951531 -0.309016994374949 0
    outer loop
      vertex -17.210670542335247 -1.104373658054035 0.5
      vertex -17.094250516614107 -0.7460696614945633 0.5
      vertex -17.210670542335247 -1.104373658054035 5.4
    endloop
  endfacet
  facet normal 0.9822872507286889 -0.187381314585723 0
    outer loop
      vertex -17.094250516614107 -0.7460696614945633 0.5
      vertex -17.023655896056567 -0.3759997006929122 0.5
      vertex -17.094250516614107 -0.7460696614945633 5.4
    endloop
  endfacet
  facet normal 0.9980267284282714 -0.06279051952931575 0
    outer loop
      vertex -17.023655896056567 -0.3759997006929122 0.5
      vertex -17 0 0.5
      vertex -17.023655896056567 -0.3759997006929122 5.4
    endloop
  endfacet
  facet normal -0.8443279255020176 -0.5358267949789927 0
    outer loop
      vertex -22.427050983124843 -1.7633557568774194 0.5
      vertex -22.427050983124843 -1.7633557568774194 5.4
      vertex -22.62892004013159 -1.445261022305146 5.4
    endloop
  endfacet
  facet normal -0.48175367410171316 -0.8763066800438648 0
    outer loop
      vertex -21.277337874695217 -2.7144811573980587 0.5
      vertex -21.277337874695217 -2.7144811573980587 5.4
      vertex -21.60748038493699 -2.532983776506045 5.4
    endloop
  endfacet
  facet normal -0.5877852522924725 -0.809016994374948 0
    outer loop
      vertex -21.60748038493699 -2.532983776506045 0.5
      vertex -21.60748038493699 -2.532983776506045 5.4
      vertex -21.91227196924607 -2.311539728327368 5.4
    endloop
  endfacet
  facet normal -0.3681245526846789 -0.929776485888251 0
    outer loop
      vertex -20.927050983124843 -2.8531695488854605 0.5
      vertex -20.927050983124843 -2.8531695488854605 5.4
      vertex -21.277337874695217 -2.7144811573980587 5.4
    endloop
  endfacet
  facet normal -0.24868988716485402 -0.9685831611286313 0
    outer loop
      vertex -20.562143943757174 -2.9468617521860656 0.5
      vertex -20.562143943757174 -2.9468617521860656 5.4
      vertex -20.927050983124843 -2.8531695488854605 5.4
    endloop
  endfacet
  facet normal -0.12533323356430526 -0.9921147013144777 0
    outer loop
      vertex -20.188371558587942 -2.9940801852848145 0.5
      vertex -20.188371558587942 -2.9940801852848145 5.4
      vertex -20.562143943757174 -2.9468617521860656 5.4
    endloop
  endfacet
  facet normal -0.6845471059286915 -0.7289686274214088 0
    outer loop
      vertex -21.91227196924607 -2.311539728327368 0.5
      vertex -21.91227196924607 -2.311539728327368 5.4
      vertex -22.186905882264234 -2.0536413177860657 5.4
    endloop
  endfacet
  facet normal -0.7705132427757875 -0.6374239897486919 0
    outer loop
      vertex -22.186905882264234 -2.0536413177860657 0.5
      vertex -22.186905882264234 -2.0536413177860657 5.4
      vertex -22.427050983124843 -1.7633557568774194 5.4
    endloop
  endfacet
  facet normal -0.9048270524660165 -0.4257792915650792 0
    outer loop
      vertex -22.62892004013159 -1.445261022305146 0.5
      vertex -22.62892004013159 -1.445261022305146 5.4
      vertex -22.789329457664756 -1.1043736580540335 5.4
    endloop
  endfacet
  facet normal -0.9510565162951552 -0.3090169943749426 0
    outer loop
      vertex -22.789329457664756 -1.1043736580540335 0.5
      vertex -22.789329457664756 -1.1043736580540335 5.4
      vertex -22.905749483385893 -0.7460696614945646 5.4
    endloop
  endfacet
  facet normal -0.9822872507286889 -0.18738131458572238 0
    outer loop
      vertex -22.905749483385893 -0.7460696614945646 0.5
      vertex -22.905749483385893 -0.7460696614945646 5.4
      vertex -22.976344103943433 -0.3759997006929122 5.4
    endloop
  endfacet
  facet normal -0.9980267284282714 -0.06279051952931575 0
    outer loop
      vertex -22.976344103943433 -0.3759997006929122 0.5
      vertex -22.976344103943433 -0.3759997006929122 5.4
      vertex -23 0 5.4
    endloop
  endfacet
  facet normal 0 -1 0
    outer loop
      vertex -19.811628441412058 -2.9940801852848145 0.5
      vertex -19.811628441412058 -2.9940801852848145 5.4
      vertex -20.188371558587942 -2.9940801852848145 5.4
    endloop
  endfacet
  facet normal 0.12533323356430526 -0.9921147013144777 0
    outer loop
      vertex -19.437856056242826 -2.9468617521860656 0.5
      vertex -19.437856056242826 -2.9468617521860656 5.4
      vertex -19.811628441412058 -2.9940801852848145 5.4
    endloop
  endfacet
  facet normal 0.24868988716485402 -0.9685831611286313 0
    outer loop
      vertex -19.072949016875157 -2.8531695488854605 0.5
      vertex -19.072949016875157 -2.8531695488854605 5.4
      vertex -19.437856056242826 -2.9468617521860656 5.4
    endloop
  endfacet
  facet normal 0.3681245526846789 -0.929776485888251 0
    outer loop
      vertex -18.722662125304783 -2.7144811573980587 0.5
      vertex -18.722662125304783 -2.7144811573980587 5.4
      vertex -19.072949016875157 -2.8531695488854605 5.4
    endloop
  endfacet
  facet normal 0.48175367410171527 -0.8763066800438636 0
    outer loop
      vertex -18.392519615063012 -2.532983776506046 0.5
      vertex -18.392519615063012 -2.532983776506046 5.4
      vertex -18.722662125304783 -2.7144811573980587 5.4
    endloop
  endfacet
  facet normal 0.5877852522924709 -0.809016994374949 0
    outer loop
      vertex -18.08772803075393 -2.311539728327367 0.5
      vertex -18.08772803075393 -2.311539728327367 5.4
      vertex -18.392519615063012 -2.532983776506046 5.4
    endloop
  endfacet
  facet normal 0.6845471059286903 -0.7289686274214099 0
    outer loop
      vertex -17.813094117735766 -2.0536413177860657 0.5
      vertex -17.813094117735766 -2.0536413177860657 5.4
      vertex -18.08772803075393 -2.311539728327367 5.4
    endloop
  endfacet
  facet normal 0.7705132427757875 -0.6374239897486919 0
    outer loop
      vertex -17.572949016875157 -1.7633557568774194 0.5
      vertex -17.572949016875157 -1.7633557568774194 5.4
      vertex -17.813094117735766 -2.0536413177860657 5.4
    endloop
  endfacet
  facet normal 0.8443279255020176 -0.5358267949789927 0
    outer loop
      vertex -17.37107995986841 -1.445261022305146 0.5
      vertex -17.37107995986841 -1.445261022305146 5.4
      vertex -17.572949016875157 -1.7633557568774194 5.4
    endloop
  endfacet
  facet normal 0.9048270524660195 -0.42577929156507305 0
    outer loop
      vertex -17.210670542335247 -1.104373658054035 0.5
      vertex -17.210670542335247 -1.104373658054035 5.4
      vertex -17.37107995986841 -1.445261022305146 5.4
    endloop
  endfacet
  facet normal 0.9510565162951531 -0.309016994374949 0
    outer loop
      vertex -17.094250516614107 -0.7460696614945633 0.5
      vertex -17.094250516614107 -0.7460696614945633 5.4
      vertex -17.210670542335247 -1.104373658054035 5.4
    endloop
  endfacet
  facet normal 0.9822872507286889 -0.187381314585723 0
    outer loop
      vertex -17.023655896056567 -0.3759997006929122 0.5
      vertex -17.023655896056567 -0.3759997006929122 5.4
      vertex -17.094250516614107 -0.7460696614945633 5.4
    endloop
  endfacet
  facet normal 0.9980267284282714 -0.06279051952931575 0
    outer loop
      vertex -17.023655896056567 -0.3759997006929122 5.4
      vertex -17 0 0.5
      vertex -17 0 5.4
    endloop
  endfacet
  facet normal 0 0 1
    outer loop
      vertex -22.427050983124843 -1.7633557568774194 5.4
      vertex -22.186905882264234 -2.0536413177860657 5.4
      vertex -22.427050983124843 1.7633557568774194 5.4
    endloop
  endfacet
  facet normal 0 0 1
    outer loop
      vertex -22.427050983124843 -1.7633557568774194 5.4
      vertex -22.62892004013159 1.445261022305146 5.4
      vertex -22.62892004013159 -1.445261022305146 5.4
    endloop
  endfacet
  facet normal 0 0 1
    outer loop
      vertex -22.62892004013159 -1.445261022305146 5.4
      vertex -22.789329457664756 1.1043736580540335 5.4
      vertex -22.789329457664756 -1.1043736580540335 5.4
    endloop
  endfacet
  facet normal 0 0 1
    outer loop
      vertex -22.789329457664756 -1.1043736580540335 5.4
      vertex -22.905749483385893 0.7460696614945646 5.4
      vertex -22.905749483385893 -0.7460696614945646 5.4
    endloop
  endfacet
  facet normal 0 0 1
    outer loop
      vertex -22.905749483385893 -0.7460696614945646 5.4
      vertex -22.976344103943433 0.3759997006929122 5.4
      vertex -22.976344103943433 -0.3759997006929122 5.4
    endloop
  endfacet
  facet normal 0 0 1
    outer loop
      vertex -21.91227196924607 -2.311539728327368 5.4
      vertex -22.186905882264234 2.0536413177860657 5.4
      vertex -22.186905882264234 -2.0536413177860657 5.4
    endloop
  endfacet
  facet normal 0 0 1
    outer loop
      vertex -21.91227196924607 -2.311539728327368 5.4
      vertex -21.60748038493699 -2.532983776506045 5.4
      vertex -21.91227196924607 2.311539728327368 5.4
    endloop
  endfacet
  facet normal 0 0 1
    outer loop
      vertex -21.60748038493699 -2.532983776506045 5.4
      vertex -21.277337874695217 -2.7144811573980587 5.4
      vertex -21.60748038493699 2.532983776506045 5.4
    endloop
  endfacet
  facet normal 0 0 1
    outer loop
      vertex -20.927050983124843 -2.8531695488854605 5.4
      vertex -21.277337874695217 2.7144811573980583 5.4
      vertex -21.277337874695217 -2.7144811573980587 5.4
    endloop
  endfacet
  facet normal 0 0 1
    outer loop
      vertex -20.927050983124843 -2.8531695488854605 5.4
      vertex -20.562143943757174 -2.9468617521860656 5.4
      vertex -20.927050983124843 2.8531695488854605 5.4
    endloop
  endfacet
  facet normal 0 0 1
    outer loop
      vertex -20.562143943757174 -2.9468617521860656 5.4
      vertex -20.188371558587942 -2.9940801852848145 5.4
      vertex -20.562143943757174 2.946861752186066 5.4
    endloop
  endfacet
  facet normal 0 0 1
    outer loop
      vertex -20.188371558587942 -2.9940801852848145 5.4
      vertex -19.811628441412058 -2.9940801852848145 5.4
      vertex -20.18837155858794 2.9940801852848145 5.4
    endloop
  endfacet
  facet normal 0 0 1
    outer loop
      vertex -19.811628441412058 -2.9940801852848145 5.4
      vertex -19.437856056242826 -2.9468617521860656 5.4
      vertex -19.81162844141206 2.9940801852848145 5.4
    endloop
  endfacet
  facet normal 0 0 1
    outer loop
      vertex -19.437856056242826 -2.9468617521860656 5.4
      vertex -19.072949016875157 -2.8531695488854605 5.4
      vertex -19.437856056242826 2.946861752186066 5.4
    endloop
  endfacet
  facet normal 0 0 1
    outer loop
      vertex -19.072949016875157 -2.8531695488854605 5.4
      vertex -18.722662125304783 -2.7144811573980587 5.4
      vertex -19.072949016875157 2.8531695488854605 5.4
    endloop
  endfacet
  facet normal 0 0 1
    outer loop
      vertex -18.722662125304783 -2.7144811573980587 5.4
      vertex -18.392519615063012 -2.532983776506046 5.4
      vertex -18.722662125304783 2.7144811573980583 5.4
    endloop
  endfacet
  facet normal 0 0 1
    outer loop
      vertex -18.392519615063012 -2.532983776506046 5.4
      vertex -18.08772803075393 -2.311539728327367 5.4
      vertex -18.39251961506301 2.532983776506045 5.4
    endloop
  endfacet
  facet normal 0 0 1
    outer loop
      vertex -18.08772803075393 -2.311539728327367 5.4
      vertex -17.813094117735766 -2.0536413177860657 5.4
      vertex -18.08772803075393 2.3115397283273675 5.4
    endloop
  endfacet
  facet normal 0 0 1
    outer loop
      vertex -17.813094117735766 -2.0536413177860657 5.4
      vertex -17.572949016875157 -1.7633557568774194 5.4
      vertex -17.813094117735766 2.053641317786066 5.4
    endloop
  endfacet
  facet normal 0 0 1
    outer loop
      vertex -17.572949016875157 -1.7633557568774194 5.4
      vertex -17.37107995986841 -1.445261022305146 5.4
      vertex -17.572949016875157 1.7633557568774194 5.4
    endloop
  endfacet
  facet normal 0 0 1
    outer loop
      vertex -17.37107995986841 -1.445261022305146 5.4
      vertex -17.210670542335247 -1.104373658054035 5.4
      vertex -17.37107995986841 1.445261022305146 5.4
    endloop
  endfacet
  facet normal 0 0 1
    outer loop
      vertex -17.210670542335247 -1.104373658054035 5.4
      vertex -17.094250516614107 -0.7460696614945633 5.4
      vertex -17.210670542335247 1.104373658054034 5.4
    endloop
  endfacet
  facet normal 0 0 1
    outer loop
      vertex -17.094250516614107 -0.7460696614945633 5.4
      vertex -17.023655896056567 -0.3759997006929122 5.4
      vertex -17.094250516614107 0.7460696614945643 5.4
    endloop
  endfacet
  facet normal -0.9980267284282714 0.06279051952931575 0
    outer loop
      vertex -23 0 0.5
      vertex -22.976344103943433 0.3759997006929122 5.4
      vertex -22.976344103943433 0.3759997006929122 0.5
    endloop
  endfacet
  facet normal -0.9822872507286889 0.18738131458572238 0
    outer loop
      vertex -22.976344103943433 0.3759997006929122 0.5
      vertex -22.905749483385893 0.7460696614945646 5.4
      vertex -22.905749483385893 0.7460696614945646 0.5
    endloop
  endfacet
  facet normal -0.9510565162951552 0.3090169943749426 0
    outer loop
      vertex -22.905749483385893 0.7460696614945646 0.5
      vertex -22.789329457664756 1.1043736580540335 5.4
      vertex -22.789329457664756 1.1043736580540335 0.5
    endloop
  endfacet
  facet normal -0.9048270524660165 0.4257792915650792 0
    outer loop
      vertex -22.789329457664756 1.1043736580540335 0.5
      vertex -22.62892004013159 1.445261022305146 5.4
      vertex -22.62892004013159 1.445261022305146 0.5
    endloop
  endfacet
  facet normal -0.8443279255020176 0.5358267949789927 0
    outer loop
      vertex -22.62892004013159 1.445261022305146 0.5
      vertex -22.427050983124843 1.7633557568774194 5.4
      vertex -22.427050983124843 1.7633557568774194 0.5
    endloop
  endfacet
  facet normal -0.7705132427757875 0.6374239897486919 0
    outer loop
      vertex -22.427050983124843 1.7633557568774194 0.5
      vertex -22.186905882264234 2.0536413177860657 5.4
      vertex -22.186905882264234 2.0536413177860657 0.5
    endloop
  endfacet
  facet normal -0.6845471059286915 0.7289686274214088 0
    outer loop
      vertex -22.186905882264234 2.0536413177860657 0.5
      vertex -21.91227196924607 2.311539728327368 5.4
      vertex -21.91227196924607 2.311539728327368 0.5
    endloop
  endfacet
  facet normal -0.5877852522924725 0.809016994374948 0
    outer loop
      vertex -21.91227196924607 2.311539728327368 0.5
      vertex -21.60748038493699 2.532983776506045 5.4
      vertex -21.60748038493699 2.532983776506045 0.5
    endloop
  endfacet
  facet normal -0.48175367410171216 0.8763066800438652 0
    outer loop
      vertex -21.60748038493699 2.532983776506045 0.5
      vertex -21.277337874695217 2.7144811573980583 5.4
      vertex -21.277337874695217 2.7144811573980583 0.5
    endloop
  endfacet
  facet normal -0.36812455268468 0.9297764858882506 0
    outer loop
      vertex -21.277337874695217 2.7144811573980583 0.5
      vertex -20.927050983124843 2.8531695488854605 5.4
      vertex -20.927050983124843 2.8531695488854605 0.5
    endloop
  endfacet
  facet normal -0.24868988716485513 0.9685831611286311 0
    outer loop
      vertex -20.927050983124843 2.8531695488854605 0.5
      vertex -20.562143943757174 2.946861752186066 5.4
      vertex -20.562143943757174 2.946861752186066 0.5
    endloop
  endfacet
  facet normal -0.12533323356430293 0.992114701314478 0
    outer loop
      vertex -20.562143943757174 2.946861752186066 0.5
      vertex -20.18837155858794 2.9940801852848145 5.4
      vertex -20.18837155858794 2.9940801852848145 0.5
    endloop
  endfacet
  facet normal 0.9980267284282714 0.06279051952931565 0
    outer loop
      vertex -17 0 0.5
      vertex -17.023655896056567 0.3759997006929128 0.5
      vertex -17 0 5.4
    endloop
  endfacet
  facet normal 0.9822872507286889 0.18738131458572277 0
    outer loop
      vertex -17.023655896056567 0.3759997006929128 0.5
      vertex -17.094250516614107 0.7460696614945643 0.5
      vertex -17.023655896056567 0.3759997006929128 5.4
    endloop
  endfacet
  facet normal 0.9510565162951526 0.3090169943749506 0
    outer loop
      vertex -17.094250516614107 0.7460696614945643 0.5
      vertex -17.210670542335247 1.104373658054034 0.5
      vertex -17.094250516614107 0.7460696614945643 5.4
    endloop
  endfacet
  facet normal 0.9048270524660199 0.4257792915650719 0
    outer loop
      vertex -17.37107995986841 1.445261022305146 0.5
      vertex -17.210670542335247 1.104373658054034 5.4
      vertex -17.210670542335247 1.104373658054034 0.5
    endloop
  endfacet
  facet normal 0 1 0
    outer loop
      vertex -20.18837155858794 2.9940801852848145 0.5
      vertex -19.81162844141206 2.9940801852848145 5.4
      vertex -19.81162844141206 2.9940801852848145 0.5
    endloop
  endfacet
  facet normal 0.12533323356430293 0.992114701314478 0
    outer loop
      vertex -19.81162844141206 2.9940801852848145 0.5
      vertex -19.437856056242826 2.946861752186066 5.4
      vertex -19.437856056242826 2.946861752186066 0.5
    endloop
  endfacet
  facet normal 0.48175367410171216 0.8763066800438652 0
    outer loop
      vertex -18.39251961506301 2.532983776506045 0.5
      vertex -18.722662125304783 2.7144811573980583 0.5
      vertex -18.39251961506301 2.532983776506045 5.4
    endloop
  endfacet
  facet normal 0.36812455268468 0.9297764858882506 0
    outer loop
      vertex -19.072949016875157 2.8531695488854605 0.5
      vertex -18.722662125304783 2.7144811573980583 5.4
      vertex -18.722662125304783 2.7144811573980583 0.5
    endloop
  endfacet
  facet normal 0.24868988716485513 0.9685831611286311 0
    outer loop
      vertex -19.437856056242826 2.946861752186066 0.5
      vertex -19.072949016875157 2.8531695488854605 5.4
      vertex -19.072949016875157 2.8531695488854605 0.5
    endloop
  endfacet
  facet normal 0.8443279255020176 0.5358267949789927 0
    outer loop
      vertex -17.37107995986841 1.445261022305146 0.5
      vertex -17.572949016875157 1.7633557568774194 0.5
      vertex -17.37107995986841 1.445261022305146 5.4
    endloop
  endfacet
  facet normal 0.770513242775788 0.6374239897486913 0
    outer loop
      vertex -17.572949016875157 1.7633557568774194 0.5
      vertex -17.813094117735766 2.053641317786066 0.5
      vertex -17.572949016875157 1.7633557568774194 5.4
    endloop
  endfacet
  facet normal 0.6845471059286903 0.7289686274214099 0
    outer loop
      vertex -17.813094117735766 2.053641317786066 0.5
      vertex -18.08772803075393 2.3115397283273675 0.5
      vertex -17.813094117735766 2.053641317786066 5.4
    endloop
  endfacet
  facet normal 0.5877852522924732 0.8090169943749475 0
    outer loop
      vertex -18.39251961506301 2.532983776506045 0.5
      vertex -18.08772803075393 2.3115397283273675 5.4
      vertex -18.08772803075393 2.3115397283273675 0.5
    endloop
  endfacet
  facet normal -0.9980267284282714 0.06279051952931575 0
    outer loop
      vertex -23 0 0.5
      vertex -23 0 5.4
      vertex -22.976344103943433 0.3759997006929122 5.4
    endloop
  endfacet
  facet normal -0.9822872507286889 0.18738131458572238 0
    outer loop
      vertex -22.976344103943433 0.3759997006929122 0.5
      vertex -22.976344103943433 0.3759997006929122 5.4
      vertex -22.905749483385893 0.7460696614945646 5.4
    endloop
  endfacet
  facet normal -0.9510565162951552 0.3090169943749426 0
    outer loop
      vertex -22.905749483385893 0.7460696614945646 0.5
      vertex -22.905749483385893 0.7460696614945646 5.4
      vertex -22.789329457664756 1.1043736580540335 5.4
    endloop
  endfacet
  facet normal -0.9048270524660165 0.4257792915650792 0
    outer loop
      vertex -22.789329457664756 1.1043736580540335 0.5
      vertex -22.789329457664756 1.1043736580540335 5.4
      vertex -22.62892004013159 1.445261022305146 5.4
    endloop
  endfacet
  facet normal -0.8443279255020176 0.5358267949789927 0
    outer loop
      vertex -22.62892004013159 1.445261022305146 0.5
      vertex -22.62892004013159 1.445261022305146 5.4
      vertex -22.427050983124843 1.7633557568774194 5.4
    endloop
  endfacet
  facet normal -0.7705132427757875 0.6374239897486919 0
    outer loop
      vertex -22.427050983124843 1.7633557568774194 0.5
      vertex -22.427050983124843 1.7633557568774194 5.4
      vertex -22.186905882264234 2.0536413177860657 5.4
    endloop
  endfacet
  facet normal -0.6845471059286915 0.7289686274214088 0
    outer loop
      vertex -22.186905882264234 2.0536413177860657 0.5
      vertex -22.186905882264234 2.0536413177860657 5.4
      vertex -21.91227196924607 2.311539728327368 5.4
    endloop
  endfacet
  facet normal -0.5877852522924725 0.809016994374948 0
    outer loop
      vertex -21.91227196924607 2.311539728327368 0.5
      vertex -21.91227196924607 2.311539728327368 5.4
      vertex -21.60748038493699 2.532983776506045 5.4
    endloop
  endfacet
  facet normal -0.48175367410171216 0.8763066800438652 0
    outer loop
      vertex -21.60748038493699 2.532983776506045 0.5
      vertex -21.60748038493699 2.532983776506045 5.4
      vertex -21.277337874695217 2.7144811573980583 5.4
    endloop
  endfacet
  facet normal -0.36812455268468 0.9297764858882506 0
    outer loop
      vertex -21.277337874695217 2.7144811573980583 0.5
      vertex -21.277337874695217 2.7144811573980583 5.4
      vertex -20.927050983124843 2.8531695488854605 5.4
    endloop
  endfacet
  facet normal -0.24868988716485513 0.9685831611286311 0
    outer loop
      vertex -20.927050983124843 2.8531695488854605 0.5
      vertex -20.927050983124843 2.8531695488854605 5.4
      vertex -20.562143943757174 2.946861752186066 5.4
    endloop
  endfacet
  facet normal -0.12533323356430293 0.992114701314478 0
    outer loop
      vertex -20.562143943757174 2.946861752186066 0.5
      vertex -20.562143943757174 2.946861752186066 5.4
      vertex -20.18837155858794 2.9940801852848145 5.4
    endloop
  endfacet
  facet normal 0.9980267284282714 0.06279051952931565 0
    outer loop
      vertex -17.023655896056567 0.3759997006929128 0.5
      vertex -17.023655896056567 0.3759997006929128 5.4
      vertex -17 0 5.4
    endloop
  endfacet
  facet normal 0.9822872507286889 0.18738131458572277 0
    outer loop
      vertex -17.094250516614107 0.7460696614945643 0.5
      vertex -17.094250516614107 0.7460696614945643 5.4
      vertex -17.023655896056567 0.3759997006929128 5.4
    endloop
  endfacet
  facet normal 0.9048270524660199 0.4257792915650719 0
    outer loop
      vertex -17.37107995986841 1.445261022305146 0.5
      vertex -17.37107995986841 1.445261022305146 5.4
      vertex -17.210670542335247 1.104373658054034 5.4
    endloop
  endfacet
  facet normal 0.9510565162951526 0.3090169943749506 0
    outer loop
      vertex -17.210670542335247 1.104373658054034 0.5
      vertex -17.210670542335247 1.104373658054034 5.4
      vertex -17.094250516614107 0.7460696614945643 5.4
    endloop
  endfacet
  facet normal 0 1 0
    outer loop
      vertex -20.18837155858794 2.9940801852848145 0.5
      vertex -20.18837155858794 2.9940801852848145 5.4
      vertex -19.81162844141206 2.9940801852848145 5.4
    endloop
  endfacet
  facet normal 0.12533323356430293 0.992114701314478 0
    outer loop
      vertex -19.81162844141206 2.9940801852848145 0.5
      vertex -19.81162844141206 2.9940801852848145 5.4
      vertex -19.437856056242826 2.946861752186066 5.4
    endloop
  endfacet
  facet normal 0.24868988716485513 0.9685831611286311 0
    outer loop
      vertex -19.437856056242826 2.946861752186066 0.5
      vertex -19.437856056242826 2.946861752186066 5.4
      vertex -19.072949016875157 2.8531695488854605 5.4
    endloop
  endfacet
  facet normal 0.5877852522924732 0.8090169943749475 0
    outer loop
      vertex -18.39251961506301 2.532983776506045 0.5
      vertex -18.39251961506301 2.532983776506045 5.4
      vertex -18.08772803075393 2.3115397283273675 5.4
    endloop
  endfacet
  facet normal 0.36812455268468 0.9297764858882506 0
    outer loop
      vertex -19.072949016875157 2.8531695488854605 0.5
      vertex -19.072949016875157 2.8531695488854605 5.4
      vertex -18.722662125304783 2.7144811573980583 5.4
    endloop
  endfacet
  facet normal 0.48175367410171216 0.8763066800438652 0
    outer loop
      vertex -18.722662125304783 2.7144811573980583 0.5
      vertex -18.722662125304783 2.7144811573980583 5.4
      vertex -18.39251961506301 2.532983776506045 5.4
    endloop
  endfacet
  facet normal 0.8443279255020176 0.5358267949789927 0
    outer loop
      vertex -17.572949016875157 1.7633557568774194 0.5
      vertex -17.572949016875157 1.7633557568774194 5.4
      vertex -17.37107995986841 1.445261022305146 5.4
    endloop
  endfacet
  facet normal 0.6845471059286903 0.7289686274214099 0
    outer loop
      vertex -18.08772803075393 2.3115397283273675 0.5
      vertex -18.08772803075393 2.3115397283273675 5.4
      vertex -17.813094117735766 2.053641317786066 5.4
    endloop
  endfacet
  facet normal 0.770513242775788 0.6374239897486913 0
    outer loop
      vertex -17.813094117735766 2.053641317786066 0.5
      vertex -17.813094117735766 2.053641317786066 5.4
      vertex -17.572949016875157 1.7633557568774194 5.4
    endloop
  endfacet
  facet normal 0 0 1
    outer loop
      vertex -22.976344103943433 -0.3759997006929122 5.4
      vertex -22.976344103943433 0.3759997006929122 5.4
      vertex -23 0 5.4
    endloop
  endfacet
  facet normal 0 0 1
    outer loop
      vertex -22.905749483385893 -0.7460696614945646 5.4
      vertex -22.905749483385893 0.7460696614945646 5.4
      vertex -22.976344103943433 0.3759997006929122 5.4
    endloop
  endfacet
  facet normal 0 0 1
    outer loop
      vertex -22.789329457664756 -1.1043736580540335 5.4
      vertex -22.789329457664756 1.1043736580540335 5.4
      vertex -22.905749483385893 0.7460696614945646 5.4
    endloop
  endfacet
  facet normal 0 0 1
    outer loop
      vertex -22.62892004013159 -1.445261022305146 5.4
      vertex -22.62892004013159 1.445261022305146 5.4
      vertex -22.789329457664756 1.1043736580540335 5.4
    endloop
  endfacet
  facet normal 0 0 1
    outer loop
      vertex -22.427050983124843 -1.7633557568774194 5.4
      vertex -22.427050983124843 1.7633557568774194 5.4
      vertex -22.62892004013159 1.445261022305146 5.4
    endloop
  endfacet
  facet normal 0 0 1
    outer loop
      vertex -22.186905882264234 -2.0536413177860657 5.4
      vertex -22.186905882264234 2.0536413177860657 5.4
      vertex -22.427050983124843 1.7633557568774194 5.4
    endloop
  endfacet
  facet normal 0 0 1
    outer loop
      vertex -21.91227196924607 -2.311539728327368 5.4
      vertex -21.91227196924607 2.311539728327368 5.4
      vertex -22.186905882264234 2.0536413177860657 5.4
    endloop
  endfacet
  facet normal 0 0 1
    outer loop
      vertex -21.60748038493699 -2.532983776506045 5.4
      vertex -21.60748038493699 2.532983776506045 5.4
      vertex -21.91227196924607 2.311539728327368 5.4
    endloop
  endfacet
  facet normal 0 0 1
    outer loop
      vertex -21.277337874695217 -2.7144811573980587 5.4
      vertex -21.277337874695217 2.7144811573980583 5.4
      vertex -21.60748038493699 2.532983776506045 5.4
    endloop
  endfacet
  facet normal 0 0 1
    outer loop
      vertex -20.927050983124843 -2.8531695488854605 5.4
      vertex -20.927050983124843 2.8531695488854605 5.4
      vertex -21.277337874695217 2.7144811573980583 5.4
    endloop
  endfacet
  facet normal 0 0 1
    outer loop
      vertex -20.562143943757174 -2.9468617521860656 5.4
      vertex -20.562143943757174 2.946861752186066 5.4
      vertex -20.927050983124843 2.8531695488854605 5.4
    endloop
  endfacet
  facet normal 0 0 1
    outer loop
      vertex -20.188371558587942 -2.9940801852848145 5.4
      vertex -20.18837155858794 2.9940801852848145 5.4
      vertex -20.562143943757174 2.946861752186066 5.4
    endloop
  endfacet
  facet normal 0 0 1
    outer loop
      vertex -19.811628441412058 -2.9940801852848145 5.4
      vertex -19.81162844141206 2.9940801852848145 5.4
      vertex -20.18837155858794 2.9940801852848145 5.4
    endloop
  endfacet
  facet normal 0 0 1
    outer loop
      vertex -19.437856056242826 -2.9468617521860656 5.4
      vertex -19.437856056242826 2.946861752186066 5.4
      vertex -19.81162844141206 2.9940801852848145 5.4
    endloop
  endfacet
  facet normal 0 0 1
    outer loop
      vertex -19.072949016875157 -2.8531695488854605 5.4
      vertex -19.072949016875157 2.8531695488854605 5.4
      vertex -19.437856056242826 2.946861752186066 5.4
    endloop
  endfacet
  facet normal 0 0 1
    outer loop
      vertex -18.722662125304783 -2.7144811573980587 5.4
      vertex -18.722662125304783 2.7144811573980583 5.4
      vertex -19.072949016875157 2.8531695488854605 5.4
    endloop
  endfacet
  facet normal 0 0 1
    outer loop
      vertex -18.392519615063012 -2.532983776506046 5.4
      vertex -18.39251961506301 2.532983776506045 5.4
      vertex -18.722662125304783 2.7144811573980583 5.4
    endloop
  endfacet
  facet normal 0 0 1
    outer loop
      vertex -17.572949016875157 -1.7633557568774194 5.4
      vertex -17.572949016875157 1.7633557568774194 5.4
      vertex -17.813094117735766 2.053641317786066 5.4
    endloop
  endfacet
  facet normal 0 0 1
    outer loop
      vertex -17.37107995986841 -1.445261022305146 5.4
      vertex -17.37107995986841 1.445261022305146 5.4
      vertex -17.572949016875157 1.7633557568774194 5.4
    endloop
  endfacet
  facet normal 0 0 1
    outer loop
      vertex -17.023655896056567 -0.3759997006929122 5.4
      vertex -17 0 5.4
      vertex -17.023655896056567 0.3759997006929128 5.4
    endloop
  endfacet
  facet normal 0 0 1
    outer loop
      vertex -17.023655896056567 -0.3759997006929122 5.4
      vertex -17.023655896056567 0.3759997006929128 5.4
      vertex -17.094250516614107 0.7460696614945643 5.4
    endloop
  endfacet
  facet normal 0 0 1
    outer loop
      vertex -17.094250516614107 -0.7460696614945633 5.4
      vertex -17.094250516614107 0.7460696614945643 5.4
      vertex -17.210670542335247 1.104373658054034 5.4
    endloop
  endfacet
  facet normal 0 0 1
    outer loop
      vertex -17.210670542335247 -1.104373658054035 5.4
      vertex -17.210670542335247 1.104373658054034 5.4
      vertex -17.37107995986841 1.445261022305146 5.4
    endloop
  endfacet
  facet normal 0 0 1
    outer loop
      vertex -18.08772803075393 -2.311539728327367 5.4
      vertex -18.08772803075393 2.3115397283273675 5.4
      vertex -18.39251961506301 2.532983776506045 5.4
    endloop
  endfacet
  facet normal 0 0 1
    outer loop
      vertex -17.813094117735766 -2.0536413177860657 5.4
      vertex -17.813094117735766 2.053641317786066 5.4
      vertex -18.08772803075393 2.3115397283273675 5.4
    endloop
  endfacet
  facet normal 0 -1 0
    outer loop
      vertex -27.5 -6 -0.5
      vertex 27.5 -6 0.5
      vertex -27.5 -6 0.5
    endloop
  endfacet
  facet normal 0 0 -1
    outer loop
      vertex -27.5 -6 -0.5
      vertex -27.5 6 -0.5
      vertex 27.5 6 -0.5
    endloop
  endfacet
  facet normal 0 0 1
    outer loop
      vertex -27.5 -6 0.5
      vertex -22.789329457664756 -1.1043736580540335 0.5
      vertex -22.905749483385893 -0.7460696614945646 0.5
    endloop
  endfacet
  facet normal 0 0 1
    outer loop
      vertex -27.5 -6 0.5
      vertex -22.905749483385893 -0.7460696614945646 0.5
      vertex -27.5 6 0.5
    endloop
  endfacet
  facet normal 0 0 1
    outer loop
      vertex -27.5 -6 0.5
      vertex -20.927050983124843 -2.8531695488854605 0.5
      vertex -21.277337874695217 -2.7144811573980587 0.5
    endloop
  endfacet
  facet normal 0 0 1
    outer loop
      vertex -27.5 -6 0.5
      vertex -20.562143943757174 -2.9468617521860656 0.5
      vertex -20.927050983124843 -2.8531695488854605 0.5
    endloop
  endfacet
  facet normal 0 0 1
    outer loop
      vertex -27.5 -6 0.5
      vertex -20.188371558587942 -2.9940801852848145 0.5
      vertex -20.562143943757174 -2.9468617521860656 0.5
    endloop
  endfacet
  facet normal 0 0 1
    outer loop
      vertex -27.5 -6 0.5
      vertex -19.811628441412058 -2.9940801852848145 0.5
      vertex -20.188371558587942 -2.9940801852848145 0.5
    endloop
  endfacet
  facet normal 0 0 1
    outer loop
      vertex -27.5 -6 0.5
      vertex -21.60748038493699 -2.532983776506045 0.5
      vertex -21.91227196924607 -2.311539728327368 0.5
    endloop
  endfacet
  facet normal 0 0 1
    outer loop
      vertex -27.5 -6 0.5
      vertex -21.277337874695217 -2.7144811573980587 0.5
      vertex -21.60748038493699 -2.532983776506045 0.5
    endloop
  endfacet
  facet normal 0 0 1
    outer loop
      vertex -27.5 -6 0.5
      vertex -21.91227196924607 -2.311539728327368 0.5
      vertex -22.186905882264234 -2.0536413177860657 0.5
    endloop
  endfacet
  facet normal 0 0 1
    outer loop
      vertex -27.5 -6 0.5
      vertex -22.186905882264234 -2.0536413177860657 0.5
      vertex -22.427050983124843 -1.7633557568774194 0.5
    endloop
  endfacet
  facet normal 0 0 1
    outer loop
      vertex -27.5 -6 0.5
      vertex -22.427050983124843 -1.7633557568774194 0.5
      vertex -22.62892004013159 -1.445261022305146 0.5
    endloop
  endfacet
  facet normal 0 0 1
    outer loop
      vertex -27.5 -6 0.5
      vertex -19.437856056242826 -2.9468617521860656 0.5
      vertex -19.811628441412058 -2.9940801852848145 0.5
    endloop
  endfacet
  facet normal 0 0 1
    outer loop
      vertex -27.5 -6 0.5
      vertex -19.072949016875157 -2.8531695488854605 0.5
      vertex -19.437856056242826 -2.9468617521860656 0.5
    endloop
  endfacet
  facet normal 0 0 1
    outer loop
      vertex -27.5 -6 0.5
      vertex -22.62892004013159 -1.445261022305146 0.5
      vertex -22.789329457664756 -1.1043736580540335 0.5
    endloop
  endfacet
  facet normal 0 0 1
    outer loop
      vertex -22.905749483385893 -0.7460696614945646 0.5
      vertex -22.976344103943433 -0.3759997006929122 0.5
      vertex -27.5 6 0.5
    endloop
  endfacet
  facet normal 0 0 1
    outer loop
      vertex -22.976344103943433 -0.3759997006929122 0.5
      vertex -23 0 0.5
      vertex -27.5 6 0.5
    endloop
  endfacet
  facet normal 0 0 1
    outer loop
      vertex -23 0 0.5
      vertex -22.976344103943433 0.3759997006929122 0.5
      vertex -27.5 6 0.5
    endloop
  endfacet
  facet normal 0 0 1
    outer loop
      vertex -22.976344103943433 0.3759997006929122 0.5
      vertex -22.905749483385893 0.7460696614945646 0.5
      vertex -27.5 6 0.5
    endloop
  endfacet
  facet normal 0 0 1
    outer loop
      vertex -22.905749483385893 0.7460696614945646 0.5
      vertex -22.789329457664756 1.1043736580540335 0.5
      vertex -27.5 6 0.5
    endloop
  endfacet
  facet normal 0 0 1
    outer loop
      vertex -22.789329457664756 1.1043736580540335 0.5
      vertex -22.62892004013159 1.445261022305146 0.5
      vertex -27.5 6 0.5
    endloop
  endfacet
  facet normal 0 0 1
    outer loop
      vertex -22.62892004013159 1.445261022305146 0.5
      vertex -22.427050983124843 1.7633557568774194 0.5
      vertex -27.5 6 0.5
    endloop
  endfacet
  facet normal 0 0 1
    outer loop
      vertex -22.427050983124843 1.7633557568774194 0.5
      vertex -22.186905882264234 2.0536413177860657 0.5
      vertex -27.5 6 0.5
    endloop
  endfacet
  facet normal 0 0 1
    outer loop
      vertex -22.186905882264234 2.0536413177860657 0.5
      vertex -21.91227196924607 2.311539728327368 0.5
      vertex -27.5 6 0.5
    endloop
  endfacet
  facet normal 0 0 1
    outer loop
      vertex -21.91227196924607 2.311539728327368 0.5
      vertex -21.60748038493699 2.532983776506045 0.5
      vertex -27.5 6 0.5
    endloop
  endfacet
  facet normal 0 0 1
    outer loop
      vertex -21.60748038493699 2.532983776506045 0.5
      vertex -21.277337874695217 2.7144811573980583 0.5
      vertex -27.5 6 0.5
    endloop
  endfacet
  facet normal 0 0 1
    outer loop
      vertex -21.277337874695217 2.7144811573980583 0.5
      vertex -20.927050983124843 2.8531695488854605 0.5
      vertex -27.5 6 0.5
    endloop
  endfacet
  facet normal 0 0 1
    outer loop
      vertex -20.927050983124843 2.8531695488854605 0.5
      vertex -20.562143943757174 2.946861752186066 0.5
      vertex -27.5 6 0.5
    endloop
  endfacet
  facet normal 0 0 1
    outer loop
      vertex -20.562143943757174 2.946861752186066 0.5
      vertex -20.18837155858794 2.9940801852848145 0.5
      vertex -27.5 6 0.5
    endloop
  endfacet
  facet normal 0 0 1
    outer loop
      vertex -20.18837155858794 2.9940801852848145 0.5
      vertex -19.81162844141206 2.9940801852848145 0.5
      vertex -27.5 6 0.5
    endloop
  endfacet
  facet normal 0 0 1
    outer loop
      vertex -19.81162844141206 2.9940801852848145 0.5
      vertex -19.437856056242826 2.946861752186066 0.5
      vertex -27.5 6 0.5
    endloop
  endfacet
  facet normal 0 0 1
    outer loop
      vertex -27.5 -6 0.5
      vertex 27.5 -6 0.5
      vertex -19.072949016875157 -2.8531695488854605 0.5
    endloop
  endfacet
  facet normal 0 0 1
    outer loop
      vertex -19.072949016875157 -2.8531695488854605 0.5
      vertex 27.5 -6 0.5
      vertex -18.722662125304783 -2.7144811573980587 0.5
    endloop
  endfacet
  facet normal 0 0 1
    outer loop
      vertex -18.722662125304783 -2.7144811573980587 0.5
      vertex 27.5 -6 0.5
      vertex -18.392519615063012 -2.532983776506046 0.5
    endloop
  endfacet
  facet normal 0 0 1
    outer loop
      vertex -18.392519615063012 -2.532983776506046 0.5
      vertex 27.5 -6 0.5
      vertex -18.08772803075393 -2.311539728327367 0.5
    endloop
  endfacet
  facet normal 0 0 1
    outer loop
      vertex -18.08772803075393 -2.311539728327367 0.5
      vertex 27.5 -6 0.5
      vertex -17.813094117735766 -2.0536413177860657 0.5
    endloop
  endfacet
  facet normal 0 0 1
    outer loop
      vertex -17.813094117735766 -2.0536413177860657 0.5
      vertex 27.5 -6 0.5
      vertex -17.572949016875157 -1.7633557568774194 0.5
    endloop
  endfacet
  facet normal 0 0 1
    outer loop
      vertex -17.572949016875157 -1.7633557568774194 0.5
      vertex 27.5 -6 0.5
      vertex -17.37107995986841 -1.445261022305146 0.5
    endloop
  endfacet
  facet normal 0 0 1
    outer loop
      vertex -17.37107995986841 -1.445261022305146 0.5
      vertex 27.5 -6 0.5
      vertex -17.210670542335247 -1.104373658054035 0.5
    endloop
  endfacet
  facet normal 0 0 1
    outer loop
      vertex -17.210670542335247 -1.104373658054035 0.5
      vertex 27.5 -6 0.5
      vertex -17.094250516614107 -0.7460696614945633 0.5
    endloop
  endfacet
  facet normal 0 0 1
    outer loop
      vertex -17.094250516614107 -0.7460696614945633 0.5
      vertex 27.5 -6 0.5
      vertex -17.023655896056567 -0.3759997006929122 0.5
    endloop
  endfacet
  facet normal 0 0 1
    outer loop
      vertex -17.023655896056567 -0.3759997006929122 0.5
      vertex 27.5 -6 0.5
      vertex -17 0 0.5
    endloop
  endfacet
  facet normal 0 0 1
    outer loop
      vertex -17 0 0.5
      vertex 27.5 -6 0.5
      vertex -17.023655896056567 0.3759997006929128 0.5
    endloop
  endfacet
  facet normal 0 0 1
    outer loop
      vertex -17.023655896056567 0.3759997006929128 0.5
      vertex 27.5 -6 0.5
      vertex -17.094250516614107 0.7460696614945643 0.5
    endloop
  endfacet
  facet normal 0 0 1
    outer loop
      vertex -17.094250516614107 0.7460696614945643 0.5
      vertex 27.5 -6 0.5
      vertex -17.210670542335247 1.104373658054034 0.5
    endloop
  endfacet
  facet normal 0 0 1
    outer loop
      vertex -17.37107995986841 1.445261022305146 0.5
      vertex -17.210670542335247 1.104373658054034 0.5
      vertex 27.5 -6 0.5
    endloop
  endfacet
  facet normal 0 0 1
    outer loop
      vertex -17.37107995986841 1.445261022305146 0.5
      vertex 27.5 -6 0.5
      vertex -17.572949016875157 1.7633557568774194 0.5
    endloop
  endfacet
  facet normal 0 0 1
    outer loop
      vertex -19.437856056242826 2.946861752186066 0.5
      vertex -19.072949016875157 2.8531695488854605 0.5
      vertex 27.5 -6 0.5
    endloop
  endfacet
  facet normal 0 0 1
    outer loop
      vertex -18.39251961506301 2.532983776506045 0.5
      vertex 27.5 -6 0.5
      vertex -18.722662125304783 2.7144811573980583 0.5
    endloop
  endfacet
  facet normal 0 0 1
    outer loop
      vertex -19.072949016875157 2.8531695488854605 0.5
      vertex -18.722662125304783 2.7144811573980583 0.5
      vertex 27.5 -6 0.5
    endloop
  endfacet
  facet normal 0 0 1
    outer loop
      vertex -17.572949016875157 1.7633557568774194 0.5
      vertex 27.5 -6 0.5
      vertex -17.813094117735766 2.053641317786066 0.5
    endloop
  endfacet
  facet normal 0 0 1
    outer loop
      vertex -17.813094117735766 2.053641317786066 0.5
      vertex 27.5 -6 0.5
      vertex -18.08772803075393 2.3115397283273675 0.5
    endloop
  endfacet
  facet normal 0 0 1
    outer loop
      vertex -18.39251961506301 2.532983776506045 0.5
      vertex -18.08772803075393 2.3115397283273675 0.5
      vertex 27.5 -6 0.5
    endloop
  endfacet
  facet normal 0 0 1
    outer loop
      vertex -19.437856056242826 2.946861752186066 0.5
      vertex 27.5 -6 0.5
      vertex -27.5 6 0.5
    endloop
  endfacet
  facet normal 0 1 0
    outer loop
      vertex -27.5 6 -0.5
      vertex -27.5 6 0.5
      vertex 27.5 6 -0.5
    endloop
  endfacet
  facet normal 0 -1 0
    outer loop
      vertex -27.5 -6 -0.5
      vertex 27.5 -6 -0.5
      vertex 27.5 -6 0.5
    endloop
  endfacet
  facet normal 0 0 -1
    outer loop
      vertex -27.5 -6 -0.5
      vertex 27.5 6 -0.5
      vertex 27.5 -6 -0.5
    endloop
  endfacet
  facet normal 0 0 1
    outer loop
      vertex -27.5 6 0.5
      vertex 27.5 -6 0.5
      vertex 19.437856056242826 -2.9468617521860656 0.5
    endloop
  endfacet
  facet normal 0 0 1
    outer loop
      vertex -27.5 6 0.5
      vertex 18.39251961506301 -2.532983776506045 0.5
      vertex 18.08772803075393 -2.311539728327368 0.5
    endloop
  endfacet
  facet normal 0 0 1
    outer loop
      vertex -27.5 6 0.5
      vertex 18.08772803075393 -2.311539728327368 0.5
      vertex 17.813094117735766 -2.0536413177860657 0.5
    endloop
  endfacet
  facet normal 0 0 1
    outer loop
      vertex -27.5 6 0.5
      vertex 17.813094117735766 -2.0536413177860657 0.5
      vertex 17.572949016875157 -1.7633557568774194 0.5
    endloop
  endfacet
  facet normal 0 0 1
    outer loop
      vertex -27.5 6 0.5
      vertex 19.072949016875157 -2.8531695488854605 0.5
      vertex 18.722662125304783 -2.7144811573980587 0.5
    endloop
  endfacet
  facet normal 0 0 1
    outer loop
      vertex -27.5 6 0.5
      vertex 18.722662125304783 -2.7144811573980587 0.5
      vertex 18.39251961506301 -2.532983776506045 0.5
    endloop
  endfacet
  facet normal 0 0 1
    outer loop
      vertex -27.5 6 0.5
      vertex 19.437856056242826 -2.9468617521860656 0.5
      vertex 19.072949016875157 -2.8531695488854605 0.5
    endloop
  endfacet
  facet normal 0 0 1
    outer loop
      vertex -27.5 6 0.5
      vertex 17.572949016875157 -1.7633557568774194 0.5
      vertex 17.37107995986841 -1.445261022305146 0.5
    endloop
  endfacet
  facet normal 0 0 1
    outer loop
      vertex -27.5 6 0.5
      vertex 17.37107995986841 -1.445261022305146 0.5
      vertex 17.210670542335244 -1.1043736580540335 0.5
    endloop
  endfacet
  facet normal 0 0 1
    outer loop
      vertex -27.5 6 0.5
      vertex 17.210670542335244 -1.1043736580540335 0.5
      vertex 17.094250516614107 -0.7460696614945646 0.5
    endloop
  endfacet
  facet normal 0 0 1
    outer loop
      vertex -27.5 6 0.5
      vertex 17.094250516614107 -0.7460696614945646 0.5
      vertex 17.023655896056567 -0.3759997006929122 0.5
    endloop
  endfacet
  facet normal 0 0 1
    outer loop
      vertex -27.5 6 0.5
      vertex 17.023655896056567 -0.3759997006929122 0.5
      vertex 17 0 0.5
    endloop
  endfacet
  facet normal 0 0 1
    outer loop
      vertex -27.5 6 0.5
      vertex 17 0 0.5
      vertex 17.023655896056567 0.3759997006929122 0.5
    endloop
  endfacet
  facet normal 0 0 1
    outer loop
      vertex -27.5 6 0.5
      vertex 17.023655896056567 0.3759997006929122 0.5
      vertex 17.094250516614107 0.7460696614945646 0.5
    endloop
  endfacet
  facet normal 0 0 1
    outer loop
      vertex -27.5 6 0.5
      vertex 17.094250516614107 0.7460696614945646 0.5
      vertex 17.210670542335244 1.1043736580540335 0.5
    endloop
  endfacet
  facet normal 0 0 1
    outer loop
      vertex -27.5 6 0.5
      vertex 17.210670542335244 1.1043736580540335 0.5
      vertex 17.37107995986841 1.445261022305146 0.5
    endloop
  endfacet
  facet normal 0 0 1
    outer loop
      vertex -27.5 6 0.5
      vertex 17.37107995986841 1.445261022305146 0.5
      vertex 17.572949016875157 1.7633557568774194 0.5
    endloop
  endfacet
  facet normal 0 0 1
    outer loop
      vertex -27.5 6 0.5
      vertex 17.572949016875157 1.7633557568774194 0.5
      vertex 17.813094117735766 2.0536413177860657 0.5
    endloop
  endfacet
  facet normal 0 0 1
    outer loop
      vertex -27.5 6 0.5
      vertex 17.813094117735766 2.0536413177860657 0.5
      vertex 18.08772803075393 2.311539728327368 0.5
    endloop
  endfacet
  facet normal 0 0 1
    outer loop
      vertex -27.5 6 0.5
      vertex 18.08772803075393 2.311539728327368 0.5
      vertex 18.39251961506301 2.532983776506045 0.5
    endloop
  endfacet
  facet normal 0 0 1
    outer loop
      vertex -27.5 6 0.5
      vertex 18.39251961506301 2.532983776506045 0.5
      vertex 18.722662125304783 2.7144811573980583 0.5
    endloop
  endfacet
  facet normal 0 0 1
    outer loop
      vertex -27.5 6 0.5
      vertex 18.722662125304783 2.7144811573980583 0.5
      vertex 19.072949016875157 2.8531695488854605 0.5
    endloop
  endfacet
  facet normal 0 0 1
    outer loop
      vertex -27.5 6 0.5
      vertex 19.072949016875157 2.8531695488854605 0.5
      vertex 19.437856056242826 2.946861752186066 0.5
    endloop
  endfacet
  facet normal 0 0 1
    outer loop
      vertex -27.5 6 0.5
      vertex 19.437856056242826 2.946861752186066 0.5
      vertex 19.81162844141206 2.9940801852848145 0.5
    endloop
  endfacet
  facet normal 0 0 1
    outer loop
      vertex -27.5 6 0.5
      vertex 19.81162844141206 2.9940801852848145 0.5
      vertex 20.18837155858794 2.9940801852848145 0.5
    endloop
  endfacet
  facet normal 0 0 1
    outer loop
      vertex -27.5 6 0.5
      vertex 20.18837155858794 2.9940801852848145 0.5
      vertex 27.5 6 0.5
    endloop
  endfacet
  facet normal 0 0 1
    outer loop
      vertex 19.437856056242826 -2.9468617521860656 0.5
      vertex 27.5 -6 0.5
      vertex 19.811628441412058 -2.9940801852848145 0.5
    endloop
  endfacet
  facet normal 0 0 1
    outer loop
      vertex 19.811628441412058 -2.9940801852848145 0.5
      vertex 27.5 -6 0.5
      vertex 20.188371558587942 -2.9940801852848145 0.5
    endloop
  endfacet
  facet normal 0 0 1
    outer loop
      vertex 20.188371558587942 -2.9940801852848145 0.5
      vertex 27.5 -6 0.5
      vertex 20.562143943757174 -2.9468617521860656 0.5
    endloop
  endfacet
  facet normal 0 0 1
    outer loop
      vertex 20.562143943757174 -2.9468617521860656 0.5
      vertex 27.5 -6 0.5
      vertex 20.927050983124843 -2.8531695488854605 0.5
    endloop
  endfacet
  facet normal 0 0 1
    outer loop
      vertex 20.927050983124843 -2.8531695488854605 0.5
      vertex 27.5 -6 0.5
      vertex 21.277337874695217 -2.7144811573980587 0.5
    endloop
  endfacet
  facet normal 0 0 1
    outer loop
      vertex 21.277337874695217 -2.7144811573980587 0.5
      vertex 27.5 -6 0.5
      vertex 21.607480384936988 -2.532983776506046 0.5
    endloop
  endfacet
  facet normal 0 0 1
    outer loop
      vertex 21.607480384936988 -2.532983776506046 0.5
      vertex 27.5 -6 0.5
      vertex 21.91227196924607 -2.311539728327367 0.5
    endloop
  endfacet
  facet normal 0 0 1
    outer loop
      vertex 21.91227196924607 -2.311539728327367 0.5
      vertex 27.5 -6 0.5
      vertex 22.186905882264234 -2.0536413177860657 0.5
    endloop
  endfacet
  facet normal 0 0 1
    outer loop
      vertex 22.186905882264234 -2.0536413177860657 0.5
      vertex 27.5 -6 0.5
      vertex 22.427050983124843 -1.7633557568774194 0.5
    endloop
  endfacet
  facet normal 0 0 1
    outer loop
      vertex 22.427050983124843 -1.7633557568774194 0.5
      vertex 27.5 -6 0.5
      vertex 22.62892004013159 -1.445261022305146 0.5
    endloop
  endfacet
  facet normal 0 0 1
    outer loop
      vertex 22.62892004013159 -1.445261022305146 0.5
      vertex 27.5 -6 0.5
      vertex 22.789329457664753 -1.104373658054035 0.5
    endloop
  endfacet
  facet normal 0 0 1
    outer loop
      vertex 22.789329457664753 -1.104373658054035 0.5
      vertex 27.5 -6 0.5
      vertex 22.905749483385893 -0.7460696614945633 0.5
    endloop
  endfacet
  facet normal 0 0 1
    outer loop
      vertex 22.905749483385893 -0.7460696614945633 0.5
      vertex 27.5 -6 0.5
      vertex 22.976344103943433 -0.3759997006929122 0.5
    endloop
  endfacet
  facet normal 0 0 1
    outer loop
      vertex 22.976344103943433 -0.3759997006929122 0.5
      vertex 27.5 -6 0.5
      vertex 23 0 0.5
    endloop
  endfacet
  facet normal 0 0 1
    outer loop
      vertex 22.789329457664753 1.104373658054034 0.5
      vertex 27.5 6 0.5
      vertex 22.62892004013159 1.445261022305146 0.5
    endloop
  endfacet
  facet normal 0 0 1
    outer loop
      vertex 22.62892004013159 1.445261022305146 0.5
      vertex 27.5 6 0.5
      vertex 22.427050983124843 1.7633557568774194 0.5
    endloop
  endfacet
  facet normal 0 0 1
    outer loop
      vertex 22.186905882264234 2.053641317786066 0.5
      vertex 22.427050983124843 1.7633557568774194 0.5
      vertex 27.5 6 0.5
    endloop
  endfacet
  facet normal 0 0 1
    outer loop
      vertex 22.186905882264234 2.053641317786066 0.5
      vertex 27.5 6 0.5
      vertex 21.91227196924607 2.3115397283273675 0.5
    endloop
  endfacet
  facet normal 0 0 1
    outer loop
      vertex 21.277337874695217 2.7144811573980583 0.5
      vertex 21.60748038493699 2.532983776506045 0.5
      vertex 27.5 6 0.5
    endloop
  endfacet
  facet normal 0 0 1
    outer loop
      vertex 21.60748038493699 2.532983776506045 0.5
      vertex 21.91227196924607 2.3115397283273675 0.5
      vertex 27.5 6 0.5
    endloop
  endfacet
  facet normal 0 0 1
    outer loop
      vertex 20.18837155858794 2.9940801852848145 0.5
      vertex 20.562143943757174 2.946861752186066 0.5
      vertex 27.5 6 0.5
    endloop
  endfacet
  facet normal 0 0 1
    outer loop
      vertex 20.562143943757174 2.946861752186066 0.5
      vertex 20.927050983124843 2.8531695488854605 0.5
      vertex 27.5 6 0.5
    endloop
  endfacet
  facet normal 0 0 1
    outer loop
      vertex 21.277337874695217 2.7144811573980583 0.5
      vertex 27.5 6 0.5
      vertex 20.927050983124843 2.8531695488854605 0.5
    endloop
  endfacet
  facet normal 0 0 1
    outer loop
      vertex 27.5 -6 0.5
      vertex 27.5 6 0.5
      vertex 23 0 0.5
    endloop
  endfacet
  facet normal 0 0 1
    outer loop
      vertex 23 0 0.5
      vertex 27.5 6 0.5
      vertex 22.976344103943433 0.3759997006929128 0.5
    endloop
  endfacet
  facet normal 0 0 1
    outer loop
      vertex 22.976344103943433 0.3759997006929128 0.5
      vertex 27.5 6 0.5
      vertex 22.905749483385893 0.7460696614945643 0.5
    endloop
  endfacet
  facet normal 0 0 1
    outer loop
      vertex 22.905749483385893 0.7460696614945643 0.5
      vertex 27.5 6 0.5
      vertex 22.789329457664753 1.104373658054034 0.5
    endloop
  endfacet
  facet normal 0 1 0
    outer loop
      vertex -27.5 6 0.5
      vertex 27.5 6 0.5
      vertex 27.5 6 -0.5
    endloop
  endfacet
  facet normal 0 -1 0
    outer loop
      vertex -32.5 -6 -4.5
      vertex -27.5 -6 -4.5
      vertex -27.5 -6 -0.5
    endloop
  endfacet
  facet normal 0 -1 0
    outer loop
      vertex -32.5 -6 -4.5
      vertex -27.5 -6 -0.5
      vertex -27.5 -6 0.5
    endloop
  endfacet
  facet normal 0 -1 0
    outer loop
      vertex -32.5 -6 -4.5
      vertex -27.5 -6 0.5
      vertex -32.5 -6 0.5
    endloop
  endfacet
  facet normal 0 0 -1
    outer loop
      vertex -32.5 -6 -4.5
      vertex -27.5 18 -4.5
      vertex -27.5 -6 -4.5
    endloop
  endfacet
  facet normal 1 0 0
    outer loop
      vertex -27.5 -6 -4.5
      vertex -27.5 18 -4.5
      vertex -27.5 -6 -0.5
    endloop
  endfacet
  facet normal -1 0 0
    outer loop
      vertex -32.5 -6 -4.5
      vertex -32.5 -6 0.5
      vertex -32.5 18 0.5
    endloop
  endfacet
  facet normal 0 0 1
    outer loop
      vertex -32.5 -6 0.5
      vertex -27.5 -6 0.5
      vertex -32.5 18 0.5
    endloop
  endfacet
  facet normal 0 0 -1
    outer loop
      vertex -32.5 -6 -4.5
      vertex -32.5 18 -4.5
      vertex -27.5 18 -4.5
    endloop
  endfacet
  facet normal -1 0 0
    outer loop
      vertex -32.5 -6 -4.5
      vertex -32.5 18 0.5
      vertex -32.5 18 -4.5
    endloop
  endfacet
  facet normal 1 0 0
    outer loop
      vertex -27.5 -6 -0.5
      vertex -27.5 18 -4.5
      vertex -27.5 6 -0.5
    endloop
  endfacet
  facet normal 1 0 0
    outer loop
      vertex -27.5 6 -0.5
      vertex -27.5 18 0.5
      vertex -27.5 6 0.5
    endloop
  endfacet
  facet normal 0 1 0
    outer loop
      vertex -32.5 18 -4.5
      vertex -32.5 18 0.5
      vertex -27.5 18 -4.5
    endloop
  endfacet
  facet normal 1 0 0
    outer loop
      vertex -27.5 6 -0.5
      vertex -27.5 18 -4.5
      vertex -27.5 18 0.5
    endloop
  endfacet
  facet normal 0 1 0
    outer loop
      vertex -27.5 18 -4.5
      vertex -32.5 18 0.5
      vertex -27.5 18 0.5
    endloop
  endfacet
  facet normal 0 0 1
    outer loop
      vertex -27.5 -6 0.5
      vertex -27.5 6 0.5
      vertex -32.5 18 0.5
    endloop
  endfacet
  facet normal 0 0 1
    outer loop
      vertex -27.5 6 0.5
      vertex -27.5 18 0.5
      vertex -32.5 18 0.5
    endloop
  endfacet
  facet normal 0 -1 0
    outer loop
      vertex 27.5 -6 -4.5
      vertex 32.5 -6 -4.5
      vertex 32.5 -6 0.5
    endloop
  endfacet
  facet normal 0 -1 0
    outer loop
      vertex 27.5 -6 -4.5
      vertex 32.5 -6 0.5
      vertex 27.5 -6 -0.5
    endloop
  endfacet
  facet normal 0 -1 0
    outer loop
      vertex 27.5 -6 -0.5
      vertex 32.5 -6 0.5
      vertex 27.5 -6 0.5
    endloop
  endfacet
  facet normal -1 0 0
    outer loop
      vertex 27.5 -6 -4.5
      vertex 27.5 -6 -0.5
      vertex 27.5 6 -0.5
    endloop
  endfacet
  facet normal 0 0 -1
    outer loop
      vertex 27.5 -6 -4.5
      vertex 32.5 18 -4.5
      vertex 32.5 -6 -4.5
    endloop
  endfacet
  facet normal 1 0 0
    outer loop
      vertex 32.5 -6 -4.5
      vertex 32.5 18 -4.5
      vertex 32.5 -6 0.5
    endloop
  endfacet
  facet normal 0 0 1
    outer loop
      vertex 27.5 -6 0.5
      vertex 32.5 -6 0.5
      vertex 27.5 6 0.5
    endloop
  endfacet
  facet normal 0 0 -1
    outer loop
      vertex 27.5 -6 -4.5
      vertex 27.5 18 -4.5
      vertex 32.5 18 -4.5
    endloop
  endfacet
  facet normal -1 0 0
    outer loop
      vertex 27.5 -6 -4.5
      vertex 27.5 18 0.5
      vertex 27.5 18 -4.5
    endloop
  endfacet
  facet normal -1 0 0
    outer loop
      vertex 27.5 -6 -4.5
      vertex 27.5 6 -0.5
      vertex 27.5 18 0.5
    endloop
  endfacet
  facet normal 1 0 0
    outer loop
      vertex 32.5 -6 0.5
      vertex 32.5 18 -4.5
      vertex 32.5 18 0.5
    endloop
  endfacet
  facet normal -1 0 0
    outer loop
      vertex 27.5 6 -0.5
      vertex 27.5 6 0.5
      vertex 27.5 18 0.5
    endloop
  endfacet
  facet normal 0 1 0
    outer loop
      vertex 27.5 18 -4.5
      vertex 27.5 18 0.5
      vertex 32.5 18 -4.5
    endloop
  endfacet
  facet normal 0 1 0
    outer loop
      vertex 32.5 18 -4.5
      vertex 27.5 18 0.5
      vertex 32.5 18 0.5
    endloop
  endfacet
  facet normal 0 0 1
    outer loop
      vertex 32.5 -6 0.5
      vertex 27.5 18 0.5
      vertex 27.5 6 0.5
    endloop
  endfacet
  facet normal 0 0 1
    outer loop
      vertex 32.5 -6 0.5
      vertex 32.5 18 0.5
      vertex 27.5 18 0.5
    endloop
  endfacet
endsolid OpenSCAD_Model
