solid OpenSCAD_Model
  facet normal 0 0 -1
    outer loop
      vertex -70.5 -12 -9
      vertex -70.5 12 -9
      vertex -67.5 -9 -9
    endloop
  endfacet
  facet normal 0 0 -1
    outer loop
      vertex -67.5 -9 -9
      vertex -70.5 12 -9
      vertex -67.5 9 -9
    endloop
  endfacet
  facet normal -1 0 0
    outer loop
      vertex -70.5 -12 -9
      vertex -70.5 12 9
      vertex -70.5 12 -9
    endloop
  endfacet
  facet normal 0 0 -1
    outer loop
      vertex -67.5 9 -9
      vertex -70.5 12 -9
      vertex -61.5 12 -9
    endloop
  endfacet
  facet normal 0 0 -1
    outer loop
      vertex -67.5 9 -9
      vertex -61.5 12 -9
      vertex -61.5 9 -9
    endloop
  endfacet
  facet normal 0 1 0
    outer loop
      vertex -70.5 12 -9
      vertex -70.5 12 9
      vertex -61.5 12 -9
    endloop
  endfacet
  facet normal 0 0 -1
    outer loop
      vertex -70.5 -12 -9
      vertex -67.5 -9 -9
      vertex 67.5 -9 -9
    endloop
  endfacet
  facet normal -1 0 0
    outer loop
      vertex -70.5 -12 -9
      vertex -70.5 -12 9
      vertex -70.5 12 9
    endloop
  endfacet
  facet normal 0 0 1
    outer loop
      vertex -70.5 -12 9
      vertex -67.5 -9 9
      vertex -67.5 9 9
    endloop
  endfacet
  facet normal 0 0 1
    outer loop
      vertex -70.5 -12 9
      vertex -67.5 9 9
      vertex -70.5 12 9
    endloop
  endfacet
  facet normal 0 1 0
    outer loop
      vertex -61.5 12 -9
      vertex -70.5 12 9
      vertex -61.5 12 9
    endloop
  endfacet
  facet normal 0 0 1
    outer loop
      vertex -67.5 9 9
      vertex -61.5 9 9
      vertex -70.5 12 9
    endloop
  endfacet
  facet normal 0 0 1
    outer loop
      vertex -70.5 12 9
      vertex -61.5 9 9
      vertex -61.5 12 9
    endloop
  endfacet
  facet normal 0 -1 0
    outer loop
      vertex -70.5 -12 -9
      vertex 70.5 -12 9
      vertex -70.5 -12 9
    endloop
  endfacet
  facet normal 0 0 1
    outer loop
      vertex -70.5 -12 9
      vertex 70.5 -12 9
      vertex -67.5 -9 9
    endloop
  endfacet
  facet normal 0 0 -1
    outer loop
      vertex -70.5 -12 -9
      vertex 67.5 -9 -9
      vertex 70.5 -12 -9
    endloop
  endfacet
  facet normal 0 -1 0
    outer loop
      vertex -70.5 -12 -9
      vertex 70.5 -12 -9
      vertex 70.5 -12 9
    endloop
  endfacet
  facet normal 0 0 -1
    outer loop
      vertex 70.5 -12 -9
      vertex 67.5 -9 -9
      vertex 67.5 -3 -9
    endloop
  endfacet
  facet normal 0 0 -1
    outer loop
      vertex 70.5 -12 -9
      vertex 67.5 -3 -9
      vertex 70.5 12 -9
    endloop
  endfacet
  facet normal 1 0 0
    outer loop
      vertex 70.5 -12 -9
      vertex 70.5 12 -9
      vertex 70.5 -12 9
    endloop
  endfacet
  facet normal 0 0 -1
    outer loop
      vertex 67.5 -3 -9
      vertex 67.5 12 -9
      vertex 70.5 12 -9
    endloop
  endfacet
  facet normal 0 0 1
    outer loop
      vertex -67.5 -9 9
      vertex 70.5 -12 9
      vertex 67.5 -9 9
    endloop
  endfacet
  facet normal 1 0 0
    outer loop
      vertex 70.5 -12 9
      vertex 70.5 12 -9
      vertex 70.5 12 9
    endloop
  endfacet
  facet normal 0 0 1
    outer loop
      vertex 70.5 -12 9
      vertex 67.5 -3 9
      vertex 67.5 -9 9
    endloop
  endfacet
  facet normal 0 0 1
    outer loop
      vertex 70.5 -12 9
      vertex 70.5 12 9
      vertex 67.5 -3 9
    endloop
  endfacet
  facet normal 0 0 1
    outer loop
      vertex 67.5 -3 9
      vertex 70.5 12 9
      vertex 67.5 12 9
    endloop
  endfacet
  facet normal 1 0 0
    outer loop
      vertex -67.5 -9 -9
      vertex -67.5 9 -9
      vertex -67.5 9 9
    endloop
  endfacet
  facet normal 0 -1 0
    outer loop
      vertex -67.5 9 -9
      vertex -61.5 9 -9
      vertex -61.5 9 9
    endloop
  endfacet
  facet normal 0 1 0
    outer loop
      vertex -67.5 -9 -9
      vertex -67.5 -9 9
      vertex 67.5 -9 -9
    endloop
  endfacet
  facet normal 1 0 0
    outer loop
      vertex -67.5 -9 -9
      vertex -67.5 9 9
      vertex -67.5 -9 9
    endloop
  endfacet
  facet normal 0 -1 0
    outer loop
      vertex -67.5 9 -9
      vertex -61.5 9 9
      vertex -67.5 9 9
    endloop
  endfacet
  facet normal -1 0 0
    outer loop
      vertex 67.5 -9 -9
      vertex 67.5 -9 9
      vertex 67.5 -3 -9
    endloop
  endfacet
  facet normal 0 1 0
    outer loop
      vertex -67.5 -9 9
      vertex 67.5 -9 9
      vertex 67.5 -9 -9
    endloop
  endfacet
  facet normal -1 0 0
    outer loop
      vertex 67.5 -3 -9
      vertex 67.5 -9 9
      vertex 67.5 -3 9
    endloop
  endfacet
  facet normal 1 0 0
    outer loop
      vertex -61.5 9 -9
      vertex -61.5 12 -9
      vertex -61.5 9 9
    endloop
  endfacet
  facet normal 1 0 0
    outer loop
      vertex -61.5 12 -9
      vertex -61.5 12 9
      vertex -61.5 9 9
    endloop
  endfacet
  facet normal -1 0 0
    outer loop
      vertex 67.5 -3 -9
      vertex 67.5 -3 9
      vertex 67.5 12 -9
    endloop
  endfacet
  facet normal -1 0 0
    outer loop
      vertex 67.5 -3 9
      vertex 67.5 12 9
      vertex 67.5 12 -9
    endloop
  endfacet
  facet normal 0 0 -1
    outer loop
      vertex 67.5 54 -9
      vertex 70.5 12 -9
      vertex 67.5 12 -9
    endloop
  endfacet
  facet normal 1 0 0
    outer loop
      vertex 70.5 54 -9
      vertex 70.5 12 9
      vertex 70.5 12 -9
    endloop
  endfacet
  facet normal 0 0 -1
    outer loop
      vertex 67.5 54 -9
      vertex 70.5 54 -9
      vertex 70.5 12 -9
    endloop
  endfacet
  facet normal -1 0 0
    outer loop
      vertex 67.5 54 -9
      vertex 67.5 12 -9
      vertex 67.5 54 9
    endloop
  endfacet
  facet normal 0 1 0
    outer loop
      vertex 67.5 54 -9
      vertex 67.5 54 9
      vertex 70.5 54 -9
    endloop
  endfacet
  facet normal -1 0 0
    outer loop
      vertex 67.5 54 9
      vertex 67.5 12 -9
      vertex 67.5 12 9
    endloop
  endfacet
  facet normal 0 0 1
    outer loop
      vertex 70.5 54 9
      vertex 67.5 12 9
      vertex 70.5 12 9
    endloop
  endfacet
  facet normal 1 0 0
    outer loop
      vertex 70.5 54 -9
      vertex 70.5 54 9
      vertex 70.5 12 9
    endloop
  endfacet
  facet normal 0 1 0
    outer loop
      vertex 67.5 54 9
      vertex 70.5 54 9
      vertex 70.5 54 -9
    endloop
  endfacet
  facet normal 0 0 1
    outer loop
      vertex 67.5 54 9
      vertex 67.5 12 9
      vertex 70.5 54 9
    endloop
  endfacet
endsolid OpenSCAD_Model
