solid OpenSCAD_Model
  facet normal 0 0 -1
    outer loop
      vertex -69 -11.5 -9
      vertex -69 11.5 -9
      vertex -66 -8.5 -9
    endloop
  endfacet
  facet normal 0 0 -1
    outer loop
      vertex -69 -11.5 -9
      vertex -66 -8.5 -9
      vertex 66 -8.5 -9
    endloop
  endfacet
  facet normal -1 0 0
    outer loop
      vertex -69 -11.5 -9
      vertex -69 -11.5 9
      vertex -69 11.5 9
    endloop
  endfacet
  facet normal 0 0 1
    outer loop
      vertex -69 -11.5 9
      vertex -66 -8.5 9
      vertex -66 8.5 9
    endloop
  endfacet
  facet normal 0 -1 0
    outer loop
      vertex -69 -11.5 -9
      vertex 69 -11.5 9
      vertex -69 -11.5 9
    endloop
  endfacet
  facet normal 0 0 1
    outer loop
      vertex -69 -11.5 9
      vertex 69 -11.5 9
      vertex -66 -8.5 9
    endloop
  endfacet
  facet normal 0 0 -1
    outer loop
      vertex -69 11.5 -9
      vertex -66 8.5 -9
      vertex -66 -8.5 -9
    endloop
  endfacet
  facet normal -1 0 0
    outer loop
      vertex -69 -11.5 -9
      vertex -69 11.5 9
      vertex -69 11.5 -9
    endloop
  endfacet
  facet normal 0 0 -1
    outer loop
      vertex -69 11.5 -9
      vertex -48 11.5 -9
      vertex -66 8.5 -9
    endloop
  endfacet
  facet normal 0 0 -1
    outer loop
      vertex -48 11.5 -9
      vertex -48 8.5 -9
      vertex -66 8.5 -9
    endloop
  endfacet
  facet normal 0 1 0
    outer loop
      vertex -69 11.5 -9
      vertex -69 11.5 9
      vertex -48 11.5 -9
    endloop
  endfacet
  facet normal 0 0 1
    outer loop
      vertex -69 -11.5 9
      vertex -66 8.5 9
      vertex -69 11.5 9
    endloop
  endfacet
  facet normal 0 1 0
    outer loop
      vertex -69 11.5 9
      vertex -48 11.5 9
      vertex -48 11.5 -9
    endloop
  endfacet
  facet normal 0 0 1
    outer loop
      vertex -69 11.5 9
      vertex -66 8.5 9
      vertex -48 8.5 9
    endloop
  endfacet
  facet normal 0 0 1
    outer loop
      vertex -69 11.5 9
      vertex -48 8.5 9
      vertex -48 11.5 9
    endloop
  endfacet
  facet normal 0 0 -1
    outer loop
      vertex -69 -11.5 -9
      vertex 66 -8.5 -9
      vertex 69 -11.5 -9
    endloop
  endfacet
  facet normal 0 -1 0
    outer loop
      vertex -69 -11.5 -9
      vertex 69 -11.5 -9
      vertex 69 -11.5 9
    endloop
  endfacet
  facet normal 0 0 -1
    outer loop
      vertex 69 -11.5 -9
      vertex 66 -8.5 -9
      vertex 66 -2.5 -9
    endloop
  endfacet
  facet normal 0 0 -1
    outer loop
      vertex 69 -11.5 -9
      vertex 66 -2.5 -9
      vertex 69 11.5 -9
    endloop
  endfacet
  facet normal 1 0 0
    outer loop
      vertex 69 -11.5 -9
      vertex 69 11.5 -9
      vertex 69 -11.5 9
    endloop
  endfacet
  facet normal 0 0 1
    outer loop
      vertex 69 -11.5 9
      vertex 66 -8.5 9
      vertex -66 -8.5 9
    endloop
  endfacet
  facet normal 0 0 1
    outer loop
      vertex 69 -11.5 9
      vertex 66 -2.5 9
      vertex 66 -8.5 9
    endloop
  endfacet
  facet normal 0 0 1
    outer loop
      vertex 69 -11.5 9
      vertex 69 11.5 9
      vertex 66 -2.5 9
    endloop
  endfacet
  facet normal 0 0 -1
    outer loop
      vertex 69 11.5 -9
      vertex 66 -2.5 -9
      vertex 66 11.5 -9
    endloop
  endfacet
  facet normal 0 1 0
    outer loop
      vertex 69 11.5 -9
      vertex 66 11.5 -9
      vertex 66 11.5 9
    endloop
  endfacet
  facet normal 1 0 0
    outer loop
      vertex 69 -11.5 9
      vertex 69 11.5 -9
      vertex 69 11.5 9
    endloop
  endfacet
  facet normal 0 1 0
    outer loop
      vertex 69 11.5 -9
      vertex 66 11.5 9
      vertex 69 11.5 9
    endloop
  endfacet
  facet normal 0 0 1
    outer loop
      vertex 69 11.5 9
      vertex 66 11.5 9
      vertex 66 -2.5 9
    endloop
  endfacet
  facet normal 0 1 0
    outer loop
      vertex 66 -8.5 -9
      vertex -66 -8.5 -9
      vertex -66 -8.5 9
    endloop
  endfacet
  facet normal 1 0 0
    outer loop
      vertex -66 8.5 9
      vertex -66 -8.5 9
      vertex -66 -8.5 -9
    endloop
  endfacet
  facet normal 1 0 0
    outer loop
      vertex -66 8.5 9
      vertex -66 -8.5 -9
      vertex -66 8.5 -9
    endloop
  endfacet
  facet normal 0 -1 0
    outer loop
      vertex -48 8.5 9
      vertex -66 8.5 -9
      vertex -48 8.5 -9
    endloop
  endfacet
  facet normal 0 -1 0
    outer loop
      vertex -48 8.5 9
      vertex -66 8.5 9
      vertex -66 8.5 -9
    endloop
  endfacet
  facet normal -1 0 0
    outer loop
      vertex 66 -8.5 -9
      vertex 66 -8.5 9
      vertex 66 -2.5 -9
    endloop
  endfacet
  facet normal 0 1 0
    outer loop
      vertex -66 -8.5 9
      vertex 66 -8.5 9
      vertex 66 -8.5 -9
    endloop
  endfacet
  facet normal -1 0 0
    outer loop
      vertex 66 -2.5 -9
      vertex 66 -8.5 9
      vertex 66 -2.5 9
    endloop
  endfacet
  facet normal 1 0 0
    outer loop
      vertex -48 8.5 -9
      vertex -48 11.5 -9
      vertex -48 8.5 9
    endloop
  endfacet
  facet normal 1 0 0
    outer loop
      vertex -48 8.5 9
      vertex -48 11.5 -9
      vertex -48 11.5 9
    endloop
  endfacet
  facet normal -1 0 0
    outer loop
      vertex 66 -2.5 -9
      vertex 66 -2.5 9
      vertex 66 11.5 -9
    endloop
  endfacet
  facet normal -1 0 0
    outer loop
      vertex 66 11.5 9
      vertex 66 11.5 -9
      vertex 66 -2.5 9
    endloop
  endfacet
endsolid OpenSCAD_Model
