solid OpenSCAD_Model
  facet normal 0 0 -1
    outer loop
      vertex -69.5 -12 -9
      vertex -69.5 12 -9
      vertex -66.5 -9 -9
    endloop
  endfacet
  facet normal 0 0 -1
    outer loop
      vertex -66.5 -9 -9
      vertex -69.5 12 -9
      vertex -66.5 9 -9
    endloop
  endfacet
  facet normal -1 0 0
    outer loop
      vertex -69.5 -12 -9
      vertex -69.5 12 9
      vertex -69.5 12 -9
    endloop
  endfacet
  facet normal 0 0 -1
    outer loop
      vertex -66.5 9 -9
      vertex -64.69999999999999 12 -9
      vertex -64.69999999999999 9 -9
    endloop
  endfacet
  facet normal 0 0 -1
    outer loop
      vertex -66.5 9 -9
      vertex -69.5 12 -9
      vertex -64.69999999999999 12 -9
    endloop
  endfacet
  facet normal 0 1 0
    outer loop
      vertex -69.5 12 -9
      vertex -69.5 12 9
      vertex -64.69999999999999 12 -9
    endloop
  endfacet
  facet normal 0 0 -1
    outer loop
      vertex -69.5 -12 -9
      vertex -66.5 -9 -9
      vertex 66.5 -9 -9
    endloop
  endfacet
  facet normal -1 0 0
    outer loop
      vertex -69.5 -12 -9
      vertex -69.5 -12 9
      vertex -69.5 12 9
    endloop
  endfacet
  facet normal 0 0 1
    outer loop
      vertex -69.5 -12 9
      vertex -66.5 -9 9
      vertex -66.5 9 9
    endloop
  endfacet
  facet normal 0 0 1
    outer loop
      vertex -69.5 -12 9
      vertex -66.5 9 9
      vertex -69.5 12 9
    endloop
  endfacet
  facet normal 0 1 0
    outer loop
      vertex -64.69999999999999 12 -9
      vertex -69.5 12 9
      vertex -64.69999999999999 12 9
    endloop
  endfacet
  facet normal 0 0 1
    outer loop
      vertex -66.5 9 9
      vertex -64.69999999999999 9 9
      vertex -64.69999999999999 12 9
    endloop
  endfacet
  facet normal 0 0 1
    outer loop
      vertex -66.5 9 9
      vertex -64.69999999999999 12 9
      vertex -69.5 12 9
    endloop
  endfacet
  facet normal 0 -1 0
    outer loop
      vertex -69.5 -12 -9
      vertex 69.5 -12 9
      vertex -69.5 -12 9
    endloop
  endfacet
  facet normal 0 0 1
    outer loop
      vertex -69.5 -12 9
      vertex 69.5 -12 9
      vertex -66.5 -9 9
    endloop
  endfacet
  facet normal 0 0 -1
    outer loop
      vertex -69.5 -12 -9
      vertex 66.5 -9 -9
      vertex 69.5 -12 -9
    endloop
  endfacet
  facet normal 0 -1 0
    outer loop
      vertex -69.5 -12 -9
      vertex 69.5 -12 -9
      vertex 69.5 -12 9
    endloop
  endfacet
  facet normal 0 0 -1
    outer loop
      vertex 69.5 -12 -9
      vertex 66.5 -9 -9
      vertex 66.5 -3 -9
    endloop
  endfacet
  facet normal 0 0 -1
    outer loop
      vertex 69.5 -12 -9
      vertex 66.5 -3 -9
      vertex 69.5 12 -9
    endloop
  endfacet
  facet normal 1 0 0
    outer loop
      vertex 69.5 -12 -9
      vertex 69.5 12 -9
      vertex 69.5 -12 9
    endloop
  endfacet
  facet normal 0 0 -1
    outer loop
      vertex 66.5 -3 -9
      vertex 66.5 12 -9
      vertex 69.5 12 -9
    endloop
  endfacet
  facet normal 0 0 1
    outer loop
      vertex -66.5 -9 9
      vertex 69.5 -12 9
      vertex 66.5 -9 9
    endloop
  endfacet
  facet normal 1 0 0
    outer loop
      vertex 69.5 -12 9
      vertex 69.5 12 -9
      vertex 69.5 12 9
    endloop
  endfacet
  facet normal 0 0 1
    outer loop
      vertex 69.5 -12 9
      vertex 66.5 -3 9
      vertex 66.5 -9 9
    endloop
  endfacet
  facet normal 0 0 1
    outer loop
      vertex 69.5 -12 9
      vertex 69.5 12 9
      vertex 66.5 -3 9
    endloop
  endfacet
  facet normal 0 0 1
    outer loop
      vertex 66.5 -3 9
      vertex 69.5 12 9
      vertex 66.5 12 9
    endloop
  endfacet
  facet normal 1 0 0
    outer loop
      vertex -66.5 -9 -9
      vertex -66.5 9 -9
      vertex -66.5 9 9
    endloop
  endfacet
  facet normal 0 -1 0
    outer loop
      vertex -66.5 9 -9
      vertex -64.69999999999999 9 -9
      vertex -64.69999999999999 9 9
    endloop
  endfacet
  facet normal 0 1 0
    outer loop
      vertex -66.5 -9 -9
      vertex -66.5 -9 9
      vertex 66.5 -9 -9
    endloop
  endfacet
  facet normal 1 0 0
    outer loop
      vertex -66.5 -9 -9
      vertex -66.5 9 9
      vertex -66.5 -9 9
    endloop
  endfacet
  facet normal 0 -1 0
    outer loop
      vertex -66.5 9 -9
      vertex -64.69999999999999 9 9
      vertex -66.5 9 9
    endloop
  endfacet
  facet normal -1 0 0
    outer loop
      vertex 66.5 -9 -9
      vertex 66.5 -9 9
      vertex 66.5 -3 -9
    endloop
  endfacet
  facet normal 0 1 0
    outer loop
      vertex -66.5 -9 9
      vertex 66.5 -9 9
      vertex 66.5 -9 -9
    endloop
  endfacet
  facet normal -1 0 0
    outer loop
      vertex 66.5 -3 -9
      vertex 66.5 -9 9
      vertex 66.5 -3 9
    endloop
  endfacet
  facet normal 1 0 0
    outer loop
      vertex -64.69999999999999 9 -9
      vertex -64.69999999999999 12 -9
      vertex -64.69999999999999 9 9
    endloop
  endfacet
  facet normal 1 0 0
    outer loop
      vertex -64.69999999999999 12 -9
      vertex -64.69999999999999 12 9
      vertex -64.69999999999999 9 9
    endloop
  endfacet
  facet normal -1 0 0
    outer loop
      vertex 66.5 -3 -9
      vertex 66.5 -3 9
      vertex 66.5 12 -9
    endloop
  endfacet
  facet normal -1 0 0
    outer loop
      vertex 66.5 -3 9
      vertex 66.5 12 9
      vertex 66.5 12 -9
    endloop
  endfacet
  facet normal 0 0 -1
    outer loop
      vertex 66.5 54 -9
      vertex 69.5 12 -9
      vertex 66.5 12 -9
    endloop
  endfacet
  facet normal 1 0 0
    outer loop
      vertex 69.5 54 -9
      vertex 69.5 12 9
      vertex 69.5 12 -9
    endloop
  endfacet
  facet normal 0 0 -1
    outer loop
      vertex 66.5 54 -9
      vertex 69.5 54 -9
      vertex 69.5 12 -9
    endloop
  endfacet
  facet normal -1 0 0
    outer loop
      vertex 66.5 54 -9
      vertex 66.5 12 -9
      vertex 66.5 54 9
    endloop
  endfacet
  facet normal 0 1 0
    outer loop
      vertex 66.5 54 -9
      vertex 66.5 54 9
      vertex 69.5 54 -9
    endloop
  endfacet
  facet normal -1 0 0
    outer loop
      vertex 66.5 54 9
      vertex 66.5 12 -9
      vertex 66.5 12 9
    endloop
  endfacet
  facet normal 0 0 1
    outer loop
      vertex 69.5 54 9
      vertex 66.5 12 9
      vertex 69.5 12 9
    endloop
  endfacet
  facet normal 1 0 0
    outer loop
      vertex 69.5 54 -9
      vertex 69.5 54 9
      vertex 69.5 12 9
    endloop
  endfacet
  facet normal 0 1 0
    outer loop
      vertex 66.5 54 9
      vertex 69.5 54 9
      vertex 69.5 54 -9
    endloop
  endfacet
  facet normal 0 0 1
    outer loop
      vertex 66.5 54 9
      vertex 66.5 12 9
      vertex 69.5 54 9
    endloop
  endfacet
endsolid OpenSCAD_Model
