solid OpenSCAD_Model
  facet normal 0 0 -1
    outer loop
      vertex -69.1 -11.6 -9
      vertex -69.1 11.6 -9
      vertex -66.1 -8.6 -9
    endloop
  endfacet
  facet normal 0 0 -1
    outer loop
      vertex -66.1 -8.6 -9
      vertex -69.1 11.6 -9
      vertex -66.1 8.6 -9
    endloop
  endfacet
  facet normal -1 0 0
    outer loop
      vertex -69.1 -11.6 -9
      vertex -69.1 11.6 9
      vertex -69.1 11.6 -9
    endloop
  endfacet
  facet normal 0 0 -1
    outer loop
      vertex -66.1 8.6 -9
      vertex -69.1 11.6 -9
      vertex -60.43333333333332 11.6 -9
    endloop
  endfacet
  facet normal 0 0 -1
    outer loop
      vertex -66.1 8.6 -9
      vertex -60.43333333333332 11.6 -9
      vertex -60.43333333333332 8.6 -9
    endloop
  endfacet
  facet normal 0 1 0
    outer loop
      vertex -69.1 11.6 -9
      vertex -69.1 11.6 9
      vertex -60.43333333333332 11.6 -9
    endloop
  endfacet
  facet normal 0 0 -1
    outer loop
      vertex -69.1 -11.6 -9
      vertex -66.1 -8.6 -9
      vertex 66.1 -8.6 -9
    endloop
  endfacet
  facet normal -1 0 0
    outer loop
      vertex -69.1 -11.6 -9
      vertex -69.1 -11.6 9
      vertex -69.1 11.6 9
    endloop
  endfacet
  facet normal 0 0 1
    outer loop
      vertex -69.1 -11.6 9
      vertex -66.1 -8.6 9
      vertex -66.1 8.6 9
    endloop
  endfacet
  facet normal 0 0 1
    outer loop
      vertex -69.1 -11.6 9
      vertex -66.1 8.6 9
      vertex -69.1 11.6 9
    endloop
  endfacet
  facet normal 0 1 0
    outer loop
      vertex -60.43333333333332 11.6 -9
      vertex -69.1 11.6 9
      vertex -60.43333333333332 11.6 9
    endloop
  endfacet
  facet normal 0 0 1
    outer loop
      vertex -66.1 8.6 9
      vertex -60.43333333333332 8.6 9
      vertex -69.1 11.6 9
    endloop
  endfacet
  facet normal 0 0 1
    outer loop
      vertex -60.43333333333332 8.6 9
      vertex -60.43333333333332 11.6 9
      vertex -69.1 11.6 9
    endloop
  endfacet
  facet normal 0 -1 0
    outer loop
      vertex -69.1 -11.6 -9
      vertex 69.1 -11.6 9
      vertex -69.1 -11.6 9
    endloop
  endfacet
  facet normal 0 0 1
    outer loop
      vertex -69.1 -11.6 9
      vertex 69.1 -11.6 9
      vertex -66.1 -8.6 9
    endloop
  endfacet
  facet normal 0 0 -1
    outer loop
      vertex -69.1 -11.6 -9
      vertex 66.1 -8.6 -9
      vertex 69.1 -11.6 -9
    endloop
  endfacet
  facet normal 0 -1 0
    outer loop
      vertex -69.1 -11.6 -9
      vertex 69.1 -11.6 -9
      vertex 69.1 -11.6 9
    endloop
  endfacet
  facet normal 0 0 -1
    outer loop
      vertex 69.1 -11.6 -9
      vertex 66.1 -8.6 -9
      vertex 66.1 -2.5 -9
    endloop
  endfacet
  facet normal 0 0 -1
    outer loop
      vertex 69.1 -11.6 -9
      vertex 66.1 -2.5 -9
      vertex 69.1 11.6 -9
    endloop
  endfacet
  facet normal 1 0 0
    outer loop
      vertex 69.1 -11.6 -9
      vertex 69.1 11.6 -9
      vertex 69.1 -11.6 9
    endloop
  endfacet
  facet normal 0 0 -1
    outer loop
      vertex 66.1 -2.5 -9
      vertex 66.1 11.6 -9
      vertex 69.1 11.6 -9
    endloop
  endfacet
  facet normal 0 0 1
    outer loop
      vertex -66.1 -8.6 9
      vertex 69.1 -11.6 9
      vertex 66.1 -8.6 9
    endloop
  endfacet
  facet normal 1 0 0
    outer loop
      vertex 69.1 -11.6 9
      vertex 69.1 11.6 -9
      vertex 69.1 11.6 9
    endloop
  endfacet
  facet normal 0 0 1
    outer loop
      vertex 69.1 -11.6 9
      vertex 66.1 -2.5 9
      vertex 66.1 -8.6 9
    endloop
  endfacet
  facet normal 0 0 1
    outer loop
      vertex 69.1 -11.6 9
      vertex 69.1 11.6 9
      vertex 66.1 -2.5 9
    endloop
  endfacet
  facet normal 0 0 1
    outer loop
      vertex 66.1 -2.5 9
      vertex 69.1 11.6 9
      vertex 66.1 11.6 9
    endloop
  endfacet
  facet normal 1 0 0
    outer loop
      vertex -66.1 -8.6 -9
      vertex -66.1 8.6 -9
      vertex -66.1 8.6 9
    endloop
  endfacet
  facet normal 0 -1 0
    outer loop
      vertex -66.1 8.6 -9
      vertex -60.43333333333332 8.6 -9
      vertex -60.43333333333332 8.6 9
    endloop
  endfacet
  facet normal 0 1 0
    outer loop
      vertex -66.1 -8.6 -9
      vertex -66.1 -8.6 9
      vertex 66.1 -8.6 -9
    endloop
  endfacet
  facet normal 1 0 0
    outer loop
      vertex -66.1 -8.6 -9
      vertex -66.1 8.6 9
      vertex -66.1 -8.6 9
    endloop
  endfacet
  facet normal 0 -1 0
    outer loop
      vertex -66.1 8.6 -9
      vertex -60.43333333333332 8.6 9
      vertex -66.1 8.6 9
    endloop
  endfacet
  facet normal -1 0 0
    outer loop
      vertex 66.1 -8.6 -9
      vertex 66.1 -8.6 9
      vertex 66.1 -2.5 -9
    endloop
  endfacet
  facet normal 0 1 0
    outer loop
      vertex -66.1 -8.6 9
      vertex 66.1 -8.6 9
      vertex 66.1 -8.6 -9
    endloop
  endfacet
  facet normal -1 0 0
    outer loop
      vertex 66.1 -2.5 -9
      vertex 66.1 -8.6 9
      vertex 66.1 -2.5 9
    endloop
  endfacet
  facet normal 1 0 0
    outer loop
      vertex -60.43333333333332 8.6 -9
      vertex -60.43333333333332 11.6 -9
      vertex -60.43333333333332 8.6 9
    endloop
  endfacet
  facet normal 1 0 0
    outer loop
      vertex -60.43333333333332 11.6 -9
      vertex -60.43333333333332 11.6 9
      vertex -60.43333333333332 8.6 9
    endloop
  endfacet
  facet normal -1 0 0
    outer loop
      vertex 66.1 -2.5 -9
      vertex 66.1 -2.5 9
      vertex 66.1 11.6 -9
    endloop
  endfacet
  facet normal -1 0 0
    outer loop
      vertex 66.1 -2.5 9
      vertex 66.1 11.6 9
      vertex 66.1 11.6 -9
    endloop
  endfacet
  facet normal 0 0 -1
    outer loop
      vertex 66.1 51 -9
      vertex 69.1 11.6 -9
      vertex 66.1 11.6 -9
    endloop
  endfacet
  facet normal 1 0 0
    outer loop
      vertex 69.1 51 -9
      vertex 69.1 11.6 9
      vertex 69.1 11.6 -9
    endloop
  endfacet
  facet normal 0 0 -1
    outer loop
      vertex 66.1 51 -9
      vertex 69.1 51 -9
      vertex 69.1 11.6 -9
    endloop
  endfacet
  facet normal -1 0 0
    outer loop
      vertex 66.1 51 -9
      vertex 66.1 11.6 -9
      vertex 66.1 51 9
    endloop
  endfacet
  facet normal 0 1 0
    outer loop
      vertex 66.1 51 -9
      vertex 66.1 51 9
      vertex 69.1 51 -9
    endloop
  endfacet
  facet normal -1 0 0
    outer loop
      vertex 66.1 51 9
      vertex 66.1 11.6 -9
      vertex 66.1 11.6 9
    endloop
  endfacet
  facet normal 0 0 1
    outer loop
      vertex 69.1 51 9
      vertex 66.1 11.6 9
      vertex 69.1 11.6 9
    endloop
  endfacet
  facet normal 1 0 0
    outer loop
      vertex 69.1 51 -9
      vertex 69.1 51 9
      vertex 69.1 11.6 9
    endloop
  endfacet
  facet normal 0 1 0
    outer loop
      vertex 66.1 51 9
      vertex 69.1 51 9
      vertex 69.1 51 -9
    endloop
  endfacet
  facet normal 0 0 1
    outer loop
      vertex 66.1 51 9
      vertex 66.1 11.6 9
      vertex 69.1 51 9
    endloop
  endfacet
endsolid OpenSCAD_Model
