solid OpenSCAD_Model
  facet normal 0 1 0
    outer loop
      vertex 5 25 0
      vertex 30 25 6
      vertex 30 25 0
    endloop
  endfacet
  facet normal 0 1 0
    outer loop
      vertex 5 25 0
      vertex 5 25 6
      vertex 30 25 6
    endloop
  endfacet
  facet normal -1 0 0
    outer loop
      vertex 5 15 0
      vertex 5 25 6
      vertex 5 25 0
    endloop
  endfacet
  facet normal -1 0 0
    outer loop
      vertex 5 15 0
      vertex 5 15 6
      vertex 5 25 6
    endloop
  endfacet
  facet normal 0 -1 0
    outer loop
      vertex 20 15 0
      vertex 5 15 6
      vertex 5 15 0
    endloop
  endfacet
  facet normal 0 -1 0
    outer loop
      vertex 20 15 0
      vertex 20 15 6
      vertex 5 15 6
    endloop
  endfacet
  facet normal -1 0 0
    outer loop
      vertex 20 5 0
      vertex 20 15 6
      vertex 20 15 0
    endloop
  endfacet
  facet normal -1 0 0
    outer loop
      vertex 20 5 0
      vertex 20 5 6
      vertex 20 15 6
    endloop
  endfacet
  facet normal 0 1 0
    outer loop
      vertex 0 5 0
      vertex 20 5 6
      vertex 20 5 0
    endloop
  endfacet
  facet normal 0 1 0
    outer loop
      vertex 0 5 0
      vertex 0 5 6
      vertex 20 5 6
    endloop
  endfacet
  facet normal 1 0 0
    outer loop
      vertex 0 15 0
      vertex 0 5 6
      vertex 0 5 0
    endloop
  endfacet
  facet normal 1 0 0
    outer loop
      vertex 0 15 0
      vertex 0 15 6
      vertex 0 5 6
    endloop
  endfacet
  facet normal 0 1 0
    outer loop
      vertex -8 15 0
      vertex 0 15 6
      vertex 0 15 0
    endloop
  endfacet
  facet normal 0 1 0
    outer loop
      vertex -8 15 0
      vertex -8 15 6
      vertex 0 15 6
    endloop
  endfacet
  facet normal -1 0 0
    outer loop
      vertex -8 13.5 0
      vertex -8 15 6
      vertex -8 15 0
    endloop
  endfacet
  facet normal -1 0 0
    outer loop
      vertex -8 13.5 0
      vertex -8 13.5 6
      vertex -8 15 6
    endloop
  endfacet
  facet normal -0.0384331221012044 0.9992611746313144 0
    outer loop
      vertex -21 13 0
      vertex -8 13.5 6
      vertex -8 13.5 0
    endloop
  endfacet
  facet normal -0.0384331221012044 0.9992611746313144 0
    outer loop
      vertex -21 13 0
      vertex -21 13 6
      vertex -8 13.5 6
    endloop
  endfacet
  facet normal 0.8944271909999159 -0.4472135954999579 0
    outer loop
      vertex -20 15 0
      vertex -21 13 6
      vertex -21 13 0
    endloop
  endfacet
  facet normal 0.8944271909999159 -0.4472135954999579 0
    outer loop
      vertex -20 15 0
      vertex -20 15 6
      vertex -21 13 6
    endloop
  endfacet
  facet normal 0 1 0
    outer loop
      vertex -27.399999998509884 15 0
      vertex -20 15 6
      vertex -20 15 0
    endloop
  endfacet
  facet normal 0 1 0
    outer loop
      vertex -27.399999998509884 15 0
      vertex -27.399999998509884 15 6
      vertex -20 15 6
    endloop
  endfacet
  facet normal -0.4183001356852639 0.9083088662375205 0
    outer loop
      vertex -35 11.5 0
      vertex -27.399999998509884 15 6
      vertex -27.399999998509884 15 0
    endloop
  endfacet
  facet normal -0.4183001356852639 0.9083088662375205 0
    outer loop
      vertex -35 11.5 0
      vertex -35 11.5 6
      vertex -27.399999998509884 15 6
    endloop
  endfacet
  facet normal -1 0 0
    outer loop
      vertex -35 10 0
      vertex -35 11.5 6
      vertex -35 11.5 0
    endloop
  endfacet
  facet normal -1 0 0
    outer loop
      vertex -35 10 0
      vertex -35 10 6
      vertex -35 11.5 6
    endloop
  endfacet
  facet normal -0.18428853505018536 -0.9828721869343219 0
    outer loop
      vertex -27 8.5 0
      vertex -35 10 6
      vertex -35 10 0
    endloop
  endfacet
  facet normal -0.18428853505018536 -0.9828721869343219 0
    outer loop
      vertex -27 8.5 0
      vertex -27 8.5 6
      vertex -35 10 6
    endloop
  endfacet
  facet normal 0 -1 0
    outer loop
      vertex -21 8.5 0
      vertex -27 8.5 6
      vertex -27 8.5 0
    endloop
  endfacet
  facet normal 0 -1 0
    outer loop
      vertex -21 8.5 0
      vertex -21 8.5 6
      vertex -27 8.5 6
    endloop
  endfacet
  facet normal 0.6689647320304035 -0.7432941458800079 0
    outer loop
      vertex -18 11.200000002980232 0
      vertex -21 8.5 6
      vertex -21 8.5 0
    endloop
  endfacet
  facet normal 0.6689647320304035 -0.7432941458800079 0
    outer loop
      vertex -18 11.200000002980232 0
      vertex -18 11.200000002980232 6
      vertex -21 8.5 6
    endloop
  endfacet
  facet normal 0.03747366021734967 -0.999297615723121 0
    outer loop
      vertex -10 11.5 0
      vertex -18 11.200000002980232 6
      vertex -18 11.200000002980232 0
    endloop
  endfacet
  facet normal 0.03747366021734967 -0.999297615723121 0
    outer loop
      vertex -10 11.5 0
      vertex -10 11.5 6
      vertex -18 11.200000002980232 6
    endloop
  endfacet
  facet normal -0.8823529411764706 0.47058823529411764 0
    outer loop
      vertex -14 4 0
      vertex -10 11.5 6
      vertex -10 11.5 0
    endloop
  endfacet
  facet normal -0.8823529411764706 0.47058823529411764 0
    outer loop
      vertex -14 4 0
      vertex -14 4 6
      vertex -10 11.5 6
    endloop
  endfacet
  facet normal 0 1 0
    outer loop
      vertex -35 4 0
      vertex -14 4 6
      vertex -14 4 0
    endloop
  endfacet
  facet normal 0 1 0
    outer loop
      vertex -35 4 0
      vertex -35 4 6
      vertex -14 4 6
    endloop
  endfacet
  facet normal -1 0 0
    outer loop
      vertex -35 -4 0
      vertex -35 4 6
      vertex -35 4 0
    endloop
  endfacet
  facet normal -1 0 0
    outer loop
      vertex -35 -4 0
      vertex -35 -4 6
      vertex -35 4 6
    endloop
  endfacet
  facet normal 0 -1 0
    outer loop
      vertex -14 -4 0
      vertex -35 -4 6
      vertex -35 -4 0
    endloop
  endfacet
  facet normal 0 -1 0
    outer loop
      vertex -14 -4 0
      vertex -14 -4 6
      vertex -35 -4 6
    endloop
  endfacet
  facet normal -0.8823529411764706 -0.47058823529411764 0
    outer loop
      vertex -10 -11.5 0
      vertex -14 -4 6
      vertex -14 -4 0
    endloop
  endfacet
  facet normal -0.8823529411764706 -0.47058823529411764 0
    outer loop
      vertex -10 -11.5 0
      vertex -10 -11.5 6
      vertex -14 -4 6
    endloop
  endfacet
  facet normal 0.03747366021734967 0.999297615723121 0
    outer loop
      vertex -18 -11.200000002980232 0
      vertex -10 -11.5 6
      vertex -10 -11.5 0
    endloop
  endfacet
  facet normal 0.03747366021734967 0.999297615723121 0
    outer loop
      vertex -18 -11.200000002980232 0
      vertex -18 -11.200000002980232 6
      vertex -10 -11.5 6
    endloop
  endfacet
  facet normal 0.6689647320304035 0.7432941458800079 0
    outer loop
      vertex -21 -8.5 0
      vertex -18 -11.200000002980232 6
      vertex -18 -11.200000002980232 0
    endloop
  endfacet
  facet normal 0.6689647320304035 0.7432941458800079 0
    outer loop
      vertex -21 -8.5 0
      vertex -21 -8.5 6
      vertex -18 -11.200000002980232 6
    endloop
  endfacet
  facet normal 0 1 0
    outer loop
      vertex -27 -8.5 0
      vertex -21 -8.5 6
      vertex -21 -8.5 0
    endloop
  endfacet
  facet normal 0 1 0
    outer loop
      vertex -27 -8.5 0
      vertex -27 -8.5 6
      vertex -21 -8.5 6
    endloop
  endfacet
  facet normal -0.18428853505018536 0.9828721869343219 0
    outer loop
      vertex -35 -10 0
      vertex -27 -8.5 6
      vertex -27 -8.5 0
    endloop
  endfacet
  facet normal -0.18428853505018536 0.9828721869343219 0
    outer loop
      vertex -35 -10 0
      vertex -35 -10 6
      vertex -27 -8.5 6
    endloop
  endfacet
  facet normal -1 0 0
    outer loop
      vertex -35 -11.5 0
      vertex -35 -10 6
      vertex -35 -10 0
    endloop
  endfacet
  facet normal -1 0 0
    outer loop
      vertex -35 -11.5 0
      vertex -35 -11.5 6
      vertex -35 -10 6
    endloop
  endfacet
  facet normal -0.4183001356852639 -0.9083088662375205 0
    outer loop
      vertex -27.399999998509884 -15 0
      vertex -35 -11.5 6
      vertex -35 -11.5 0
    endloop
  endfacet
  facet normal -0.4183001356852639 -0.9083088662375205 0
    outer loop
      vertex -27.399999998509884 -15 0
      vertex -27.399999998509884 -15 6
      vertex -35 -11.5 6
    endloop
  endfacet
  facet normal 0 -1 0
    outer loop
      vertex -20 -15 0
      vertex -27.399999998509884 -15 6
      vertex -27.399999998509884 -15 0
    endloop
  endfacet
  facet normal 0 -1 0
    outer loop
      vertex -20 -15 0
      vertex -20 -15 6
      vertex -27.399999998509884 -15 6
    endloop
  endfacet
  facet normal 0.8944271909999159 0.4472135954999579 0
    outer loop
      vertex -21 -13 0
      vertex -20 -15 6
      vertex -20 -15 0
    endloop
  endfacet
  facet normal 0.8944271909999159 0.4472135954999579 0
    outer loop
      vertex -21 -13 0
      vertex -21 -13 6
      vertex -20 -15 6
    endloop
  endfacet
  facet normal -0.0384331221012044 -0.9992611746313144 0
    outer loop
      vertex -8 -13.5 0
      vertex -21 -13 6
      vertex -21 -13 0
    endloop
  endfacet
  facet normal -0.0384331221012044 -0.9992611746313144 0
    outer loop
      vertex -8 -13.5 0
      vertex -8 -13.5 6
      vertex -21 -13 6
    endloop
  endfacet
  facet normal -1 0 0
    outer loop
      vertex -8 -15 0
      vertex -8 -13.5 6
      vertex -8 -13.5 0
    endloop
  endfacet
  facet normal -1 0 0
    outer loop
      vertex -8 -15 0
      vertex -8 -15 6
      vertex -8 -13.5 6
    endloop
  endfacet
  facet normal 0 -1 0
    outer loop
      vertex 0 -15 0
      vertex -8 -15 6
      vertex -8 -15 0
    endloop
  endfacet
  facet normal 0 -1 0
    outer loop
      vertex 0 -15 0
      vertex 0 -15 6
      vertex -8 -15 6
    endloop
  endfacet
  facet normal 1 0 0
    outer loop
      vertex 0 -5 0
      vertex 0 -15 6
      vertex 0 -15 0
    endloop
  endfacet
  facet normal 1 0 0
    outer loop
      vertex 0 -5 0
      vertex 0 -5 6
      vertex 0 -15 6
    endloop
  endfacet
  facet normal 0 -1 0
    outer loop
      vertex 20 -5 0
      vertex 0 -5 6
      vertex 0 -5 0
    endloop
  endfacet
  facet normal 0 -1 0
    outer loop
      vertex 20 -5 0
      vertex 20 -5 6
      vertex 0 -5 6
    endloop
  endfacet
  facet normal -1 0 0
    outer loop
      vertex 20 -15 0
      vertex 20 -5 6
      vertex 20 -5 0
    endloop
  endfacet
  facet normal -1 0 0
    outer loop
      vertex 20 -15 0
      vertex 20 -15 6
      vertex 20 -5 6
    endloop
  endfacet
  facet normal 0 1 0
    outer loop
      vertex 5 -15 0
      vertex 20 -15 6
      vertex 20 -15 0
    endloop
  endfacet
  facet normal 0 1 0
    outer loop
      vertex 5 -15 0
      vertex 5 -15 6
      vertex 20 -15 6
    endloop
  endfacet
  facet normal -1 0 0
    outer loop
      vertex 5 -25 0
      vertex 5 -15 6
      vertex 5 -15 0
    endloop
  endfacet
  facet normal -1 0 0
    outer loop
      vertex 5 -25 0
      vertex 5 -25 6
      vertex 5 -15 6
    endloop
  endfacet
  facet normal 0 -1 0
    outer loop
      vertex 30 -25 0
      vertex 5 -25 6
      vertex 5 -25 0
    endloop
  endfacet
  facet normal 0 -1 0
    outer loop
      vertex 30 -25 0
      vertex 30 -25 6
      vertex 5 -25 6
    endloop
  endfacet
  facet normal 1 0 0
    outer loop
      vertex 30 25 0
      vertex 30 -25 6
      vertex 30 -25 0
    endloop
  endfacet
  facet normal 1 0 0
    outer loop
      vertex 30 25 0
      vertex 30 25 6
      vertex 30 -25 6
    endloop
  endfacet
  facet normal 0 0 -1
    outer loop
      vertex -21 8.5 0
      vertex -21 13 0
      vertex -18 11.200000002980232 0
    endloop
  endfacet
  facet normal 0 0 -1
    outer loop
      vertex 5 15 0
      vertex 5 25 0
      vertex 20 15 0
    endloop
  endfacet
  facet normal 0 0 -1
    outer loop
      vertex 20 15 0
      vertex 30 25 0
      vertex 20 5 0
    endloop
  endfacet
  facet normal 0 0 -1
    outer loop
      vertex 5 25 0
      vertex 30 25 0
      vertex 20 15 0
    endloop
  endfacet
  facet normal 0 0 -1
    outer loop
      vertex 20 5 0
      vertex 30 -25 0
      vertex 20 -5 0
    endloop
  endfacet
  facet normal 0 0 -1
    outer loop
      vertex -14 -4 0
      vertex -35 4 0
      vertex -14 4 0
    endloop
  endfacet
  facet normal 0 0 -1
    outer loop
      vertex -14 -4 0
      vertex -14 4 0
      vertex 0 -5 0
    endloop
  endfacet
  facet normal 0 0 -1
    outer loop
      vertex -8 13.5 0
      vertex -8 15 0
      vertex 0 15 0
    endloop
  endfacet
  facet normal 0 0 -1
    outer loop
      vertex 0 5 0
      vertex -8 13.5 0
      vertex 0 15 0
    endloop
  endfacet
  facet normal 0 0 -1
    outer loop
      vertex -35 11.5 0
      vertex -27 8.5 0
      vertex -35 10 0
    endloop
  endfacet
  facet normal 0 0 -1
    outer loop
      vertex -21 13 0
      vertex -27.399999998509884 15 0
      vertex -20 15 0
    endloop
  endfacet
  facet normal 0 0 -1
    outer loop
      vertex -35 11.5 0
      vertex -27.399999998509884 15 0
      vertex -27 8.5 0
    endloop
  endfacet
  facet normal 0 0 -1
    outer loop
      vertex -27 8.5 0
      vertex -27.399999998509884 15 0
      vertex -21 13 0
    endloop
  endfacet
  facet normal 0 0 -1
    outer loop
      vertex -8 -13.5 0
      vertex -10 -11.5 0
      vertex 0 -5 0
    endloop
  endfacet
  facet normal 0 0 -1
    outer loop
      vertex -21 8.5 0
      vertex -27 8.5 0
      vertex -21 13 0
    endloop
  endfacet
  facet normal 0 0 -1
    outer loop
      vertex -18 11.200000002980232 0
      vertex -21 13 0
      vertex -8 13.5 0
    endloop
  endfacet
  facet normal 0 0 -1
    outer loop
      vertex 0 5 0
      vertex -10 11.5 0
      vertex -8 13.5 0
    endloop
  endfacet
  facet normal 0 0 -1
    outer loop
      vertex -10 11.5 0
      vertex -18 11.200000002980232 0
      vertex -8 13.5 0
    endloop
  endfacet
  facet normal 0 0 -1
    outer loop
      vertex 0 5 0
      vertex -14 4 0
      vertex -10 11.5 0
    endloop
  endfacet
  facet normal 0 0 -1
    outer loop
      vertex -14 -4 0
      vertex -35 -4 0
      vertex -35 4 0
    endloop
  endfacet
  facet normal 0 0 -1
    outer loop
      vertex -10 -11.5 0
      vertex -14 -4 0
      vertex 0 -5 0
    endloop
  endfacet
  facet normal 0 0 -1
    outer loop
      vertex -27 -8.5 0
      vertex -21 -8.5 0
      vertex -21 -13 0
    endloop
  endfacet
  facet normal 0 0 -1
    outer loop
      vertex -8 -13.5 0
      vertex 0 -5 0
      vertex 0 -15 0
    endloop
  endfacet
  facet normal 0 0 -1
    outer loop
      vertex 30 25 0
      vertex 30 -25 0
      vertex 20 5 0
    endloop
  endfacet
  facet normal 0 0 -1
    outer loop
      vertex -27.399999998509884 -15 0
      vertex -27 -8.5 0
      vertex -21 -13 0
    endloop
  endfacet
  facet normal 0 0 -1
    outer loop
      vertex -35 -11.5 0
      vertex -35 -10 0
      vertex -27 -8.5 0
    endloop
  endfacet
  facet normal 0 0 -1
    outer loop
      vertex -27.399999998509884 -15 0
      vertex -35 -11.5 0
      vertex -27 -8.5 0
    endloop
  endfacet
  facet normal 0 0 -1
    outer loop
      vertex -21 -13 0
      vertex -21 -8.5 0
      vertex -18 -11.200000002980232 0
    endloop
  endfacet
  facet normal 0 0 -1
    outer loop
      vertex -27.399999998509884 -15 0
      vertex -21 -13 0
      vertex -20 -15 0
    endloop
  endfacet
  facet normal 0 0 -1
    outer loop
      vertex 0 -15 0
      vertex -8 -15 0
      vertex -8 -13.5 0
    endloop
  endfacet
  facet normal 0 0 -1
    outer loop
      vertex -18 -11.200000002980232 0
      vertex -8 -13.5 0
      vertex -21 -13 0
    endloop
  endfacet
  facet normal 0 0 -1
    outer loop
      vertex -10 -11.5 0
      vertex -8 -13.5 0
      vertex -18 -11.200000002980232 0
    endloop
  endfacet
  facet normal 0 0 -1
    outer loop
      vertex 20 -5 0
      vertex 0 -5 0
      vertex 0 5 0
    endloop
  endfacet
  facet normal 0 0 -1
    outer loop
      vertex 0 -5 0
      vertex -14 4 0
      vertex 0 5 0
    endloop
  endfacet
  facet normal 0 0 -1
    outer loop
      vertex 20 5 0
      vertex 20 -5 0
      vertex 0 5 0
    endloop
  endfacet
  facet normal 0 0 -1
    outer loop
      vertex 30 -25 0
      vertex 20 -15 0
      vertex 20 -5 0
    endloop
  endfacet
  facet normal 0 0 -1
    outer loop
      vertex 20 -15 0
      vertex 5 -25 0
      vertex 5 -15 0
    endloop
  endfacet
  facet normal 0 0 -1
    outer loop
      vertex 20 -15 0
      vertex 30 -25 0
      vertex 5 -25 0
    endloop
  endfacet
  facet normal 0 0 1
    outer loop
      vertex -18 11.200000002980232 6
      vertex -21 13 6
      vertex -21 8.5 6
    endloop
  endfacet
  facet normal 0 0 1
    outer loop
      vertex 20 15 6
      vertex 5 25 6
      vertex 5 15 6
    endloop
  endfacet
  facet normal 0 0 1
    outer loop
      vertex 20 5 6
      vertex 30 25 6
      vertex 20 15 6
    endloop
  endfacet
  facet normal 0 0 1
    outer loop
      vertex 20 15 6
      vertex 30 25 6
      vertex 5 25 6
    endloop
  endfacet
  facet normal 0 0 1
    outer loop
      vertex 20 -5 6
      vertex 30 -25 6
      vertex 20 5 6
    endloop
  endfacet
  facet normal 0 0 1
    outer loop
      vertex -14 4 6
      vertex -35 4 6
      vertex -14 -4 6
    endloop
  endfacet
  facet normal 0 0 1
    outer loop
      vertex 0 -5 6
      vertex -14 4 6
      vertex -14 -4 6
    endloop
  endfacet
  facet normal 0 0 1
    outer loop
      vertex 0 15 6
      vertex -8 15 6
      vertex -8 13.5 6
    endloop
  endfacet
  facet normal 0 0 1
    outer loop
      vertex 0 15 6
      vertex -8 13.5 6
      vertex 0 5 6
    endloop
  endfacet
  facet normal 0 0 1
    outer loop
      vertex -35 10 6
      vertex -27 8.5 6
      vertex -35 11.5 6
    endloop
  endfacet
  facet normal 0 0 1
    outer loop
      vertex -20 15 6
      vertex -27.399999998509884 15 6
      vertex -21 13 6
    endloop
  endfacet
  facet normal 0 0 1
    outer loop
      vertex -27 8.5 6
      vertex -27.399999998509884 15 6
      vertex -35 11.5 6
    endloop
  endfacet
  facet normal 0 0 1
    outer loop
      vertex -21 13 6
      vertex -27.399999998509884 15 6
      vertex -27 8.5 6
    endloop
  endfacet
  facet normal 0 0 1
    outer loop
      vertex 0 -5 6
      vertex -10 -11.5 6
      vertex -8 -13.5 6
    endloop
  endfacet
  facet normal 0 0 1
    outer loop
      vertex -21 13 6
      vertex -27 8.5 6
      vertex -21 8.5 6
    endloop
  endfacet
  facet normal 0 0 1
    outer loop
      vertex -8 13.5 6
      vertex -21 13 6
      vertex -18 11.200000002980232 6
    endloop
  endfacet
  facet normal 0 0 1
    outer loop
      vertex -8 13.5 6
      vertex -10 11.5 6
      vertex 0 5 6
    endloop
  endfacet
  facet normal 0 0 1
    outer loop
      vertex -8 13.5 6
      vertex -18 11.200000002980232 6
      vertex -10 11.5 6
    endloop
  endfacet
  facet normal 0 0 1
    outer loop
      vertex -10 11.5 6
      vertex -14 4 6
      vertex 0 5 6
    endloop
  endfacet
  facet normal 0 0 1
    outer loop
      vertex -35 4 6
      vertex -35 -4 6
      vertex -14 -4 6
    endloop
  endfacet
  facet normal 0 0 1
    outer loop
      vertex 0 -5 6
      vertex -14 -4 6
      vertex -10 -11.5 6
    endloop
  endfacet
  facet normal 0 0 1
    outer loop
      vertex -21 -13 6
      vertex -21 -8.5 6
      vertex -27 -8.5 6
    endloop
  endfacet
  facet normal 0 0 1
    outer loop
      vertex 0 -15 6
      vertex 0 -5 6
      vertex -8 -13.5 6
    endloop
  endfacet
  facet normal 0 0 1
    outer loop
      vertex 20 5 6
      vertex 30 -25 6
      vertex 30 25 6
    endloop
  endfacet
  facet normal 0 0 1
    outer loop
      vertex -21 -13 6
      vertex -27 -8.5 6
      vertex -27.399999998509884 -15 6
    endloop
  endfacet
  facet normal 0 0 1
    outer loop
      vertex -27 -8.5 6
      vertex -35 -10 6
      vertex -35 -11.5 6
    endloop
  endfacet
  facet normal 0 0 1
    outer loop
      vertex -27 -8.5 6
      vertex -35 -11.5 6
      vertex -27.399999998509884 -15 6
    endloop
  endfacet
  facet normal 0 0 1
    outer loop
      vertex -18 -11.200000002980232 6
      vertex -21 -8.5 6
      vertex -21 -13 6
    endloop
  endfacet
  facet normal 0 0 1
    outer loop
      vertex -20 -15 6
      vertex -21 -13 6
      vertex -27.399999998509884 -15 6
    endloop
  endfacet
  facet normal 0 0 1
    outer loop
      vertex -8 -13.5 6
      vertex -8 -15 6
      vertex 0 -15 6
    endloop
  endfacet
  facet normal 0 0 1
    outer loop
      vertex -21 -13 6
      vertex -8 -13.5 6
      vertex -18 -11.200000002980232 6
    endloop
  endfacet
  facet normal 0 0 1
    outer loop
      vertex -18 -11.200000002980232 6
      vertex -8 -13.5 6
      vertex -10 -11.5 6
    endloop
  endfacet
  facet normal 0 0 1
    outer loop
      vertex 0 5 6
      vertex 0 -5 6
      vertex 20 -5 6
    endloop
  endfacet
  facet normal 0 0 1
    outer loop
      vertex 0 5 6
      vertex -14 4 6
      vertex 0 -5 6
    endloop
  endfacet
  facet normal 0 0 1
    outer loop
      vertex 0 5 6
      vertex 20 -5 6
      vertex 20 5 6
    endloop
  endfacet
  facet normal 0 0 1
    outer loop
      vertex 20 -5 6
      vertex 20 -15 6
      vertex 30 -25 6
    endloop
  endfacet
  facet normal 0 0 1
    outer loop
      vertex 5 -15 6
      vertex 5 -25 6
      vertex 20 -15 6
    endloop
  endfacet
  facet normal 0 0 1
    outer loop
      vertex 5 -25 6
      vertex 30 -25 6
      vertex 20 -15 6
    endloop
  endfacet
endsolid OpenSCAD_Model
