solid OpenSCAD_Model
  facet normal 0 1 0
    outer loop
      vertex 49.570945739746094 15 8.412540435791016
      vertex 33.39230728149414 15 6
      vertex 46.570945739746094 15 13.608692169189453
    endloop
  endfacet
  facet normal 0 1 0
    outer loop
      vertex 35 15 0
      vertex 33.39230728149414 15 6
      vertex 49.570945739746094 15 8.412540435791016
    endloop
  endfacet
  facet normal 0 1 0
    outer loop
      vertex 27 15 0
      vertex 33.39230728149414 15 6
      vertex 35 15 0
    endloop
  endfacet
  facet normal 0 1 0
    outer loop
      vertex 33.39230728149414 15 6
      vertex 27 15 0
      vertex 27 15 6
    endloop
  endfacet
  facet normal -1 0 0
    outer loop
      vertex 27 13.5 0
      vertex 27 15 6
      vertex 27 15 0
    endloop
  endfacet
  facet normal -1 0 0
    outer loop
      vertex 27 15 6
      vertex 27 13.5 0
      vertex 27 13.5 6
    endloop
  endfacet
  facet normal -0.0384331221012044 0.9992611746313144 0
    outer loop
      vertex 27 13.5 0
      vertex 14 13 6
      vertex 27 13.5 6
    endloop
  endfacet
  facet normal -0.0384331221012044 0.9992611746313144 0
    outer loop
      vertex 14 13 6
      vertex 27 13.5 0
      vertex 14 13 0
    endloop
  endfacet
  facet normal 0.8944271909999159 -0.4472135954999579 0
    outer loop
      vertex 14 13 6
      vertex 15 15 0
      vertex 15 15 6
    endloop
  endfacet
  facet normal 0.8944271909999159 -0.4472135954999579 0
    outer loop
      vertex 15 15 0
      vertex 14 13 6
      vertex 14 13 0
    endloop
  endfacet
  facet normal 0 1 0
    outer loop
      vertex 15 15 0
      vertex 7.59999942779541 15 6
      vertex 15 15 6
    endloop
  endfacet
  facet normal 0 1 0
    outer loop
      vertex 7.59999942779541 15 6
      vertex 15 15 0
      vertex 7.59999942779541 15 0
    endloop
  endfacet
  facet normal -0.4183001617361432 0.9083088542404046 0
    outer loop
      vertex 7.59999942779541 15 0
      vertex 0 11.5 6
      vertex 7.59999942779541 15 6
    endloop
  endfacet
  facet normal -0.4183001617361432 0.9083088542404046 0
    outer loop
      vertex 0 11.5 6
      vertex 7.59999942779541 15 0
      vertex 0 11.5 0
    endloop
  endfacet
  facet normal -1 0 0
    outer loop
      vertex 0 10 0
      vertex 0 11.5 6
      vertex 0 11.5 0
    endloop
  endfacet
  facet normal -1 0 0
    outer loop
      vertex 0 11.5 6
      vertex 0 10 0
      vertex 0 10 6
    endloop
  endfacet
  facet normal -0.18428853505018536 -0.9828721869343219 0
    outer loop
      vertex 0 10 0
      vertex 8 8.5 6
      vertex 0 10 6
    endloop
  endfacet
  facet normal -0.18428853505018536 -0.9828721869343219 0
    outer loop
      vertex 8 8.5 6
      vertex 0 10 0
      vertex 8 8.5 0
    endloop
  endfacet
  facet normal 0 -1 0
    outer loop
      vertex 8 8.5 0
      vertex 14 8.5 6
      vertex 8 8.5 6
    endloop
  endfacet
  facet normal 0 -1 0
    outer loop
      vertex 14 8.5 6
      vertex 8 8.5 0
      vertex 14 8.5 0
    endloop
  endfacet
  facet normal 0.7295371837994266 -0.6839411505780317 0
    outer loop
      vertex 14 8.5 6
      vertex 17 11.699999809265137 0
      vertex 17 11.699999809265137 6
    endloop
  endfacet
  facet normal 0.7295371837994266 -0.6839411505780317 0
    outer loop
      vertex 17 11.699999809265137 0
      vertex 14 8.5 6
      vertex 14 8.5 0
    endloop
  endfacet
  facet normal 0.037473684380748995 -0.9992976148169933 0
    outer loop
      vertex 17 11.699999809265137 0
      vertex 25 12 6
      vertex 17 11.699999809265137 6
    endloop
  endfacet
  facet normal 0.037473684380748995 -0.9992976148169933 0
    outer loop
      vertex 25 12 6
      vertex 17 11.699999809265137 0
      vertex 25 12 0
    endloop
  endfacet
  facet normal -0.8944271909999159 0.4472135954999579 0
    outer loop
      vertex 21 4 0
      vertex 25 12 6
      vertex 25 12 0
    endloop
  endfacet
  facet normal -0.8944271909999159 0.4472135954999579 0
    outer loop
      vertex 25 12 6
      vertex 21 4 0
      vertex 21 4 6
    endloop
  endfacet
  facet normal 0 1 0
    outer loop
      vertex 21 4 0
      vertex 0 4 6
      vertex 21 4 6
    endloop
  endfacet
  facet normal 0 1 0
    outer loop
      vertex 0 4 6
      vertex 21 4 0
      vertex 0 4 0
    endloop
  endfacet
  facet normal -1 0 0
    outer loop
      vertex 0 0.19999980926513672 0
      vertex 0 4 6
      vertex 0 4 0
    endloop
  endfacet
  facet normal -1 0 0
    outer loop
      vertex 0 4 6
      vertex 0 0.19999980926513672 0
      vertex 0 0.19999980926513672 6
    endloop
  endfacet
  facet normal -1 0 0
    outer loop
      vertex 0 -4 0
      vertex 0 -0.19999980926513672 6
      vertex 0 -0.19999980926513672 0
    endloop
  endfacet
  facet normal -1 0 0
    outer loop
      vertex 0 -0.19999980926513672 6
      vertex 0 -4 0
      vertex 0 -4 6
    endloop
  endfacet
  facet normal 0 -1 0
    outer loop
      vertex 0 -4 0
      vertex 21 -4 6
      vertex 0 -4 6
    endloop
  endfacet
  facet normal 0 -1 0
    outer loop
      vertex 21 -4 6
      vertex 0 -4 0
      vertex 21 -4 0
    endloop
  endfacet
  facet normal -0.8944271909999159 -0.4472135954999579 0
    outer loop
      vertex 25 -12 0
      vertex 21 -4 6
      vertex 21 -4 0
    endloop
  endfacet
  facet normal -0.8944271909999159 -0.4472135954999579 0
    outer loop
      vertex 21 -4 6
      vertex 25 -12 0
      vertex 25 -12 6
    endloop
  endfacet
  facet normal 0.037473684380748995 0.9992976148169933 0
    outer loop
      vertex 25 -12 0
      vertex 17 -11.699999809265137 6
      vertex 25 -12 6
    endloop
  endfacet
  facet normal 0.037473684380748995 0.9992976148169933 0
    outer loop
      vertex 17 -11.699999809265137 6
      vertex 25 -12 0
      vertex 17 -11.699999809265137 0
    endloop
  endfacet
  facet normal 0.7295371837994266 0.6839411505780317 0
    outer loop
      vertex 17 -11.699999809265137 6
      vertex 14 -8.5 0
      vertex 14 -8.5 6
    endloop
  endfacet
  facet normal 0.7295371837994266 0.6839411505780317 0
    outer loop
      vertex 14 -8.5 0
      vertex 17 -11.699999809265137 6
      vertex 17 -11.699999809265137 0
    endloop
  endfacet
  facet normal 0 1 0
    outer loop
      vertex 14 -8.5 0
      vertex 8 -8.5 6
      vertex 14 -8.5 6
    endloop
  endfacet
  facet normal 0 1 0
    outer loop
      vertex 8 -8.5 6
      vertex 14 -8.5 0
      vertex 8 -8.5 0
    endloop
  endfacet
  facet normal -0.18428853505018536 0.9828721869343219 0
    outer loop
      vertex 8 -8.5 0
      vertex 0 -10 6
      vertex 8 -8.5 6
    endloop
  endfacet
  facet normal -0.18428853505018536 0.9828721869343219 0
    outer loop
      vertex 0 -10 6
      vertex 8 -8.5 0
      vertex 0 -10 0
    endloop
  endfacet
  facet normal -1 0 0
    outer loop
      vertex 0 -11.5 0
      vertex 0 -10 6
      vertex 0 -10 0
    endloop
  endfacet
  facet normal -1 0 0
    outer loop
      vertex 0 -10 6
      vertex 0 -11.5 0
      vertex 0 -11.5 6
    endloop
  endfacet
  facet normal -0.4183001617361432 -0.9083088542404046 0
    outer loop
      vertex 0 -11.5 0
      vertex 7.59999942779541 -15 6
      vertex 0 -11.5 6
    endloop
  endfacet
  facet normal -0.4183001617361432 -0.9083088542404046 0
    outer loop
      vertex 7.59999942779541 -15 6
      vertex 0 -11.5 0
      vertex 7.59999942779541 -15 0
    endloop
  endfacet
  facet normal 0 -1 0
    outer loop
      vertex 7.59999942779541 -15 0
      vertex 15 -15 6
      vertex 7.59999942779541 -15 6
    endloop
  endfacet
  facet normal 0 -1 0
    outer loop
      vertex 15 -15 6
      vertex 7.59999942779541 -15 0
      vertex 15 -15 0
    endloop
  endfacet
  facet normal 0.8944271909999159 0.4472135954999579 0
    outer loop
      vertex 15 -15 6
      vertex 14 -13 0
      vertex 14 -13 6
    endloop
  endfacet
  facet normal 0.8944271909999159 0.4472135954999579 0
    outer loop
      vertex 14 -13 0
      vertex 15 -15 6
      vertex 15 -15 0
    endloop
  endfacet
  facet normal -0.0384331221012044 -0.9992611746313144 0
    outer loop
      vertex 14 -13 0
      vertex 27 -13.5 6
      vertex 14 -13 6
    endloop
  endfacet
  facet normal -0.0384331221012044 -0.9992611746313144 0
    outer loop
      vertex 27 -13.5 6
      vertex 14 -13 0
      vertex 27 -13.5 0
    endloop
  endfacet
  facet normal -1 0 0
    outer loop
      vertex 27 -15 0
      vertex 27 -13.5 6
      vertex 27 -13.5 0
    endloop
  endfacet
  facet normal -1 0 0
    outer loop
      vertex 27 -13.5 6
      vertex 27 -15 0
      vertex 27 -15 6
    endloop
  endfacet
  facet normal 0 -1 0
    outer loop
      vertex 27 -15 6
      vertex 27 -15 0
      vertex 33.39230728149414 -15 6
    endloop
  endfacet
  facet normal 0 -1 0
    outer loop
      vertex 33.39230728149414 -15 6
      vertex 49.570945739746094 -15 8.412540435791016
      vertex 46.570945739746094 -15 13.608692169189453
    endloop
  endfacet
  facet normal 0 -1 0
    outer loop
      vertex 35 -15 0
      vertex 33.39230728149414 -15 6
      vertex 27 -15 0
    endloop
  endfacet
  facet normal 0 -1 0
    outer loop
      vertex 33.39230728149414 -15 6
      vertex 35 -15 0
      vertex 49.570945739746094 -15 8.412540435791016
    endloop
  endfacet
  facet normal 0 0 -1
    outer loop
      vertex 35 0.19999980926513672 0
      vertex 27 13.5 0
      vertex 35 15 0
    endloop
  endfacet
  facet normal 0 0 -1
    outer loop
      vertex 35 0.19999980926513672 0
      vertex 25 12 0
      vertex 27 13.5 0
    endloop
  endfacet
  facet normal 0 0 -1
    outer loop
      vertex 35 0.19999980926513672 0
      vertex 21 4 0
      vertex 25 12 0
    endloop
  endfacet
  facet normal 0 0 -1
    outer loop
      vertex 0 0.19999980926513672 0
      vertex 21 4 0
      vertex 35 0.19999980926513672 0
    endloop
  endfacet
  facet normal 0 0 -1
    outer loop
      vertex 21 4 0
      vertex 0 0.19999980926513672 0
      vertex 0 4 0
    endloop
  endfacet
  facet normal 0 0 -1
    outer loop
      vertex 35 15 0
      vertex 27 13.5 0
      vertex 27 15 0
    endloop
  endfacet
  facet normal 0 0 -1
    outer loop
      vertex 17 11.699999809265137 0
      vertex 27 13.5 0
      vertex 25 12 0
    endloop
  endfacet
  facet normal 0 0 -1
    outer loop
      vertex 17 11.699999809265137 0
      vertex 14 13 0
      vertex 27 13.5 0
    endloop
  endfacet
  facet normal 0 0 -1
    outer loop
      vertex 14 8.5 0
      vertex 14 13 0
      vertex 17 11.699999809265137 0
    endloop
  endfacet
  facet normal 0 0 -1
    outer loop
      vertex 14 13 0
      vertex 14 8.5 0
      vertex 8 8.5 0
    endloop
  endfacet
  facet normal 0 0 -1
    outer loop
      vertex 7.59999942779541 15 0
      vertex 14 13 0
      vertex 8 8.5 0
    endloop
  endfacet
  facet normal 0 0 -1
    outer loop
      vertex 14 13 0
      vertex 7.59999942779541 15 0
      vertex 15 15 0
    endloop
  endfacet
  facet normal 0 0 -1
    outer loop
      vertex 0 11.5 0
      vertex 8 8.5 0
      vertex 0 10 0
    endloop
  endfacet
  facet normal 0 0 -1
    outer loop
      vertex 8 8.5 0
      vertex 0 11.5 0
      vertex 7.59999942779541 15 0
    endloop
  endfacet
  facet normal 0 0 -1
    outer loop
      vertex 14 -13 0
      vertex 8 -8.5 0
      vertex 14 -8.5 0
    endloop
  endfacet
  facet normal 0 0 -1
    outer loop
      vertex 7.59999942779541 -15 0
      vertex 14 -13 0
      vertex 15 -15 0
    endloop
  endfacet
  facet normal 0 0 -1
    outer loop
      vertex 14 -13 0
      vertex 7.59999942779541 -15 0
      vertex 8 -8.5 0
    endloop
  endfacet
  facet normal 0 0 -1
    outer loop
      vertex 0 -11.5 0
      vertex 8 -8.5 0
      vertex 7.59999942779541 -15 0
    endloop
  endfacet
  facet normal 0 0 -1
    outer loop
      vertex 8 -8.5 0
      vertex 0 -11.5 0
      vertex 0 -10 0
    endloop
  endfacet
  facet normal 0 0 -1
    outer loop
      vertex 27 -13.5 0
      vertex 17 -11.699999809265137 0
      vertex 25 -12 0
    endloop
  endfacet
  facet normal 0 0 -1
    outer loop
      vertex 14 -13 0
      vertex 17 -11.699999809265137 0
      vertex 27 -13.5 0
    endloop
  endfacet
  facet normal 0 0 -1
    outer loop
      vertex 17 -11.699999809265137 0
      vertex 14 -13 0
      vertex 14 -8.5 0
    endloop
  endfacet
  facet normal 0 0 -1
    outer loop
      vertex 27 -13.5 0
      vertex 35 -15 0
      vertex 27 -15 0
    endloop
  endfacet
  facet normal 0 0 -1
    outer loop
      vertex 35 -15 0
      vertex 27 -13.5 0
      vertex 35 -0.19999980926513672 0
    endloop
  endfacet
  facet normal 0 0 -1
    outer loop
      vertex 25 -12 0
      vertex 35 -0.19999980926513672 0
      vertex 27 -13.5 0
    endloop
  endfacet
  facet normal 0 0 -1
    outer loop
      vertex 21 -4 0
      vertex 35 -0.19999980926513672 0
      vertex 25 -12 0
    endloop
  endfacet
  facet normal 0 0 -1
    outer loop
      vertex 0 -0.19999980926513672 0
      vertex 21 -4 0
      vertex 0 -4 0
    endloop
  endfacet
  facet normal 0 0 -1
    outer loop
      vertex 21 -4 0
      vertex 0 -0.19999980926513672 0
      vertex 35 -0.19999980926513672 0
    endloop
  endfacet
  facet normal 0 0 1
    outer loop
      vertex 14 13 6
      vertex 8 8.5 6
      vertex 14 8.5 6
    endloop
  endfacet
  facet normal 0 0 1
    outer loop
      vertex 7.59999942779541 15 6
      vertex 14 13 6
      vertex 15 15 6
    endloop
  endfacet
  facet normal 0 0 1
    outer loop
      vertex 14 13 6
      vertex 7.59999942779541 15 6
      vertex 8 8.5 6
    endloop
  endfacet
  facet normal 0 0 1
    outer loop
      vertex 0 11.5 6
      vertex 8 8.5 6
      vertex 7.59999942779541 15 6
    endloop
  endfacet
  facet normal 0 0 1
    outer loop
      vertex 8 8.5 6
      vertex 0 11.5 6
      vertex 0 10 6
    endloop
  endfacet
  facet normal 0 0 1
    outer loop
      vertex 27 13.5 6
      vertex 17 11.699999809265137 6
      vertex 25 12 6
    endloop
  endfacet
  facet normal 0 0 1
    outer loop
      vertex 14 13 6
      vertex 17 11.699999809265137 6
      vertex 27 13.5 6
    endloop
  endfacet
  facet normal 0 0 1
    outer loop
      vertex 17 11.699999809265137 6
      vertex 14 13 6
      vertex 14 8.5 6
    endloop
  endfacet
  facet normal 0 0 1
    outer loop
      vertex 27 15 6
      vertex 33.39230728149414 14.901196479797363 6
      vertex 33.39230728149414 15 6
    endloop
  endfacet
  facet normal 0 0 1
    outer loop
      vertex 33.39230728149414 14.901196479797363 6
      vertex 27 15 6
      vertex 33.39230728149414 14.533143997192383 6
    endloop
  endfacet
  facet normal 0 0 1
    outer loop
      vertex 33.39230728149414 14.533143997192383 6
      vertex 27 15 6
      vertex 33.39230728149414 13.977484703063965 6
    endloop
  endfacet
  facet normal 0 0 1
    outer loop
      vertex 33.39230728149414 13.977484703063965 6
      vertex 27 13.5 6
      vertex 33.39230728149414 13.272419929504395 6
    endloop
  endfacet
  facet normal 0 0 1
    outer loop
      vertex 33.39230728149414 13.272419929504395 6
      vertex 27 13.5 6
      vertex 33.39230728149414 12.564096450805664 6
    endloop
  endfacet
  facet normal 0 0 1
    outer loop
      vertex 33.39230728149414 13.977484703063965 6
      vertex 27 15 6
      vertex 27 13.5 6
    endloop
  endfacet
  facet normal 0 0 1
    outer loop
      vertex 25 12 6
      vertex 33.39230728149414 12.564096450805664 6
      vertex 27 13.5 6
    endloop
  endfacet
  facet normal 0 0 1
    outer loop
      vertex 33.39230728149414 12.564096450805664 6
      vertex 25 12 6
      vertex 33.39230728149414 0.19999980926513672 6
    endloop
  endfacet
  facet normal 0 0 1
    outer loop
      vertex 21 4 6
      vertex 33.39230728149414 0.19999980926513672 6
      vertex 25 12 6
    endloop
  endfacet
  facet normal 0 0 1
    outer loop
      vertex 0 0.19999980926513672 6
      vertex 21 4 6
      vertex 0 4 6
    endloop
  endfacet
  facet normal 0 0 1
    outer loop
      vertex 21 4 6
      vertex 0 0.19999980926513672 6
      vertex 33.39230728149414 0.19999980926513672 6
    endloop
  endfacet
  facet normal 0 0 1
    outer loop
      vertex 25 -12 6
      vertex 33.39230728149414 -12.564096450805664 6
      vertex 33.39230728149414 -0.19999980926513672 6
    endloop
  endfacet
  facet normal 0 0 1
    outer loop
      vertex 27 -13.5 6
      vertex 33.39230728149414 -12.564096450805664 6
      vertex 25 -12 6
    endloop
  endfacet
  facet normal 0 0 1
    outer loop
      vertex 33.39230728149414 -13.272419929504395 6
      vertex 27 -13.5 6
      vertex 33.39230728149414 -13.977484703063965 6
    endloop
  endfacet
  facet normal 0 0 1
    outer loop
      vertex 33.39230728149414 -13.977484703063965 6
      vertex 27 -13.5 6
      vertex 33.39230728149414 -14.533143997192383 6
    endloop
  endfacet
  facet normal 0 0 1
    outer loop
      vertex 27 -15 6
      vertex 33.39230728149414 -14.533143997192383 6
      vertex 27 -13.5 6
    endloop
  endfacet
  facet normal 0 0 1
    outer loop
      vertex 33.39230728149414 -14.533143997192383 6
      vertex 27 -15 6
      vertex 33.39230728149414 -14.901196479797363 6
    endloop
  endfacet
  facet normal 0 0 1
    outer loop
      vertex 33.39230728149414 -12.564096450805664 6
      vertex 27 -13.5 6
      vertex 33.39230728149414 -13.272419929504395 6
    endloop
  endfacet
  facet normal 0 0 1
    outer loop
      vertex 33.39230728149414 -0.19999980926513672 6
      vertex 21 -4 6
      vertex 25 -12 6
    endloop
  endfacet
  facet normal 0 0 1
    outer loop
      vertex 0 -0.19999980926513672 6
      vertex 21 -4 6
      vertex 33.39230728149414 -0.19999980926513672 6
    endloop
  endfacet
  facet normal 0 0 1
    outer loop
      vertex 21 -4 6
      vertex 0 -0.19999980926513672 6
      vertex 0 -4 6
    endloop
  endfacet
  facet normal 0 0 1
    outer loop
      vertex 33.39230728149414 -14.901196479797363 6
      vertex 27 -15 6
      vertex 33.39230728149414 -15 6
    endloop
  endfacet
  facet normal 0 0 1
    outer loop
      vertex 17 -11.699999809265137 6
      vertex 27 -13.5 6
      vertex 25 -12 6
    endloop
  endfacet
  facet normal 0 0 1
    outer loop
      vertex 17 -11.699999809265137 6
      vertex 14 -13 6
      vertex 27 -13.5 6
    endloop
  endfacet
  facet normal 0 0 1
    outer loop
      vertex 14 -8.5 6
      vertex 14 -13 6
      vertex 17 -11.699999809265137 6
    endloop
  endfacet
  facet normal 0 0 1
    outer loop
      vertex 14 -13 6
      vertex 14 -8.5 6
      vertex 8 -8.5 6
    endloop
  endfacet
  facet normal 0 0 1
    outer loop
      vertex 7.59999942779541 -15 6
      vertex 14 -13 6
      vertex 8 -8.5 6
    endloop
  endfacet
  facet normal 0 0 1
    outer loop
      vertex 14 -13 6
      vertex 7.59999942779541 -15 6
      vertex 15 -15 6
    endloop
  endfacet
  facet normal 0 0 1
    outer loop
      vertex 0 -11.5 6
      vertex 8 -8.5 6
      vertex 0 -10 6
    endloop
  endfacet
  facet normal 0 0 1
    outer loop
      vertex 8 -8.5 6
      vertex 0 -11.5 6
      vertex 7.59999942779541 -15 6
    endloop
  endfacet
  facet normal 0.3522444965120037 -0.9135453328997525 0.20336848186010842
    outer loop
      vertex 65.04985046386719 -18.307838439941406 17.349288940429688
      vertex 68.23372650146484 -16.670988082885742 19.1875
      vertex 62.04985046386719 -18.307838439941406 22.545440673828125
    endloop
  endfacet
  facet normal 0.3522444965120037 -0.9135453328997525 0.20336848186010842
    outer loop
      vertex 68.23372650146484 -16.670988082885742 19.1875
      vertex 65.23372650146484 -16.670988082885742 24.383651733398438
      vertex 62.04985046386719 -18.307838439941406 22.545440673828125
    endloop
  endfacet
  facet normal 0.509037089486842 -0.8090168719622995 0.29389273962978557
    outer loop
      vertex 65.23372650146484 -16.670988082885742 24.383651733398438
      vertex 71.05329895019531 -14.305537223815918 20.81538200378418
      vertex 68.05329895019531 -14.305537223815918 26.011533737182617
    endloop
  endfacet
  facet normal 0.509037089486842 -0.8090168719622995 0.29389273962978557
    outer loop
      vertex 71.05329895019531 -14.305537223815918 20.81538200378418
      vertex 65.23372650146484 -16.670988082885742 24.383651733398438
      vertex 68.23372650146484 -16.670988082885742 19.1875
    endloop
  endfacet
  facet normal 0.6435819999071548 -0.6691309606968285 0.3715722901838163
    outer loop
      vertex 71.05329895019531 -14.305537223815918 20.81538200378418
      vertex 73.38534545898438 -11.314866065979004 22.161788940429688
      vertex 68.05329895019531 -14.305537223815918 26.011533737182617
    endloop
  endfacet
  facet normal 0.6435819999071548 -0.6691309606968285 0.3715722901838163
    outer loop
      vertex 73.38534545898438 -11.314866065979004 22.161788940429688
      vertex 70.38534545898438 -11.314866065979004 27.357940673828125
      vertex 68.05329895019531 -14.305537223815918 26.011533737182617
    endloop
  endfacet
  facet normal 0.7500001759172641 -0.49999973606986786 0.43301270195472924
    outer loop
      vertex 70.38534545898438 -11.314866065979004 27.357940673828125
      vertex 75.12793731689453 -7.829679489135742 23.16787338256836
      vertex 72.12793731689453 -7.829679489135742 28.36402702331543
    endloop
  endfacet
  facet normal 0.7500001959577887 -0.4999995583376069 0.4330128724708735
    outer loop
      vertex 75.12793731689453 -7.829679489135742 23.16787338256836
      vertex 70.38534545898438 -11.314866065979004 27.357940673828125
      vertex 73.38534545898438 -11.314866065979004 22.161788940429688
    endloop
  endfacet
  facet normal 0.8236392041419577 -0.30901680841179385 0.4755282047569748
    outer loop
      vertex 72.12793731689453 -7.829679489135742 28.36402702331543
      vertex 76.20491790771484 -4.0022993087768555 23.789669036865234
      vertex 73.20491790771484 -4.0022993087768555 28.985822677612305
    endloop
  endfacet
  facet normal 0.8236392041419577 -0.30901680841179385 0.4755282047569748
    outer loop
      vertex 76.20491790771484 -4.0022993087768555 23.789669036865234
      vertex 72.12793731689453 -7.829679489135742 28.36402702331543
      vertex 75.12793731689453 -7.829679489135742 23.16787338256836
    endloop
  endfacet
  facet normal 0.8612812085625864 -0.10452920944865944 0.497260821047676
    outer loop
      vertex 76.20491790771484 -4.0022993087768555 23.789669036865234
      vertex 76.56922149658203 0 24
      vertex 73.20491790771484 -4.0022993087768555 28.985822677612305
    endloop
  endfacet
  facet normal 0.8612811508598246 -0.10452897506166292 0.4972609702622297
    outer loop
      vertex 76.56922149658203 0 24
      vertex 73.56922149658203 0 29.196151733398438
      vertex 73.20491790771484 -4.0022993087768555 28.985822677612305
    endloop
  endfacet
  facet normal 0.8612811295251019 0.10452920944866617 0.4972609579446202
    outer loop
      vertex 76.56922149658203 0 24
      vertex 76.20491790771484 4.0022993087768555 23.789669036865234
      vertex 73.56922149658203 0 29.196151733398438
    endloop
  endfacet
  facet normal 0.8612812298973053 0.10452897506172075 0.49726083336527876
    outer loop
      vertex 73.56922149658203 0 29.196151733398438
      vertex 76.20491790771484 4.0022993087768555 23.789669036865234
      vertex 73.20491790771484 4.0022993087768555 28.985822677612305
    endloop
  endfacet
  facet normal 0.8236392041419577 0.30901680841179385 0.4755282047569748
    outer loop
      vertex 76.20491790771484 4.0022993087768555 23.789669036865234
      vertex 72.12793731689453 7.829679489135742 28.36402702331543
      vertex 73.20491790771484 4.0022993087768555 28.985822677612305
    endloop
  endfacet
  facet normal 0.8236392041419577 0.30901680841179385 0.4755282047569748
    outer loop
      vertex 72.12793731689453 7.829679489135742 28.36402702331543
      vertex 76.20491790771484 4.0022993087768555 23.789669036865234
      vertex 75.12793731689453 7.829679489135742 23.16787338256836
    endloop
  endfacet
  facet normal 0.7500001759172641 0.49999973606986786 0.43301270195472924
    outer loop
      vertex 75.12793731689453 7.829679489135742 23.16787338256836
      vertex 70.38534545898438 11.314866065979004 27.357940673828125
      vertex 72.12793731689453 7.829679489135742 28.36402702331543
    endloop
  endfacet
  facet normal 0.7500001959577887 0.4999995583376069 0.4330128724708735
    outer loop
      vertex 70.38534545898438 11.314866065979004 27.357940673828125
      vertex 75.12793731689453 7.829679489135742 23.16787338256836
      vertex 73.38534545898438 11.314866065979004 22.161788940429688
    endloop
  endfacet
  facet normal 0.6435819999071548 0.6691309606968285 0.3715722901838163
    outer loop
      vertex 73.38534545898438 11.314866065979004 22.161788940429688
      vertex 71.05329895019531 14.305537223815918 20.81538200378418
      vertex 70.38534545898438 11.314866065979004 27.357940673828125
    endloop
  endfacet
  facet normal 0.6435819999071548 0.6691309606968285 0.3715722901838163
    outer loop
      vertex 70.38534545898438 11.314866065979004 27.357940673828125
      vertex 71.05329895019531 14.305537223815918 20.81538200378418
      vertex 68.05329895019531 14.305537223815918 26.011533737182617
    endloop
  endfacet
  facet normal 0.509037089486842 0.8090168719622995 0.29389273962978557
    outer loop
      vertex 71.05329895019531 14.305537223815918 20.81538200378418
      vertex 65.23372650146484 16.670988082885742 24.383651733398438
      vertex 68.05329895019531 14.305537223815918 26.011533737182617
    endloop
  endfacet
  facet normal 0.509037089486842 0.8090168719622995 0.29389273962978557
    outer loop
      vertex 65.23372650146484 16.670988082885742 24.383651733398438
      vertex 71.05329895019531 14.305537223815918 20.81538200378418
      vertex 68.23372650146484 16.670988082885742 19.1875
    endloop
  endfacet
  facet normal 0.3522444965120037 0.9135453328997525 0.20336848186010842
    outer loop
      vertex 65.23372650146484 16.670988082885742 24.383651733398438
      vertex 68.23372650146484 16.670988082885742 19.1875
      vertex 65.04985046386719 18.307838439941406 17.349288940429688
    endloop
  endfacet
  facet normal 0.3522444965120037 0.9135453328997525 0.20336848186010842
    outer loop
      vertex 65.23372650146484 16.670988082885742 24.383651733398438
      vertex 65.04985046386719 18.307838439941406 17.349288940429688
      vertex 62.04985046386719 18.307838439941406 22.545440673828125
    endloop
  endfacet
  facet normal 0.1800566515559278 0.9781476371728102 0.1039557700357022
    outer loop
      vertex 62.04985046386719 18.307838439941406 22.545440673828125
      vertex 65.04985046386719 18.307838439941406 17.349288940429688
      vertex 61.64082336425781 19.144546508789062 15.381086349487305
    endloop
  endfacet
  facet normal 0.1800566515559278 0.9781476371728102 0.1039557700357022
    outer loop
      vertex 62.04985046386719 18.307838439941406 22.545440673828125
      vertex 61.64082336425781 19.144546508789062 15.381086349487305
      vertex 58.64082336425781 19.144546508789062 20.577238082885742
    endloop
  endfacet
  facet normal 0 1 0
    outer loop
      vertex 61.64082336425781 19.144546508789062 15.381086349487305
      vertex 55.155635833740234 19.144546508789062 18.565065383911133
      vertex 58.64082336425781 19.144546508789062 20.577238082885742
    endloop
  endfacet
  facet normal 0 1 0
    outer loop
      vertex 55.155635833740234 19.144546508789062 18.565065383911133
      vertex 61.64082336425781 19.144546508789062 15.381086349487305
      vertex 58.155635833740234 19.144546508789062 13.368912696838379
    endloop
  endfacet
  facet normal -0.18005680439793245 0.9781476016871462 -0.10395583919957935
    outer loop
      vertex 58.155635833740234 19.144546508789062 13.368912696838379
      vertex 51.746612548828125 18.307838439941406 16.59686279296875
      vertex 55.155635833740234 19.144546508789062 18.565065383911133
    endloop
  endfacet
  facet normal -0.18005681700465206 0.9781475965652257 -0.10395586555758038
    outer loop
      vertex 51.746612548828125 18.307838439941406 16.59686279296875
      vertex 58.155635833740234 19.144546508789062 13.368912696838379
      vertex 54.746612548828125 18.307838439941406 11.400711059570312
    endloop
  endfacet
  facet normal -0.3522444965120037 0.9135453328997525 -0.20336848186010842
    outer loop
      vertex 51.746612548828125 18.307838439941406 16.59686279296875
      vertex 54.746612548828125 18.307838439941406 11.400711059570312
      vertex 51.56273651123047 16.670988082885742 9.5625
    endloop
  endfacet
  facet normal -0.3522444965120037 0.9135453328997525 -0.20336848186010842
    outer loop
      vertex 51.746612548828125 18.307838439941406 16.59686279296875
      vertex 51.56273651123047 16.670988082885742 9.5625
      vertex 48.56273651123047 16.670988082885742 14.758651733398438
    endloop
  endfacet
  facet normal -0.5090364506647961 0.8090174078947975 -0.29389237080565644
    outer loop
      vertex 51.56273651123047 16.670988082885742 9.5625
      vertex 46.570945739746094 15 13.608692169189453
      vertex 48.56273651123047 16.670988082885742 14.758651733398438
    endloop
  endfacet
  facet normal -0.5090364506647961 0.8090174078947975 -0.29389237080565644
    outer loop
      vertex 46.570945739746094 15 13.608692169189453
      vertex 51.56273651123047 16.670988082885742 9.5625
      vertex 49.570945739746094 15 8.412540435791016
    endloop
  endfacet
  facet normal -0.5090364506647961 -0.8090174078947975 -0.29389237080565644
    outer loop
      vertex 46.570945739746094 -15 13.608692169189453
      vertex 51.56273651123047 -16.670988082885742 9.5625
      vertex 48.56273651123047 -16.670988082885742 14.758651733398438
    endloop
  endfacet
  facet normal -0.5090364506647961 -0.8090174078947975 -0.29389237080565644
    outer loop
      vertex 51.56273651123047 -16.670988082885742 9.5625
      vertex 46.570945739746094 -15 13.608692169189453
      vertex 49.570945739746094 -15 8.412540435791016
    endloop
  endfacet
  facet normal -0.3522444965120037 -0.9135453328997525 -0.20336848186010842
    outer loop
      vertex 51.56273651123047 -16.670988082885742 9.5625
      vertex 54.746612548828125 -18.307838439941406 11.400711059570312
      vertex 48.56273651123047 -16.670988082885742 14.758651733398438
    endloop
  endfacet
  facet normal -0.3522444965120037 -0.9135453328997525 -0.20336848186010842
    outer loop
      vertex 54.746612548828125 -18.307838439941406 11.400711059570312
      vertex 51.746612548828125 -18.307838439941406 16.59686279296875
      vertex 48.56273651123047 -16.670988082885742 14.758651733398438
    endloop
  endfacet
  facet normal -0.18005680439793245 -0.9781476016871462 -0.10395583919957935
    outer loop
      vertex 51.746612548828125 -18.307838439941406 16.59686279296875
      vertex 58.155635833740234 -19.144546508789062 13.368912696838379
      vertex 55.155635833740234 -19.144546508789062 18.565065383911133
    endloop
  endfacet
  facet normal -0.18005681700465206 -0.9781475965652257 -0.10395586555758038
    outer loop
      vertex 58.155635833740234 -19.144546508789062 13.368912696838379
      vertex 51.746612548828125 -18.307838439941406 16.59686279296875
      vertex 54.746612548828125 -18.307838439941406 11.400711059570312
    endloop
  endfacet
  facet normal 0 -1 0
    outer loop
      vertex 55.155635833740234 -19.144546508789062 18.565065383911133
      vertex 61.64082336425781 -19.144546508789062 15.381086349487305
      vertex 58.64082336425781 -19.144546508789062 20.577238082885742
    endloop
  endfacet
  facet normal 0 -1 0
    outer loop
      vertex 61.64082336425781 -19.144546508789062 15.381086349487305
      vertex 55.155635833740234 -19.144546508789062 18.565065383911133
      vertex 58.155635833740234 -19.144546508789062 13.368912696838379
    endloop
  endfacet
  facet normal 0.1800566515559278 -0.9781476371728102 0.1039557700357022
    outer loop
      vertex 61.64082336425781 -19.144546508789062 15.381086349487305
      vertex 65.04985046386719 -18.307838439941406 17.349288940429688
      vertex 58.64082336425781 -19.144546508789062 20.577238082885742
    endloop
  endfacet
  facet normal 0.1800566515559278 -0.9781476371728102 0.1039557700357022
    outer loop
      vertex 65.04985046386719 -18.307838439941406 17.349288940429688
      vertex 62.04985046386719 -18.307838439941406 22.545440673828125
      vertex 58.64082336425781 -19.144546508789062 20.577238082885742
    endloop
  endfacet
  facet normal 0.1800571214752488 0.9781475238638819 0.10395602226424398
    outer loop
      vertex 58.19184875488281 -18.74673843383789 13.389819145202637
      vertex 54.85365676879883 -17.927413940429688 11.46251392364502
      vertex 51.85365676879883 -17.927413940429688 16.658666610717773
    endloop
  endfacet
  facet normal 0.1800571214752488 0.9781475238638819 0.10395602226424398
    outer loop
      vertex 55.19184875488281 -18.74673843383789 18.58597183227539
      vertex 58.19184875488281 -18.74673843383789 13.389819145202637
      vertex 51.85365676879883 -17.927413940429688 16.658666610717773
    endloop
  endfacet
  facet normal 0.35224426603243625 0.9135454596998046 0.2033683114675019
    outer loop
      vertex 54.85365676879883 -17.927413940429688 11.46251392364502
      vertex 48.735939025878906 -16.32457733154297 14.858652114868164
      vertex 51.85365676879883 -17.927413940429688 16.658666610717773
    endloop
  endfacet
  facet normal 0.35224426603243625 0.9135454596998046 0.2033683114675019
    outer loop
      vertex 48.735939025878906 -16.32457733154297 14.858652114868164
      vertex 54.85365676879883 -17.927413940429688 11.46251392364502
      vertex 51.735939025878906 -16.32457733154297 9.66249942779541
    endloop
  endfacet
  facet normal 0.5090367244700362 0.8090171977837767 0.2938924749477299
    outer loop
      vertex 51.735939025878906 -16.32457733154297 9.66249942779541
      vertex 45.974952697753906 -14.008279800415039 13.264595985412598
      vertex 48.735939025878906 -16.32457733154297 14.858652114868164
    endloop
  endfacet
  facet normal 0.5090367244700362 0.8090171977837767 0.2938924749477299
    outer loop
      vertex 45.974952697753906 -14.008279800415039 13.264595985412598
      vertex 51.735939025878906 -16.32457733154297 9.66249942779541
      vertex 48.974952697753906 -14.008279800415039 8.068443298339844
    endloop
  endfacet
  facet normal 0.6435824736444045 0.6691303910344064 0.3715724954997228
    outer loop
      vertex 48.974952697753906 -14.008279800415039 8.068443298339844
      vertex 43.691368103027344 -11.079751968383789 11.9461669921875
      vertex 45.974952697753906 -14.008279800415039 13.264595985412598
    endloop
  endfacet
  facet normal 0.6435824736444045 0.6691303910344064 0.3715724954997228
    outer loop
      vertex 43.691368103027344 -11.079751968383789 11.9461669921875
      vertex 48.974952697753906 -14.008279800415039 8.068443298339844
      vertex 46.691368103027344 -11.079751968383789 6.750014305114746
    endloop
  endfacet
  facet normal 0.7500000469997605 0.4999999250794526 0.4330127069970333
    outer loop
      vertex 46.691368103027344 -11.079751968383789 6.750014305114746
      vertex 41.9849853515625 -7.666985511779785 10.960986137390137
      vertex 43.691368103027344 -11.079751968383789 11.9461669921875
    endloop
  endfacet
  facet normal 0.7500000469997605 0.4999999250794526 0.4330127069970333
    outer loop
      vertex 41.9849853515625 -7.666985511779785 10.960986137390137
      vertex 46.691368103027344 -11.079751968383789 6.750014305114746
      vertex 44.9849853515625 -7.666985511779785 5.764833450317383
    endloop
  endfacet
  facet normal 0.8236390684070105 0.3090171564832175 0.47552821366629616
    outer loop
      vertex 44.9849853515625 -7.666985511779785 5.764833450317383
      vertex 40.930381774902344 -3.919135093688965 10.352110862731934
      vertex 41.9849853515625 -7.666985511779785 10.960986137390137
    endloop
  endfacet
  facet normal 0.8236390684070105 0.3090171564832175 0.47552821366629616
    outer loop
      vertex 40.930381774902344 -3.919135093688965 10.352110862731934
      vertex 44.9849853515625 -7.666985511779785 5.764833450317383
      vertex 43.930381774902344 -3.919135093688965 5.15595817565918
    endloop
  endfacet
  facet normal 0.8612812041535467 0.10452863815562376 0.4972609487755371
    outer loop
      vertex 43.930381774902344 -3.919135093688965 5.15595817565918
      vertex 43.591854095458984 -0.19999980926513672 4.96051025390625
      vertex 40.74494934082031 -0.19999980926513672 9.891493797302246
    endloop
  endfacet
  facet normal 0.8612807492737417 0.10452876427182246 0.49726171013890463
    outer loop
      vertex 40.930381774902344 -3.919135093688965 10.352110862731934
      vertex 40.74494934082031 -0.19999980926513672 9.891493797302246
      vertex 40.591854095458984 -0.19999980926513672 10.156661987304688
    endloop
  endfacet
  facet normal 0.8612812163886224 0.10452868931002424 0.49726091683065465
    outer loop
      vertex 40.74494934082031 -0.19999980926513672 9.891493797302246
      vertex 40.930381774902344 -3.919135093688965 10.352110862731934
      vertex 43.930381774902344 -3.919135093688965 5.15595817565918
    endloop
  endfacet
  facet normal 0.8612812937535858 -0.10452783935820946 0.49726096149733473
    outer loop
      vertex 43.43876266479492 0.19999980926513672 5.225678443908691
      vertex 43.930381774902344 3.919135093688965 5.15595817565918
      vertex 40.930381774902344 3.919135093688965 10.352110862731934
    endloop
  endfacet
  facet normal 0.8612861259191188 -0.10452863815312245 0.49725242393083346
    outer loop
      vertex 43.930381774902344 3.919135093688965 5.15595817565918
      vertex 43.43876266479492 0.19999980926513672 5.225678443908691
      vertex 43.591854095458984 0.19999980926513672 4.96051025390625
    endloop
  endfacet
  facet normal 0.8612809041565215 -0.10452876427185877 0.49726144187451643
    outer loop
      vertex 43.43876266479492 0.19999980926513672 5.225678443908691
      vertex 40.930381774902344 3.919135093688965 10.352110862731934
      vertex 40.591854095458984 0.19999980926513672 10.156661987304688
    endloop
  endfacet
  facet normal 0.8236390684070105 -0.3090171564832175 0.47552821366629616
    outer loop
      vertex 40.930381774902344 3.919135093688965 10.352110862731934
      vertex 44.9849853515625 7.666985511779785 5.764833450317383
      vertex 41.9849853515625 7.666985511779785 10.960986137390137
    endloop
  endfacet
  facet normal 0.8236390684070105 -0.3090171564832175 0.47552821366629616
    outer loop
      vertex 44.9849853515625 7.666985511779785 5.764833450317383
      vertex 40.930381774902344 3.919135093688965 10.352110862731934
      vertex 43.930381774902344 3.919135093688965 5.15595817565918
    endloop
  endfacet
  facet normal 0.7500000469997605 -0.4999999250794526 0.4330127069970333
    outer loop
      vertex 41.9849853515625 7.666985511779785 10.960986137390137
      vertex 46.691368103027344 11.079751968383789 6.750014305114746
      vertex 43.691368103027344 11.079751968383789 11.9461669921875
    endloop
  endfacet
  facet normal 0.7500000469997605 -0.4999999250794526 0.4330127069970333
    outer loop
      vertex 46.691368103027344 11.079751968383789 6.750014305114746
      vertex 41.9849853515625 7.666985511779785 10.960986137390137
      vertex 44.9849853515625 7.666985511779785 5.764833450317383
    endloop
  endfacet
  facet normal 0.6435824736444045 -0.6691303910344064 0.3715724954997228
    outer loop
      vertex 43.691368103027344 11.079751968383789 11.9461669921875
      vertex 48.974952697753906 14.008279800415039 8.068443298339844
      vertex 45.974952697753906 14.008279800415039 13.264595985412598
    endloop
  endfacet
  facet normal 0.6435824736444045 -0.6691303910344064 0.3715724954997228
    outer loop
      vertex 48.974952697753906 14.008279800415039 8.068443298339844
      vertex 43.691368103027344 11.079751968383789 11.9461669921875
      vertex 46.691368103027344 11.079751968383789 6.750014305114746
    endloop
  endfacet
  facet normal 0.5090367244700362 -0.8090171977837767 0.2938924749477299
    outer loop
      vertex 45.974952697753906 14.008279800415039 13.264595985412598
      vertex 51.735939025878906 16.32457733154297 9.66249942779541
      vertex 48.735939025878906 16.32457733154297 14.858652114868164
    endloop
  endfacet
  facet normal 0.5090367244700362 -0.8090171977837767 0.2938924749477299
    outer loop
      vertex 51.735939025878906 16.32457733154297 9.66249942779541
      vertex 45.974952697753906 14.008279800415039 13.264595985412598
      vertex 48.974952697753906 14.008279800415039 8.068443298339844
    endloop
  endfacet
  facet normal 0.35224426603243625 -0.9135454596998046 0.2033683114675019
    outer loop
      vertex 48.735939025878906 16.32457733154297 14.858652114868164
      vertex 54.85365676879883 17.927413940429688 11.46251392364502
      vertex 51.85365676879883 17.927413940429688 16.658666610717773
    endloop
  endfacet
  facet normal 0.35224426603243625 -0.9135454596998046 0.2033683114675019
    outer loop
      vertex 54.85365676879883 17.927413940429688 11.46251392364502
      vertex 48.735939025878906 16.32457733154297 14.858652114868164
      vertex 51.735939025878906 16.32457733154297 9.66249942779541
    endloop
  endfacet
  facet normal 0.1800571214752488 -0.9781475238638819 0.10395602226424398
    outer loop
      vertex 58.19184875488281 18.74673843383789 13.389819145202637
      vertex 55.19184875488281 18.74673843383789 18.58597183227539
      vertex 54.85365676879883 17.927413940429688 11.46251392364502
    endloop
  endfacet
  facet normal 0.1800571214752488 -0.9781475238638819 0.10395602226424398
    outer loop
      vertex 54.85365676879883 17.927413940429688 11.46251392364502
      vertex 55.19184875488281 18.74673843383789 18.58597183227539
      vertex 51.85365676879883 17.927413940429688 16.658666610717773
    endloop
  endfacet
  facet normal 0 -1 0
    outer loop
      vertex 55.19184875488281 18.74673843383789 18.58597183227539
      vertex 61.6046142578125 18.74673843383789 15.360179901123047
      vertex 58.6046142578125 18.74673843383789 20.556331634521484
    endloop
  endfacet
  facet normal 0 -1 0
    outer loop
      vertex 61.6046142578125 18.74673843383789 15.360179901123047
      vertex 55.19184875488281 18.74673843383789 18.58597183227539
      vertex 58.19184875488281 18.74673843383789 13.389819145202637
    endloop
  endfacet
  facet normal -0.18005726086219548 -0.9781474876250412 -0.10395612181888654
    outer loop
      vertex 64.94280242919922 17.927413940429688 17.287485122680664
      vertex 61.94280242919922 17.927413940429688 22.4836368560791
      vertex 61.6046142578125 18.74673843383789 15.360179901123047
    endloop
  endfacet
  facet normal -0.18005726086219548 -0.9781474876250412 -0.10395612181888654
    outer loop
      vertex 61.6046142578125 18.74673843383789 15.360179901123047
      vertex 61.94280242919922 17.927413940429688 22.4836368560791
      vertex 58.6046142578125 18.74673843383789 20.556331634521484
    endloop
  endfacet
  facet normal -0.3522445519619204 -0.913545321010854 -0.203368439223793
    outer loop
      vertex 68.06051635742188 16.32457733154297 19.087499618530273
      vertex 65.06051635742188 16.32457733154297 24.283653259277344
      vertex 64.94280242919922 17.927413940429688 17.287485122680664
    endloop
  endfacet
  facet normal -0.3522444417622318 -0.9135453610469495 -0.2033684502503087
    outer loop
      vertex 64.94280242919922 17.927413940429688 17.287485122680664
      vertex 65.06051635742188 16.32457733154297 24.283653259277344
      vertex 61.94280242919922 17.927413940429688 22.4836368560791
    endloop
  endfacet
  facet normal -0.5090366512823884 -0.8090172395890582 -0.2938924866322928
    outer loop
      vertex 68.06051635742188 16.32457733154297 19.087499618530273
      vertex 70.82150268554688 14.008279800415039 20.681556701660156
      vertex 67.82150268554688 14.008279800415039 25.877708435058594
    endloop
  endfacet
  facet normal -0.5090367976576745 -0.8090171559784926 -0.29389246326316576
    outer loop
      vertex 68.06051635742188 16.32457733154297 19.087499618530273
      vertex 67.82150268554688 14.008279800415039 25.877708435058594
      vertex 65.06051635742188 16.32457733154297 24.283653259277344
    endloop
  endfacet
  facet normal -0.643581774185659 -0.669131250167307 -0.37157215986343267
    outer loop
      vertex 70.82150268554688 14.008279800415039 20.681556701660156
      vertex 73.10509490966797 11.079751968383789 21.999984741210938
      vertex 70.10509490966797 11.079751968383789 27.196136474609375
    endloop
  endfacet
  facet normal -0.643581774185659 -0.669131250167307 -0.37157215986343267
    outer loop
      vertex 70.82150268554688 14.008279800415039 20.681556701660156
      vertex 70.10509490966797 11.079751968383789 27.196136474609375
      vertex 67.82150268554688 14.008279800415039 25.877708435058594
    endloop
  endfacet
  facet normal -0.7500000579629131 -0.49999983432759004 -0.4330127927994844
    outer loop
      vertex 74.81147766113281 7.666985511779785 22.985164642333984
      vertex 70.10509490966797 11.079751968383789 27.196136474609375
      vertex 73.10509490966797 11.079751968383789 21.999984741210938
    endloop
  endfacet
  facet normal -0.7500000360366005 -0.5000000158312714 -0.43301262119460937
    outer loop
      vertex 70.10509490966797 11.079751968383789 27.196136474609375
      vertex 74.81147766113281 7.666985511779785 22.985164642333984
      vertex 71.81147766113281 7.666985511779785 28.181318283081055
    endloop
  endfacet
  facet normal -0.823639532938723 -0.3090156399297644 -0.47552839458783136
    outer loop
      vertex 75.86607360839844 3.919135093688965 23.594039916992188
      vertex 71.81147766113281 7.666985511779785 28.181318283081055
      vertex 74.81147766113281 7.666985511779785 22.985164642333984
    endloop
  endfacet
  facet normal -0.823639532938723 -0.3090156399297644 -0.47552839458783136
    outer loop
      vertex 71.81147766113281 7.666985511779785 28.181318283081055
      vertex 75.86607360839844 3.919135093688965 23.594039916992188
      vertex 72.86607360839844 3.919135093688965 28.790193557739258
    endloop
  endfacet
  facet normal -0.8612811911700899 -0.10452940052526283 -0.4972608110061159
    outer loop
      vertex 76.22280883789062 0 23.799999237060547
      vertex 72.86607360839844 3.919135093688965 28.790193557739258
      vertex 75.86607360839844 3.919135093688965 23.594039916992188
    endloop
  endfacet
  facet normal -0.8612811339200985 -0.1045291611645077 -0.497260960482073
    outer loop
      vertex 72.86607360839844 3.919135093688965 28.790193557739258
      vertex 76.22280883789062 0 23.799999237060547
      vertex 73.22280883789062 0 28.996150970458984
    endloop
  endfacet
  facet normal -0.8612811911700899 0.10452940052526283 -0.4972608110061159
    outer loop
      vertex 72.86607360839844 -3.919135093688965 28.790193557739258
      vertex 76.22280883789062 0 23.799999237060547
      vertex 75.86607360839844 -3.919135093688965 23.594039916992188
    endloop
  endfacet
  facet normal -0.8612811339200985 0.1045291611645077 -0.497260960482073
    outer loop
      vertex 76.22280883789062 0 23.799999237060547
      vertex 72.86607360839844 -3.919135093688965 28.790193557739258
      vertex 73.22280883789062 0 28.996150970458984
    endloop
  endfacet
  facet normal -0.823639532938723 0.3090156399297644 -0.47552839458783136
    outer loop
      vertex 71.81147766113281 -7.666985511779785 28.181318283081055
      vertex 75.86607360839844 -3.919135093688965 23.594039916992188
      vertex 74.81147766113281 -7.666985511779785 22.985164642333984
    endloop
  endfacet
  facet normal -0.823639532938723 0.3090156399297644 -0.47552839458783136
    outer loop
      vertex 75.86607360839844 -3.919135093688965 23.594039916992188
      vertex 71.81147766113281 -7.666985511779785 28.181318283081055
      vertex 72.86607360839844 -3.919135093688965 28.790193557739258
    endloop
  endfacet
  facet normal -0.7500000579629131 0.49999983432759004 -0.4330127927994844
    outer loop
      vertex 70.10509490966797 -11.079751968383789 27.196136474609375
      vertex 74.81147766113281 -7.666985511779785 22.985164642333984
      vertex 73.10509490966797 -11.079751968383789 21.999984741210938
    endloop
  endfacet
  facet normal -0.7500000360366005 0.5000000158312714 -0.43301262119460937
    outer loop
      vertex 74.81147766113281 -7.666985511779785 22.985164642333984
      vertex 70.10509490966797 -11.079751968383789 27.196136474609375
      vertex 71.81147766113281 -7.666985511779785 28.181318283081055
    endloop
  endfacet
  facet normal -0.643581774185659 0.669131250167307 -0.37157215986343267
    outer loop
      vertex 73.10509490966797 -11.079751968383789 21.999984741210938
      vertex 70.82150268554688 -14.008279800415039 20.681556701660156
      vertex 67.82150268554688 -14.008279800415039 25.877708435058594
    endloop
  endfacet
  facet normal -0.643581774185659 0.669131250167307 -0.37157215986343267
    outer loop
      vertex 70.10509490966797 -11.079751968383789 27.196136474609375
      vertex 73.10509490966797 -11.079751968383789 21.999984741210938
      vertex 67.82150268554688 -14.008279800415039 25.877708435058594
    endloop
  endfacet
  facet normal -0.509036697995345 0.8090172395890466 -0.29389240572310654
    outer loop
      vertex 70.82150268554688 -14.008279800415039 20.681556701660156
      vertex 68.06051635742188 -16.32457733154297 19.087499618530273
      vertex 65.06051635742188 -16.32457733154297 24.283653259277344
    endloop
  endfacet
  facet normal -0.5090367509447362 0.8090171559784812 -0.29389254417238375
    outer loop
      vertex 67.82150268554688 -14.008279800415039 25.877708435058594
      vertex 70.82150268554688 -14.008279800415039 20.681556701660156
      vertex 65.06051635742188 -16.32457733154297 24.283653259277344
    endloop
  endfacet
  facet normal -0.3522445196373574 0.9135453210108633 -0.2033684952115394
    outer loop
      vertex 68.06051635742188 -16.32457733154297 19.087499618530273
      vertex 64.94280242919922 -17.927413940429688 17.287485122680664
      vertex 61.94280242919922 -17.927413940429688 22.4836368560791
    endloop
  endfacet
  facet normal -0.3522444740868091 0.9135453610469292 -0.20336839426258702
    outer loop
      vertex 65.06051635742188 -16.32457733154297 24.283653259277344
      vertex 68.06051635742188 -16.32457733154297 19.087499618530273
      vertex 61.94280242919922 -17.927413940429688 22.4836368560791
    endloop
  endfacet
  facet normal -0.18005726086219548 0.9781474876250412 -0.10395612181888654
    outer loop
      vertex 64.94280242919922 -17.927413940429688 17.287485122680664
      vertex 61.6046142578125 -18.74673843383789 15.360179901123047
      vertex 58.6046142578125 -18.74673843383789 20.556331634521484
    endloop
  endfacet
  facet normal -0.18005726086219548 0.9781474876250412 -0.10395612181888654
    outer loop
      vertex 61.94280242919922 -17.927413940429688 22.4836368560791
      vertex 64.94280242919922 -17.927413940429688 17.287485122680664
      vertex 58.6046142578125 -18.74673843383789 20.556331634521484
    endloop
  endfacet
  facet normal 0 1 0
    outer loop
      vertex 61.6046142578125 -18.74673843383789 15.360179901123047
      vertex 55.19184875488281 -18.74673843383789 18.58597183227539
      vertex 58.6046142578125 -18.74673843383789 20.556331634521484
    endloop
  endfacet
  facet normal 0 1 0
    outer loop
      vertex 55.19184875488281 -18.74673843383789 18.58597183227539
      vertex 61.6046142578125 -18.74673843383789 15.360179901123047
      vertex 58.19184875488281 -18.74673843383789 13.389819145202637
    endloop
  endfacet
  facet normal 0.500001976520886 0.0000022701325647222985 -0.8660242626335904
    outer loop
      vertex 73.38534545898438 11.314866065979004 22.161788940429688
      vertex 73.10509490966797 11.079751968383789 21.999984741210938
      vertex 71.05329895019531 14.305537223815918 20.81538200378418
    endloop
  endfacet
  facet normal 0.49999756590388444 -0.000004268136082069246 -0.8660268090954076
    outer loop
      vertex 71.05329895019531 14.305537223815918 20.81538200378418
      vertex 70.82150268554688 14.008279800415039 20.681556701660156
      vertex 68.23372650146484 16.670988082885742 19.1875
    endloop
  endfacet
  facet normal 0.49999794897060773 -0.000004987162015821301 -0.8660265879292124
    outer loop
      vertex 68.23372650146484 16.670988082885742 19.1875
      vertex 68.06051635742188 16.32457733154297 19.087499618530273
      vertex 65.04985046386719 18.307838439941406 17.349288940429688
    endloop
  endfacet
  facet normal 0.49999513354964153 -0.0000019661646204612144 -0.8660282134104005
    outer loop
      vertex 76.20491790771484 4.0022993087768555 23.789669036865234
      vertex 75.86607360839844 3.919135093688965 23.594039916992188
      vertex 75.12793731689453 7.829679489135742 23.16787338256836
    endloop
  endfacet
  facet normal 0.49999994292001315 0.0000024255903253387993 -0.866025436736185
    outer loop
      vertex 61.64082336425781 19.144546508789062 15.381086349487305
      vertex 61.6046142578125 18.74673843383789 15.360179901123047
      vertex 58.155635833740234 19.144546508789062 13.368912696838379
    endloop
  endfacet
  facet normal 0.5000005313539466 -0.0000017467112993072156 -0.8660250970051157
    outer loop
      vertex 54.746612548828125 18.307838439941406 11.400711059570312
      vertex 54.85365676879883 17.927413940429688 11.46251392364502
      vertex 51.735939025878906 16.32457733154297 9.66249942779541
    endloop
  endfacet
  facet normal 0.5000000441573234 3.088735655117738e-7 -0.8660253782901396
    outer loop
      vertex 49.570945739746094 15 8.412540435791016
      vertex 48.974952697753906 14.008279800415039 8.068443298339844
      vertex 35 15 0
    endloop
  endfacet
  facet normal 0.4999995297737057 7.210449799535234e-7 -0.8660256752692459
    outer loop
      vertex 49.570945739746094 15 8.412540435791016
      vertex 51.735939025878906 16.32457733154297 9.66249942779541
      vertex 48.974952697753906 14.008279800415039 8.068443298339844
    endloop
  endfacet
  facet normal 0.5000009890419778 -0.000001016217204619475 -0.8660248327594373
    outer loop
      vertex 74.81147766113281 -7.666985511779785 22.985164642333984
      vertex 75.12793731689453 -7.829679489135742 23.16787338256836
      vertex 73.38534545898438 -11.314866065979004 22.161788940429688
    endloop
  endfacet
  facet normal 0.5000023267473044 -0.0000017135156972597734 -0.8660240604303935
    outer loop
      vertex 74.81147766113281 -7.666985511779785 22.985164642333984
      vertex 73.38534545898438 -11.314866065979004 22.161788940429688
      vertex 73.10509490966797 -11.079751968383789 21.999984741210938
    endloop
  endfacet
  facet normal 0.5000000441573234 -3.088735655117738e-7 -0.8660253782901396
    outer loop
      vertex 48.974952697753906 -14.008279800415039 8.068443298339844
      vertex 49.570945739746094 -15 8.412540435791016
      vertex 35 -15 0
    endloop
  endfacet
  facet normal 0.49999941608354576 -0.0000023051106018086784 -0.8660257409054304
    outer loop
      vertex 58.19184875488281 -18.74673843383789 13.389819145202637
      vertex 58.155635833740234 -19.144546508789062 13.368912696838379
      vertex 54.85365676879883 -17.927413940429688 11.46251392364502
    endloop
  endfacet
  facet normal 0.5000005357731446 0.0000017450533224549127 -0.8660250944536901
    outer loop
      vertex 54.85365676879883 -17.927413940429688 11.46251392364502
      vertex 58.155635833740234 -19.144546508789062 13.368912696838379
      vertex 54.746612548828125 -18.307838439941406 11.400711059570312
    endloop
  endfacet
  facet normal 0.4999998237397341 8.305321546585261e-7 -0.8660255055479285
    outer loop
      vertex 64.94280242919922 -17.927413940429688 17.287485122680664
      vertex 65.04985046386719 -18.307838439941406 17.349288940429688
      vertex 61.64082336425781 -19.144546508789062 15.381086349487305
    endloop
  endfacet
  facet normal 0.49999794897060773 0.000004987162015821301 -0.8660265879292124
    outer loop
      vertex 68.06051635742188 -16.32457733154297 19.087499618530273
      vertex 68.23372650146484 -16.670988082885742 19.1875
      vertex 65.04985046386719 -18.307838439941406 17.349288940429688
    endloop
  endfacet
  facet normal 0.49999994292001315 -0.0000024255903253387993 -0.866025436736185
    outer loop
      vertex 61.6046142578125 -18.74673843383789 15.360179901123047
      vertex 61.64082336425781 -19.144546508789062 15.381086349487305
      vertex 58.155635833740234 -19.144546508789062 13.368912696838379
    endloop
  endfacet
  facet normal 0.5000005313539466 0.0000017467112993072156 -0.8660250970051157
    outer loop
      vertex 54.85365676879883 -17.927413940429688 11.46251392364502
      vertex 54.746612548828125 -18.307838439941406 11.400711059570312
      vertex 51.735939025878906 -16.32457733154297 9.66249942779541
    endloop
  endfacet
  facet normal 0.5000006920751768 0.0000018119656333458284 -0.8660250042123848
    outer loop
      vertex 51.735939025878906 -16.32457733154297 9.66249942779541
      vertex 51.56273651123047 -16.670988082885742 9.5625
      vertex 49.570945739746094 -15 8.412540435791016
    endloop
  endfacet
  facet normal 0.5000005954261906 0.0000018763973610295439 -0.8660250600126614
    outer loop
      vertex 51.735939025878906 -16.32457733154297 9.66249942779541
      vertex 54.746612548828125 -18.307838439941406 11.400711059570312
      vertex 51.56273651123047 -16.670988082885742 9.5625
    endloop
  endfacet
  facet normal 0.4999995297737057 -7.210449799535234e-7 -0.8660256752692459
    outer loop
      vertex 51.735939025878906 -16.32457733154297 9.66249942779541
      vertex 49.570945739746094 -15 8.412540435791016
      vertex 48.974952697753906 -14.008279800415039 8.068443298339844
    endloop
  endfacet
  facet normal 0.5000000383858928 -2.0043482616541358e-7 -0.8660253816223089
    outer loop
      vertex 46.691368103027344 -11.079751968383789 6.750014305114746
      vertex 48.974952697753906 -14.008279800415039 8.068443298339844
      vertex 35 -15 0
    endloop
  endfacet
  facet normal 0.5000000068614305 -7.508078646647665e-8 -0.8660253998229867
    outer loop
      vertex 44.9849853515625 -7.666985511779785 5.764833450317383
      vertex 46.691368103027344 -11.079751968383789 6.750014305114746
      vertex 35 -15 0
    endloop
  endfacet
  facet normal 0.4999999308878137 6.285165119375248e-8 -0.8660254436863721
    outer loop
      vertex 43.930381774902344 -3.919135093688965 5.15595817565918
      vertex 44.9849853515625 -7.666985511779785 5.764833450317383
      vertex 35 -15 0
    endloop
  endfacet
  facet normal 0.5000033467463707 6.681628526713291e-7 -0.8660234715306404
    outer loop
      vertex 43.930381774902344 -3.919135093688965 5.15595817565918
      vertex 43.45933532714844 -0.19999980926513672 4.883999824523926
      vertex 43.591854095458984 -0.19999980926513672 4.96051025390625
    endloop
  endfacet
  facet normal 0.49999990799643884 8.74500554752882e-8 -0.8660254569027085
    outer loop
      vertex 43.45933532714844 -0.19999980926513672 4.883999824523926
      vertex 43.930381774902344 -3.919135093688965 5.15595817565918
      vertex 35 -15 0
    endloop
  endfacet
  facet normal 0.500000022744893 0 -0.8660253906526681
    outer loop
      vertex 35 15 0
      vertex 43.45933532714844 0.19999980926513672 4.883999824523926
      vertex 35 0.19999980926513672 0
    endloop
  endfacet
  facet normal 0.500000022744893 0 -0.8660253906526681
    outer loop
      vertex 35 -0.19999980926513672 0
      vertex 43.45933532714844 -0.19999980926513672 4.883999824523926
      vertex 35 -15 0
    endloop
  endfacet
  facet normal 0.5000033467463707 -6.681628526713291e-7 -0.8660234715306404
    outer loop
      vertex 43.45933532714844 0.19999980926513672 4.883999824523926
      vertex 43.930381774902344 3.919135093688965 5.15595817565918
      vertex 43.591854095458984 0.19999980926513672 4.96051025390625
    endloop
  endfacet
  facet normal 0.49999990799643884 -8.74500554752882e-8 -0.8660254569027085
    outer loop
      vertex 43.930381774902344 3.919135093688965 5.15595817565918
      vertex 43.45933532714844 0.19999980926513672 4.883999824523926
      vertex 35 15 0
    endloop
  endfacet
  facet normal 0.4999999308878137 -6.285165119375248e-8 -0.8660254436863721
    outer loop
      vertex 44.9849853515625 7.666985511779785 5.764833450317383
      vertex 43.930381774902344 3.919135093688965 5.15595817565918
      vertex 35 15 0
    endloop
  endfacet
  facet normal 0.5000000383858928 2.0043482616541358e-7 -0.8660253816223089
    outer loop
      vertex 48.974952697753906 14.008279800415039 8.068443298339844
      vertex 46.691368103027344 11.079751968383789 6.750014305114746
      vertex 35 15 0
    endloop
  endfacet
  facet normal 0.5000000068614305 7.508078646647665e-8 -0.8660253998229867
    outer loop
      vertex 46.691368103027344 11.079751968383789 6.750014305114746
      vertex 44.9849853515625 7.666985511779785 5.764833450317383
      vertex 35 15 0
    endloop
  endfacet
  facet normal 0.5000006920751768 -0.0000018119656333458284 -0.8660250042123848
    outer loop
      vertex 51.56273651123047 16.670988082885742 9.5625
      vertex 51.735939025878906 16.32457733154297 9.66249942779541
      vertex 49.570945739746094 15 8.412540435791016
    endloop
  endfacet
  facet normal 0.5000005954261906 -0.0000018763973610295439 -0.8660250600126614
    outer loop
      vertex 54.746612548828125 18.307838439941406 11.400711059570312
      vertex 51.735939025878906 16.32457733154297 9.66249942779541
      vertex 51.56273651123047 16.670988082885742 9.5625
    endloop
  endfacet
  facet normal 0.5000005357731446 -0.0000017450533224549127 -0.8660250944536901
    outer loop
      vertex 58.155635833740234 19.144546508789062 13.368912696838379
      vertex 54.85365676879883 17.927413940429688 11.46251392364502
      vertex 54.746612548828125 18.307838439941406 11.400711059570312
    endloop
  endfacet
  facet normal 0.4999999379775162 0.000002368454572104753 -0.8660254395898948
    outer loop
      vertex 61.6046142578125 18.74673843383789 15.360179901123047
      vertex 58.19184875488281 18.74673843383789 13.389819145202637
      vertex 58.155635833740234 19.144546508789062 13.368912696838379
    endloop
  endfacet
  facet normal 0.49999941608354576 0.0000023051106018086784 -0.8660257409054304
    outer loop
      vertex 58.155635833740234 19.144546508789062 13.368912696838379
      vertex 58.19184875488281 18.74673843383789 13.389819145202637
      vertex 54.85365676879883 17.927413940429688 11.46251392364502
    endloop
  endfacet
  facet normal 0.5000006985576233 0.0000023338833614244036 -0.8660250004684863
    outer loop
      vertex 61.64082336425781 19.144546508789062 15.381086349487305
      vertex 64.94280242919922 17.927413940429688 17.287485122680664
      vertex 61.6046142578125 18.74673843383789 15.360179901123047
    endloop
  endfacet
  facet normal 0.49999997462756257 -8.871433746484908e-7 -0.8660254184327674
    outer loop
      vertex 65.04985046386719 18.307838439941406 17.349288940429688
      vertex 68.06051635742188 16.32457733154297 19.087499618530273
      vertex 64.94280242919922 17.927413940429688 17.287485122680664
    endloop
  endfacet
  facet normal 0.4999998237397341 -8.305321546585261e-7 -0.8660255055479285
    outer loop
      vertex 65.04985046386719 18.307838439941406 17.349288940429688
      vertex 64.94280242919922 17.927413940429688 17.287485122680664
      vertex 61.64082336425781 19.144546508789062 15.381086349487305
    endloop
  endfacet
  facet normal 0.4999973296512847 -0.000004574273715992872 -0.8660269454934185
    outer loop
      vertex 68.23372650146484 16.670988082885742 19.1875
      vertex 70.82150268554688 14.008279800415039 20.681556701660156
      vertex 68.06051635742188 16.32457733154297 19.087499618530273
    endloop
  endfacet
  facet normal 0.4999960838970547 -0.0000027272850880815488 -0.8660276647314284
    outer loop
      vertex 71.05329895019531 14.305537223815918 20.81538200378418
      vertex 73.10509490966797 11.079751968383789 21.999984741210938
      vertex 70.82150268554688 14.008279800415039 20.681556701660156
    endloop
  endfacet
  facet normal 0.5000023267473044 0.0000017135156972597734 -0.8660240604303935
    outer loop
      vertex 73.38534545898438 11.314866065979004 22.161788940429688
      vertex 74.81147766113281 7.666985511779785 22.985164642333984
      vertex 73.10509490966797 11.079751968383789 21.999984741210938
    endloop
  endfacet
  facet normal 0.5000015193106868 -3.590344928777408e-7 -0.8660245266081533
    outer loop
      vertex 75.12793731689453 7.829679489135742 23.16787338256836
      vertex 75.86607360839844 3.919135093688965 23.594039916992188
      vertex 74.81147766113281 7.666985511779785 22.985164642333984
    endloop
  endfacet
  facet normal 0.5000009890419778 0.000001016217204619475 -0.8660248327594373
    outer loop
      vertex 75.12793731689453 7.829679489135742 23.16787338256836
      vertex 74.81147766113281 7.666985511779785 22.985164642333984
      vertex 73.38534545898438 11.314866065979004 22.161788940429688
    endloop
  endfacet
  facet normal 0.49999481184354344 -2.1849217251615208e-7 -0.8660283991472172
    outer loop
      vertex 76.20491790771484 4.0022993087768555 23.789669036865234
      vertex 76.22280883789062 0 23.799999237060547
      vertex 75.86607360839844 3.919135093688965 23.594039916992188
    endloop
  endfacet
  facet normal 0.4999987272449376 1.9515509007428522e-7 -0.8660261386086475
    outer loop
      vertex 76.22280883789062 0 23.799999237060547
      vertex 76.56922149658203 0 24
      vertex 76.20491790771484 -4.0022993087768555 23.789669036865234
    endloop
  endfacet
  facet normal 0.4999987272449376 -1.9515509007428522e-7 -0.8660261386086475
    outer loop
      vertex 76.56922149658203 0 24
      vertex 76.22280883789062 0 23.799999237060547
      vertex 76.20491790771484 4.0022993087768555 23.789669036865234
    endloop
  endfacet
  facet normal 0.49999513354964153 0.0000019661646204612144 -0.8660282134104005
    outer loop
      vertex 75.86607360839844 -3.919135093688965 23.594039916992188
      vertex 76.20491790771484 -4.0022993087768555 23.789669036865234
      vertex 75.12793731689453 -7.829679489135742 23.16787338256836
    endloop
  endfacet
  facet normal 0.49999481184354344 2.1849217251615208e-7 -0.8660283991472172
    outer loop
      vertex 76.22280883789062 0 23.799999237060547
      vertex 76.20491790771484 -4.0022993087768555 23.789669036865234
      vertex 75.86607360839844 -3.919135093688965 23.594039916992188
    endloop
  endfacet
  facet normal 0.5000015193106868 3.590344928777408e-7 -0.8660245266081533
    outer loop
      vertex 75.86607360839844 -3.919135093688965 23.594039916992188
      vertex 75.12793731689453 -7.829679489135742 23.16787338256836
      vertex 74.81147766113281 -7.666985511779785 22.985164642333984
    endloop
  endfacet
  facet normal 0.500001976520886 -0.0000022701325647222985 -0.8660242626335904
    outer loop
      vertex 73.10509490966797 -11.079751968383789 21.999984741210938
      vertex 73.38534545898438 -11.314866065979004 22.161788940429688
      vertex 71.05329895019531 -14.305537223815918 20.81538200378418
    endloop
  endfacet
  facet normal 0.49999756590388444 0.000004268136082069246 -0.8660268090954076
    outer loop
      vertex 70.82150268554688 -14.008279800415039 20.681556701660156
      vertex 71.05329895019531 -14.305537223815918 20.81538200378418
      vertex 68.23372650146484 -16.670988082885742 19.1875
    endloop
  endfacet
  facet normal 0.4999960838970547 0.0000027272850880815488 -0.8660276647314284
    outer loop
      vertex 73.10509490966797 -11.079751968383789 21.999984741210938
      vertex 71.05329895019531 -14.305537223815918 20.81538200378418
      vertex 70.82150268554688 -14.008279800415039 20.681556701660156
    endloop
  endfacet
  facet normal 0.4999973296512847 0.000004574273715992872 -0.8660269454934185
    outer loop
      vertex 70.82150268554688 -14.008279800415039 20.681556701660156
      vertex 68.23372650146484 -16.670988082885742 19.1875
      vertex 68.06051635742188 -16.32457733154297 19.087499618530273
    endloop
  endfacet
  facet normal 0.49999997462756257 8.871433746484908e-7 -0.8660254184327674
    outer loop
      vertex 68.06051635742188 -16.32457733154297 19.087499618530273
      vertex 65.04985046386719 -18.307838439941406 17.349288940429688
      vertex 64.94280242919922 -17.927413940429688 17.287485122680664
    endloop
  endfacet
  facet normal 0.4999999379775162 -0.000002368454572104753 -0.8660254395898948
    outer loop
      vertex 58.19184875488281 -18.74673843383789 13.389819145202637
      vertex 61.6046142578125 -18.74673843383789 15.360179901123047
      vertex 58.155635833740234 -19.144546508789062 13.368912696838379
    endloop
  endfacet
  facet normal 0.5000006985576233 -0.0000023338833614244036 -0.8660250004684863
    outer loop
      vertex 64.94280242919922 -17.927413940429688 17.287485122680664
      vertex 61.64082336425781 -19.144546508789062 15.381086349487305
      vertex 61.6046142578125 -18.74673843383789 15.360179901123047
    endloop
  endfacet
  facet normal -0.500001976520886 -0.0000022701325647222985 0.8660242626335904
    outer loop
      vertex 70.10509490966797 11.079751968383789 27.196136474609375
      vertex 70.38534545898438 11.314866065979004 27.357940673828125
      vertex 68.05329895019531 14.305537223815918 26.011533737182617
    endloop
  endfacet
  facet normal -0.49999756590388444 0.000004268136082069246 0.8660268090954076
    outer loop
      vertex 67.82150268554688 14.008279800415039 25.877708435058594
      vertex 68.05329895019531 14.305537223815918 26.011533737182617
      vertex 65.23372650146484 16.670988082885742 24.383651733398438
    endloop
  endfacet
  facet normal -0.4999964863433252 0.000008780441657819357 0.8660274323410505
    outer loop
      vertex 65.06051635742188 16.32457733154297 24.283653259277344
      vertex 65.23372650146484 16.670988082885742 24.383651733398438
      vertex 62.04985046386719 18.307838439941406 22.545440673828125
    endloop
  endfacet
  facet normal -0.49999513354964153 0.0000019661646204612144 0.8660282134104005
    outer loop
      vertex 72.86607360839844 3.919135093688965 28.790193557739258
      vertex 73.20491790771484 4.0022993087768555 28.985822677612305
      vertex 72.12793731689453 7.829679489135742 28.36402702331543
    endloop
  endfacet
  facet normal -0.4999997651878522 -0.0000024471605483201718 0.8660255393497954
    outer loop
      vertex 58.6046142578125 18.74673843383789 20.556331634521484
      vertex 58.64082336425781 19.144546508789062 20.577238082885742
      vertex 55.155635833740234 19.144546508789062 18.565065383911133
    endloop
  endfacet
  facet normal -0.5000012626568842 0.000003643353162529756 0.8660246747802557
    outer loop
      vertex 51.85365676879883 17.927413940429688 16.658666610717773
      vertex 51.746612548828125 18.307838439941406 16.59686279296875
      vertex 48.735939025878906 16.32457733154297 14.858652114868164
    endloop
  endfacet
  facet normal -0.5000000841683877 5.559886000036774e-7 0.8660253551896135
    outer loop
      vertex 33.39230728149414 15 6
      vertex 45.974952697753906 14.008279800415039 13.264595985412598
      vertex 46.570945739746094 15 13.608692169189453
    endloop
  endfacet
  facet normal -0.5000001170342709 0 0.8660253362146602
    outer loop
      vertex 45.974952697753906 14.008279800415039 13.264595985412598
      vertex 33.39230728149414 15 6
      vertex 33.39230728149414 14.901196479797363 6
    endloop
  endfacet
  facet normal -0.5000005866039273 9.585861900393907e-7 0.8660250651077079
    outer loop
      vertex 48.735939025878906 16.32457733154297 14.858652114868164
      vertex 46.570945739746094 15 13.608692169189453
      vertex 45.974952697753906 14.008279800415039 13.264595985412598
    endloop
  endfacet
  facet normal -0.5000011344187444 6.391829074397895e-7 0.8660247488262446
    outer loop
      vertex 72.12793731689453 -7.829679489135742 28.36402702331543
      vertex 71.81147766113281 -7.666985511779785 28.181318283081055
      vertex 70.38534545898438 -11.314866065979004 27.357940673828125
    endloop
  endfacet
  facet normal -0.5000025412928285 0.000001372537072028005 0.8660239365622808
    outer loop
      vertex 70.38534545898438 -11.314866065979004 27.357940673828125
      vertex 71.81147766113281 -7.666985511779785 28.181318283081055
      vertex 70.10509490966797 -11.079751968383789 27.196136474609375
    endloop
  endfacet
  facet normal -0.5000001170342709 0 0.8660253362146602
    outer loop
      vertex 33.39230728149414 -15 6
      vertex 45.974952697753906 -14.008279800415039 13.264595985412598
      vertex 33.39230728149414 -14.901196479797363 6
    endloop
  endfacet
  facet normal -0.5000000841683877 -5.559886000036774e-7 0.8660253551896135
    outer loop
      vertex 45.974952697753906 -14.008279800415039 13.264595985412598
      vertex 33.39230728149414 -15 6
      vertex 46.570945739746094 -15 13.608692169189453
    endloop
  endfacet
  facet normal -0.49999941608354576 0.0000023051106018086784 0.8660257409054304
    outer loop
      vertex 55.155635833740234 -19.144546508789062 18.565065383911133
      vertex 55.19184875488281 -18.74673843383789 18.58597183227539
      vertex 51.85365676879883 -17.927413940429688 16.658666610717773
    endloop
  endfacet
  facet normal -0.5000010795562485 -0.0000037120483873128076 0.8660247804934953
    outer loop
      vertex 55.155635833740234 -19.144546508789062 18.565065383911133
      vertex 51.85365676879883 -17.927413940429688 16.658666610717773
      vertex 51.746612548828125 -18.307838439941406 16.59686279296875
    endloop
  endfacet
  facet normal -0.4999998237397341 -8.305321546585261e-7 0.8660255055479285
    outer loop
      vertex 62.04985046386719 -18.307838439941406 22.545440673828125
      vertex 61.94280242919922 -17.927413940429688 22.4836368560791
      vertex 58.64082336425781 -19.144546508789062 20.577238082885742
    endloop
  endfacet
  facet normal -0.4999964863433252 -0.000008780441657819357 0.8660274323410505
    outer loop
      vertex 65.23372650146484 -16.670988082885742 24.383651733398438
      vertex 65.06051635742188 -16.32457733154297 24.283653259277344
      vertex 62.04985046386719 -18.307838439941406 22.545440673828125
    endloop
  endfacet
  facet normal -0.4999997651878522 0.0000024471605483201718 0.8660255393497954
    outer loop
      vertex 58.64082336425781 -19.144546508789062 20.577238082885742
      vertex 58.6046142578125 -18.74673843383789 20.556331634521484
      vertex 55.155635833740234 -19.144546508789062 18.565065383911133
    endloop
  endfacet
  facet normal -0.5000012626568842 -0.000003643353162529756 0.8660246747802557
    outer loop
      vertex 51.746612548828125 -18.307838439941406 16.59686279296875
      vertex 51.85365676879883 -17.927413940429688 16.658666610717773
      vertex 48.735939025878906 -16.32457733154297 14.858652114868164
    endloop
  endfacet
  facet normal -0.5000017489037732 -0.000003491600165609339 0.8660243940449811
    outer loop
      vertex 48.56273651123047 -16.670988082885742 14.758651733398438
      vertex 48.735939025878906 -16.32457733154297 14.858652114868164
      vertex 46.570945739746094 -15 13.608692169189453
    endloop
  endfacet
  facet normal -0.500001326731737 -0.0000037730447993722296 0.8660246377859391
    outer loop
      vertex 51.746612548828125 -18.307838439941406 16.59686279296875
      vertex 48.735939025878906 -16.32457733154297 14.858652114868164
      vertex 48.56273651123047 -16.670988082885742 14.758651733398438
    endloop
  endfacet
  facet normal -0.5000005866039273 -9.585861900393907e-7 0.8660250651077079
    outer loop
      vertex 46.570945739746094 -15 13.608692169189453
      vertex 48.735939025878906 -16.32457733154297 14.858652114868164
      vertex 45.974952697753906 -14.008279800415039 13.264595985412598
    endloop
  endfacet
  facet normal -0.5000000917276962 0 0.866025350825422
    outer loop
      vertex 33.39230728149414 -14.901196479797363 6
      vertex 43.691368103027344 -11.079751968383789 11.9461669921875
      vertex 33.39230728149414 -14.533143997192383 6
    endloop
  endfacet
  facet normal -0.5000001230187957 1.1244230159590669e-7 0.8660253327594848
    outer loop
      vertex 43.691368103027344 -11.079751968383789 11.9461669921875
      vertex 33.39230728149414 -14.901196479797363 6
      vertex 45.974952697753906 -14.008279800415039 13.264595985412598
    endloop
  endfacet
  facet normal -0.5000000951506983 1.6221285250988196e-8 0.8660253488491502
    outer loop
      vertex 33.39230728149414 -13.977484703063965 6
      vertex 43.691368103027344 -11.079751968383789 11.9461669921875
      vertex 41.9849853515625 -7.666985511779785 10.960986137390137
    endloop
  endfacet
  facet normal -0.5000000917276962 0 0.8660253508254221
    outer loop
      vertex 43.691368103027344 -11.079751968383789 11.9461669921875
      vertex 33.39230728149414 -13.977484703063965 6
      vertex 33.39230728149414 -14.533143997192383 6
    endloop
  endfacet
  facet normal -0.5000000361437908 -1.0234213260312648e-7 0.8660253829168043
    outer loop
      vertex 33.39230728149414 -13.272419929504395 6
      vertex 41.9849853515625 -7.666985511779785 10.960986137390137
      vertex 40.930381774902344 -3.919135093688965 10.352110862731934
    endloop
  endfacet
  facet normal -0.500000086215964 0 0.8660253540076229
    outer loop
      vertex 41.9849853515625 -7.666985511779785 10.960986137390137
      vertex 33.39230728149414 -13.272419929504395 6
      vertex 33.39230728149414 -13.977484703063965 6
    endloop
  endfacet
  facet normal -0.5000033467464325 -4.460939363663672e-7 0.8660234715307475
    outer loop
      vertex 40.45933532714844 -0.19999980926513672 10.080151557922363
      vertex 40.930381774902344 -3.919135093688965 10.352110862731934
      vertex 40.591854095458984 -0.19999980926513672 10.156661987304688
    endloop
  endfacet
  facet normal -0.5000002041558864 8.460597851665826e-8 0.8660252859149464
    outer loop
      vertex 33.39230728149414 -12.564096450805664 6
      vertex 40.930381774902344 -3.919135093688965 10.352110862731934
      vertex 40.45933532714844 -0.19999980926513672 10.080151557922363
    endloop
  endfacet
  facet normal -0.5000001313837961 0 0.8660253279299553
    outer loop
      vertex 40.930381774902344 -3.919135093688965 10.352110862731934
      vertex 33.39230728149414 -12.564096450805664 6
      vertex 33.39230728149414 -13.272419929504395 6
    endloop
  endfacet
  facet normal -0.5000000931393139 0 0.8660253500104241
    outer loop
      vertex 40.45933532714844 0.19999980926513672 10.080151557922363
      vertex 33.39230728149414 12.564096450805664 6
      vertex 33.39230728149414 0.19999980926513672 6
    endloop
  endfacet
  facet normal -0.5000000931393139 0 0.8660253500104241
    outer loop
      vertex 40.45933532714844 -0.19999980926513672 10.080151557922363
      vertex 33.39230728149414 -0.19999980926513672 6
      vertex 33.39230728149414 -12.564096450805664 6
    endloop
  endfacet
  facet normal -0.5000033467464325 4.460939363663672e-7 0.8660234715307475
    outer loop
      vertex 40.930381774902344 3.919135093688965 10.352110862731934
      vertex 40.45933532714844 0.19999980926513672 10.080151557922363
      vertex 40.591854095458984 0.19999980926513672 10.156661987304688
    endloop
  endfacet
  facet normal -0.5000001313837961 0 0.8660253279299553
    outer loop
      vertex 33.39230728149414 12.564096450805664 6
      vertex 40.930381774902344 3.919135093688965 10.352110862731934
      vertex 33.39230728149414 13.272419929504395 6
    endloop
  endfacet
  facet normal -0.5000002041558864 -8.460597851665826e-8 0.8660252859149464
    outer loop
      vertex 40.930381774902344 3.919135093688965 10.352110862731934
      vertex 33.39230728149414 12.564096450805664 6
      vertex 40.45933532714844 0.19999980926513672 10.080151557922363
    endloop
  endfacet
  facet normal -0.500000086215964 0 0.8660253540076229
    outer loop
      vertex 33.39230728149414 13.272419929504395 6
      vertex 41.9849853515625 7.666985511779785 10.960986137390137
      vertex 33.39230728149414 13.977484703063965 6
    endloop
  endfacet
  facet normal -0.5000000361437908 1.0234213260312648e-7 0.8660253829168043
    outer loop
      vertex 41.9849853515625 7.666985511779785 10.960986137390137
      vertex 33.39230728149414 13.272419929504395 6
      vertex 40.930381774902344 3.919135093688965 10.352110862731934
    endloop
  endfacet
  facet normal -0.5000001230187957 -1.1244230159590669e-7 0.8660253327594848
    outer loop
      vertex 33.39230728149414 14.901196479797363 6
      vertex 43.691368103027344 11.079751968383789 11.9461669921875
      vertex 45.974952697753906 14.008279800415039 13.264595985412598
    endloop
  endfacet
  facet normal -0.5000000917276962 0 0.866025350825422
    outer loop
      vertex 43.691368103027344 11.079751968383789 11.9461669921875
      vertex 33.39230728149414 14.901196479797363 6
      vertex 33.39230728149414 14.533143997192383 6
    endloop
  endfacet
  facet normal -0.5000000917276962 0 0.8660253508254221
    outer loop
      vertex 33.39230728149414 13.977484703063965 6
      vertex 43.691368103027344 11.079751968383789 11.9461669921875
      vertex 33.39230728149414 14.533143997192383 6
    endloop
  endfacet
  facet normal -0.5000000951506983 -1.6221285250988196e-8 0.8660253488491502
    outer loop
      vertex 43.691368103027344 11.079751968383789 11.9461669921875
      vertex 33.39230728149414 13.977484703063965 6
      vertex 41.9849853515625 7.666985511779785 10.960986137390137
    endloop
  endfacet
  facet normal -0.5000017489037732 0.000003491600165609339 0.8660243940449811
    outer loop
      vertex 48.735939025878906 16.32457733154297 14.858652114868164
      vertex 48.56273651123047 16.670988082885742 14.758651733398438
      vertex 46.570945739746094 15 13.608692169189453
    endloop
  endfacet
  facet normal -0.500001326731737 0.0000037730447993722296 0.8660246377859391
    outer loop
      vertex 48.735939025878906 16.32457733154297 14.858652114868164
      vertex 51.746612548828125 18.307838439941406 16.59686279296875
      vertex 48.56273651123047 16.670988082885742 14.758651733398438
    endloop
  endfacet
  facet normal -0.5000010795562485 0.0000037120483873128076 0.8660247804934953
    outer loop
      vertex 51.85365676879883 17.927413940429688 16.658666610717773
      vertex 55.155635833740234 19.144546508789062 18.565065383911133
      vertex 51.746612548828125 18.307838439941406 16.59686279296875
    endloop
  endfacet
  facet normal -0.4999997564737654 -0.000002346424868429604 0.8660255443811514
    outer loop
      vertex 55.19184875488281 18.74673843383789 18.58597183227539
      vertex 58.6046142578125 18.74673843383789 20.556331634521484
      vertex 55.155635833740234 19.144546508789062 18.565065383911133
    endloop
  endfacet
  facet normal -0.49999941608354576 -0.0000023051106018086784 0.8660257409054304
    outer loop
      vertex 55.19184875488281 18.74673843383789 18.58597183227539
      vertex 55.155635833740234 19.144546508789062 18.565065383911133
      vertex 51.85365676879883 17.927413940429688 16.658666610717773
    endloop
  endfacet
  facet normal -0.5000006985576233 -0.0000023338833614244036 0.8660250004684863
    outer loop
      vertex 61.94280242919922 17.927413940429688 22.4836368560791
      vertex 58.64082336425781 19.144546508789062 20.577238082885742
      vertex 58.6046142578125 18.74673843383789 20.556331634521484
    endloop
  endfacet
  facet normal -0.5000003217695433 0.0000010173867140223916 0.8660252180100289
    outer loop
      vertex 65.06051635742188 16.32457733154297 24.283653259277344
      vertex 62.04985046386719 18.307838439941406 22.545440673828125
      vertex 61.94280242919922 17.927413940429688 22.4836368560791
    endloop
  endfacet
  facet normal -0.4999998237397341 8.305321546585261e-7 0.8660255055479285
    outer loop
      vertex 61.94280242919922 17.927413940429688 22.4836368560791
      vertex 62.04985046386719 18.307838439941406 22.545440673828125
      vertex 58.64082336425781 19.144546508789062 20.577238082885742
    endloop
  endfacet
  facet normal -0.49999489987918055 0.00000772278166931052 0.8660283482861094
    outer loop
      vertex 67.82150268554688 14.008279800415039 25.877708435058594
      vertex 65.23372650146484 16.670988082885742 24.383651733398438
      vertex 65.06051635742188 16.32457733154297 24.283653259277344
    endloop
  endfacet
  facet normal -0.4999960838970547 0.0000027272850880815488 0.8660276647314284
    outer loop
      vertex 70.10509490966797 11.079751968383789 27.196136474609375
      vertex 68.05329895019531 14.305537223815918 26.011533737182617
      vertex 67.82150268554688 14.008279800415039 25.877708435058594
    endloop
  endfacet
  facet normal -0.5000025412928285 -0.000001372537072028005 0.8660239365622808
    outer loop
      vertex 71.81147766113281 7.666985511779785 28.181318283081055
      vertex 70.38534545898438 11.314866065979004 27.357940673828125
      vertex 70.10509490966797 11.079751968383789 27.196136474609375
    endloop
  endfacet
  facet normal -0.5000015193106868 3.590344928777408e-7 0.8660245266081533
    outer loop
      vertex 72.86607360839844 3.919135093688965 28.790193557739258
      vertex 72.12793731689453 7.829679489135742 28.36402702331543
      vertex 71.81147766113281 7.666985511779785 28.181318283081055
    endloop
  endfacet
  facet normal -0.5000011344187444 -6.391829074397895e-7 0.8660247488262446
    outer loop
      vertex 71.81147766113281 7.666985511779785 28.181318283081055
      vertex 72.12793731689453 7.829679489135742 28.36402702331543
      vertex 70.38534545898438 11.314866065979004 27.357940673828125
    endloop
  endfacet
  facet normal -0.4999947359548581 -1.9377280703645626e-7 0.8660284429609655
    outer loop
      vertex 73.22280883789062 0 28.996150970458984
      vertex 73.20491790771484 4.0022993087768555 28.985822677612305
      vertex 72.86607360839844 3.919135093688965 28.790193557739258
    endloop
  endfacet
  facet normal -0.49999872724493527 2.175611122928736e-7 0.8660261386086435
    outer loop
      vertex 73.56922149658203 0 29.196151733398438
      vertex 73.22280883789062 0 28.996150970458984
      vertex 73.20491790771484 -4.0022993087768555 28.985822677612305
    endloop
  endfacet
  facet normal -0.49999872724493527 -2.175611122928736e-7 0.8660261386086435
    outer loop
      vertex 73.22280883789062 0 28.996150970458984
      vertex 73.56922149658203 0 29.196151733398438
      vertex 73.20491790771484 4.0022993087768555 28.985822677612305
    endloop
  endfacet
  facet normal -0.49999513354964153 -0.0000019661646204612144 0.8660282134104005
    outer loop
      vertex 73.20491790771484 -4.0022993087768555 28.985822677612305
      vertex 72.86607360839844 -3.919135093688965 28.790193557739258
      vertex 72.12793731689453 -7.829679489135742 28.36402702331543
    endloop
  endfacet
  facet normal -0.4999947359548581 1.9377280703645626e-7 0.8660284429609655
    outer loop
      vertex 73.20491790771484 -4.0022993087768555 28.985822677612305
      vertex 73.22280883789062 0 28.996150970458984
      vertex 72.86607360839844 -3.919135093688965 28.790193557739258
    endloop
  endfacet
  facet normal -0.5000015193106868 -3.590344928777408e-7 0.8660245266081533
    outer loop
      vertex 72.12793731689453 -7.829679489135742 28.36402702331543
      vertex 72.86607360839844 -3.919135093688965 28.790193557739258
      vertex 71.81147766113281 -7.666985511779785 28.181318283081055
    endloop
  endfacet
  facet normal -0.500001976520886 0.0000022701325647222985 0.8660242626335904
    outer loop
      vertex 70.38534545898438 -11.314866065979004 27.357940673828125
      vertex 70.10509490966797 -11.079751968383789 27.196136474609375
      vertex 68.05329895019531 -14.305537223815918 26.011533737182617
    endloop
  endfacet
  facet normal -0.49999756590388444 -0.000004268136082069246 0.8660268090954076
    outer loop
      vertex 68.05329895019531 -14.305537223815918 26.011533737182617
      vertex 67.82150268554688 -14.008279800415039 25.877708435058594
      vertex 65.23372650146484 -16.670988082885742 24.383651733398438
    endloop
  endfacet
  facet normal -0.4999960838970547 -0.0000027272850880815488 0.8660276647314284
    outer loop
      vertex 68.05329895019531 -14.305537223815918 26.011533737182617
      vertex 70.10509490966797 -11.079751968383789 27.196136474609375
      vertex 67.82150268554688 -14.008279800415039 25.877708435058594
    endloop
  endfacet
  facet normal -0.49999489987918055 -0.00000772278166931052 0.8660283482861094
    outer loop
      vertex 65.23372650146484 -16.670988082885742 24.383651733398438
      vertex 67.82150268554688 -14.008279800415039 25.877708435058594
      vertex 65.06051635742188 -16.32457733154297 24.283653259277344
    endloop
  endfacet
  facet normal -0.5000003217695433 -0.0000010173867140223916 0.8660252180100289
    outer loop
      vertex 62.04985046386719 -18.307838439941406 22.545440673828125
      vertex 65.06051635742188 -16.32457733154297 24.283653259277344
      vertex 61.94280242919922 -17.927413940429688 22.4836368560791
    endloop
  endfacet
  facet normal -0.4999997564737654 0.000002346424868429604 0.8660255443811514
    outer loop
      vertex 58.6046142578125 -18.74673843383789 20.556331634521484
      vertex 55.19184875488281 -18.74673843383789 18.58597183227539
      vertex 55.155635833740234 -19.144546508789062 18.565065383911133
    endloop
  endfacet
  facet normal -0.5000006985576233 0.0000023338833614244036 0.8660250004684863
    outer loop
      vertex 58.64082336425781 -19.144546508789062 20.577238082885742
      vertex 61.94280242919922 -17.927413940429688 22.4836368560791
      vertex 58.6046142578125 -18.74673843383789 20.556331634521484
    endloop
  endfacet
  facet normal 0 -1 0
    outer loop
      vertex 0 0.19999980926513672 0
      vertex 33.39230728149414 0.19999980926513672 6
      vertex 0 0.19999980926513672 6
    endloop
  endfacet
  facet normal 0 -1 0
    outer loop
      vertex 43.45933532714844 0.19999980926513672 4.883999824523926
      vertex 33.39230728149414 0.19999980926513672 6
      vertex 35 0.19999980926513672 0
    endloop
  endfacet
  facet normal 0 -1 0
    outer loop
      vertex 43.43876266479492 0.19999980926513672 5.225678443908691
      vertex 43.45933532714844 0.19999980926513672 4.883999824523926
      vertex 43.591854095458984 0.19999980926513672 4.96051025390625
    endloop
  endfacet
  facet normal 0 -1 0
    outer loop
      vertex 33.39230728149414 0.19999980926513672 6
      vertex 0 0.19999980926513672 0
      vertex 35 0.19999980926513672 0
    endloop
  endfacet
  facet normal 0 -1 0
    outer loop
      vertex 33.39230728149414 0.19999980926513672 6
      vertex 43.45933532714844 0.19999980926513672 4.883999824523926
      vertex 43.43876266479492 0.19999980926513672 5.225678443908691
    endloop
  endfacet
  facet normal 0 -1 0
    outer loop
      vertex 40.45933532714844 0.19999980926513672 10.080151557922363
      vertex 43.43876266479492 0.19999980926513672 5.225678443908691
      vertex 40.591854095458984 0.19999980926513672 10.156661987304688
    endloop
  endfacet
  facet normal 0 -1 0
    outer loop
      vertex 43.43876266479492 0.19999980926513672 5.225678443908691
      vertex 40.45933532714844 0.19999980926513672 10.080151557922363
      vertex 33.39230728149414 0.19999980926513672 6
    endloop
  endfacet
  facet normal 0 1 0
    outer loop
      vertex 40.74494934082031 -0.19999980926513672 9.891493797302246
      vertex 40.45933532714844 -0.19999980926513672 10.080151557922363
      vertex 40.591854095458984 -0.19999980926513672 10.156661987304688
    endloop
  endfacet
  facet normal 0 1 0
    outer loop
      vertex 40.74494934082031 -0.19999980926513672 9.891493797302246
      vertex 33.39230728149414 -0.19999980926513672 6
      vertex 40.45933532714844 -0.19999980926513672 10.080151557922363
    endloop
  endfacet
  facet normal 0 1 0
    outer loop
      vertex 43.45933532714844 -0.19999980926513672 4.883999824523926
      vertex 40.74494934082031 -0.19999980926513672 9.891493797302246
      vertex 43.591854095458984 -0.19999980926513672 4.96051025390625
    endloop
  endfacet
  facet normal 0 1 0
    outer loop
      vertex 40.74494934082031 -0.19999980926513672 9.891493797302246
      vertex 43.45933532714844 -0.19999980926513672 4.883999824523926
      vertex 33.39230728149414 -0.19999980926513672 6
    endloop
  endfacet
  facet normal 0 1 0
    outer loop
      vertex 35 -0.19999980926513672 0
      vertex 33.39230728149414 -0.19999980926513672 6
      vertex 43.45933532714844 -0.19999980926513672 4.883999824523926
    endloop
  endfacet
  facet normal 0 1 0
    outer loop
      vertex 0 -0.19999980926513672 0
      vertex 33.39230728149414 -0.19999980926513672 6
      vertex 35 -0.19999980926513672 0
    endloop
  endfacet
  facet normal 0 1 0
    outer loop
      vertex 33.39230728149414 -0.19999980926513672 6
      vertex 0 -0.19999980926513672 0
      vertex 0 -0.19999980926513672 6
    endloop
  endfacet
endsolid OpenSCAD_Model
