solid OpenSCAD_Model
  facet normal 0 0 -1
    outer loop
      vertex 14 -13 0
      vertex 8 -8.5 0
      vertex 14 -8.5 0
    endloop
  endfacet
  facet normal 0 0 -1
    outer loop
      vertex 7.59999 -15 0
      vertex 14 -13 0
      vertex 15 -15 0
    endloop
  endfacet
  facet normal -0 0 -1
    outer loop
      vertex 14 -13 0
      vertex 7.59999 -15 0
      vertex 8 -8.5 0
    endloop
  endfacet
  facet normal 0 0 -1
    outer loop
      vertex 0 -11.5 0
      vertex 8 -8.5 0
      vertex 7.59999 -15 0
    endloop
  endfacet
  facet normal 0 0 -1
    outer loop
      vertex 8 -8.5 0
      vertex 0 -11.5 0
      vertex 0 -10 0
    endloop
  endfacet
  facet normal 0 0 -1
    outer loop
      vertex 27 -13.5 0
      vertex 17 -11.7 0
      vertex 25 -12 0
    endloop
  endfacet
  facet normal 0 0 -1
    outer loop
      vertex 14 -13 0
      vertex 17 -11.7 0
      vertex 27 -13.5 0
    endloop
  endfacet
  facet normal -0 0 -1
    outer loop
      vertex 17 -11.7 0
      vertex 14 -13 0
      vertex 14 -8.5 0
    endloop
  endfacet
  facet normal 0 0 -1
    outer loop
      vertex 27 -13.5 0
      vertex 35 -15 0
      vertex 27 -15 0
    endloop
  endfacet
  facet normal 0 0 -1
    outer loop
      vertex 35 -15 0
      vertex 27 -13.5 0
      vertex 35 -0.2 0
    endloop
  endfacet
  facet normal 0 0 -1
    outer loop
      vertex 25 -12 0
      vertex 35 -0.2 0
      vertex 27 -13.5 0
    endloop
  endfacet
  facet normal 0 0 -1
    outer loop
      vertex 21 -4 0
      vertex 35 -0.2 0
      vertex 25 -12 0
    endloop
  endfacet
  facet normal 0 0 -1
    outer loop
      vertex 0 -0.2 0
      vertex 21 -4 0
      vertex 0 -4 0
    endloop
  endfacet
  facet normal 0 0 -1
    outer loop
      vertex 21 -4 0
      vertex 0 -0.2 0
      vertex 35 -0.2 0
    endloop
  endfacet
  facet normal 0 0 -1
    outer loop
      vertex 35 0.2 0
      vertex 27 13.5 0
      vertex 35 15 0
    endloop
  endfacet
  facet normal 0 0 -1
    outer loop
      vertex 35 0.2 0
      vertex 25 12 0
      vertex 27 13.5 0
    endloop
  endfacet
  facet normal 0 0 -1
    outer loop
      vertex 35 0.2 0
      vertex 21 4 0
      vertex 25 12 0
    endloop
  endfacet
  facet normal 0 0 -1
    outer loop
      vertex 0 0.2 0
      vertex 21 4 0
      vertex 35 0.2 0
    endloop
  endfacet
  facet normal -0 0 -1
    outer loop
      vertex 21 4 0
      vertex 0 0.2 0
      vertex 0 4 0
    endloop
  endfacet
  facet normal -0 0 -1
    outer loop
      vertex 35 15 0
      vertex 27 13.5 0
      vertex 27 15 0
    endloop
  endfacet
  facet normal 0 0 -1
    outer loop
      vertex 17 11.7 0
      vertex 27 13.5 0
      vertex 25 12 0
    endloop
  endfacet
  facet normal 0 0 -1
    outer loop
      vertex 17 11.7 0
      vertex 14 13 0
      vertex 27 13.5 0
    endloop
  endfacet
  facet normal 0 0 -1
    outer loop
      vertex 14 8.5 0
      vertex 14 13 0
      vertex 17 11.7 0
    endloop
  endfacet
  facet normal 0 -0 -1
    outer loop
      vertex 14 13 0
      vertex 14 8.5 0
      vertex 8 8.5 0
    endloop
  endfacet
  facet normal 0 0 -1
    outer loop
      vertex 7.59999 15 0
      vertex 14 13 0
      vertex 8 8.5 0
    endloop
  endfacet
  facet normal 0 0 -1
    outer loop
      vertex 14 13 0
      vertex 7.59999 15 0
      vertex 15 15 0
    endloop
  endfacet
  facet normal 0 0 -1
    outer loop
      vertex 0 11.5 0
      vertex 8 8.5 0
      vertex 0 10 0
    endloop
  endfacet
  facet normal 0 0 -1
    outer loop
      vertex 8 8.5 0
      vertex 0 11.5 0
      vertex 7.59999 15 0
    endloop
  endfacet
  facet normal -0 0 1
    outer loop
      vertex 25 -12 6
      vertex 33.3923 -12.8077 6
      vertex 33.3923 -0.2 6
    endloop
  endfacet
  facet normal 0 -0 1
    outer loop
      vertex 27 -13.5 6
      vertex 33.3923 -12.8077 6
      vertex 25 -12 6
    endloop
  endfacet
  facet normal 0 0 1
    outer loop
      vertex 33.3923 -13.4034 6
      vertex 27 -13.5 6
      vertex 33.3923 -14.0021 6
    endloop
  endfacet
  facet normal 0 0 1
    outer loop
      vertex 33.3923 -14.0021 6
      vertex 27 -13.5 6
      vertex 33.3923 -14.4898 6
    endloop
  endfacet
  facet normal 0 0 1
    outer loop
      vertex 27 -15 6
      vertex 33.3923 -14.4898 6
      vertex 27 -13.5 6
    endloop
  endfacet
  facet normal 0 0 1
    outer loop
      vertex 33.3923 -12.8077 6
      vertex 27 -13.5 6
      vertex 33.3923 -13.4034 6
    endloop
  endfacet
  facet normal 0 0 1
    outer loop
      vertex 33.3923 -0.2 6
      vertex 21 -4 6
      vertex 25 -12 6
    endloop
  endfacet
  facet normal -0 0 1
    outer loop
      vertex 0 -0.2 6
      vertex 21 -4 6
      vertex 33.3923 -0.2 6
    endloop
  endfacet
  facet normal 0 0 1
    outer loop
      vertex 21 -4 6
      vertex 0 -0.2 6
      vertex 0 -4 6
    endloop
  endfacet
  facet normal 0 0 1
    outer loop
      vertex 33.3923 -14.4898 6
      vertex 27 -15 6
      vertex 33.3923 -15 6
    endloop
  endfacet
  facet normal 0 0 1
    outer loop
      vertex 17 -11.7 6
      vertex 27 -13.5 6
      vertex 25 -12 6
    endloop
  endfacet
  facet normal 0 0 1
    outer loop
      vertex 17 -11.7 6
      vertex 14 -13 6
      vertex 27 -13.5 6
    endloop
  endfacet
  facet normal 0 0 1
    outer loop
      vertex 14 -8.5 6
      vertex 14 -13 6
      vertex 17 -11.7 6
    endloop
  endfacet
  facet normal 0 -0 1
    outer loop
      vertex 14 -13 6
      vertex 14 -8.5 6
      vertex 8 -8.5 6
    endloop
  endfacet
  facet normal 0 0 1
    outer loop
      vertex 7.59999 -15 6
      vertex 14 -13 6
      vertex 8 -8.5 6
    endloop
  endfacet
  facet normal 0 0 1
    outer loop
      vertex 14 -13 6
      vertex 7.59999 -15 6
      vertex 15 -15 6
    endloop
  endfacet
  facet normal 0 0 1
    outer loop
      vertex 0 -11.5 6
      vertex 8 -8.5 6
      vertex 0 -10 6
    endloop
  endfacet
  facet normal 0 0 1
    outer loop
      vertex 8 -8.5 6
      vertex 0 -11.5 6
      vertex 7.59999 -15 6
    endloop
  endfacet
  facet normal 0 0 1
    outer loop
      vertex 14 13 6
      vertex 8 8.5 6
      vertex 14 8.5 6
    endloop
  endfacet
  facet normal -0 0 1
    outer loop
      vertex 7.59999 15 6
      vertex 14 13 6
      vertex 15 15 6
    endloop
  endfacet
  facet normal 0 0 1
    outer loop
      vertex 14 13 6
      vertex 7.59999 15 6
      vertex 8 8.5 6
    endloop
  endfacet
  facet normal -0 0 1
    outer loop
      vertex 0 11.5 6
      vertex 8 8.5 6
      vertex 7.59999 15 6
    endloop
  endfacet
  facet normal 0 0 1
    outer loop
      vertex 8 8.5 6
      vertex 0 11.5 6
      vertex 0 10 6
    endloop
  endfacet
  facet normal 0 0 1
    outer loop
      vertex 27 13.5 6
      vertex 17 11.7 6
      vertex 25 12 6
    endloop
  endfacet
  facet normal -0 0 1
    outer loop
      vertex 14 13 6
      vertex 17 11.7 6
      vertex 27 13.5 6
    endloop
  endfacet
  facet normal 0 0 1
    outer loop
      vertex 17 11.7 6
      vertex 14 13 6
      vertex 14 8.5 6
    endloop
  endfacet
  facet normal -0 0 1
    outer loop
      vertex 27 15 6
      vertex 33.3923 14.4898 6
      vertex 33.3923 15 6
    endloop
  endfacet
  facet normal 0 0 1
    outer loop
      vertex 33.3923 14.4898 6
      vertex 27 15 6
      vertex 33.3923 14.0021 6
    endloop
  endfacet
  facet normal 0 0 1
    outer loop
      vertex 33.3923 14.0021 6
      vertex 27 13.5 6
      vertex 33.3923 13.4034 6
    endloop
  endfacet
  facet normal 0 0 1
    outer loop
      vertex 33.3923 13.4034 6
      vertex 27 13.5 6
      vertex 33.3923 12.8077 6
    endloop
  endfacet
  facet normal 0 0 1
    outer loop
      vertex 33.3923 14.0021 6
      vertex 27 15 6
      vertex 27 13.5 6
    endloop
  endfacet
  facet normal 0 0 1
    outer loop
      vertex 25 12 6
      vertex 33.3923 12.8077 6
      vertex 27 13.5 6
    endloop
  endfacet
  facet normal 0 0 1
    outer loop
      vertex 33.3923 12.8077 6
      vertex 25 12 6
      vertex 33.3923 0.2 6
    endloop
  endfacet
  facet normal -0 0 1
    outer loop
      vertex 21 4 6
      vertex 33.3923 0.2 6
      vertex 25 12 6
    endloop
  endfacet
  facet normal 0 0 1
    outer loop
      vertex 0 0.2 6
      vertex 21 4 6
      vertex 0 4 6
    endloop
  endfacet
  facet normal 0 0 1
    outer loop
      vertex 21 4 6
      vertex 0 0.2 6
      vertex 33.3923 0.2 6
    endloop
  endfacet
  facet normal -0.894427 -0.447214 0
    outer loop
      vertex 25 -12 0
      vertex 21 -4 6
      vertex 21 -4 0
    endloop
  endfacet
  facet normal -0.894427 -0.447214 0
    outer loop
      vertex 21 -4 6
      vertex 25 -12 0
      vertex 25 -12 6
    endloop
  endfacet
  facet normal 0.0374737 0.999298 -0
    outer loop
      vertex 25 -12 0
      vertex 17 -11.7 6
      vertex 25 -12 6
    endloop
  endfacet
  facet normal 0.0374737 0.999298 0
    outer loop
      vertex 17 -11.7 6
      vertex 25 -12 0
      vertex 17 -11.7 0
    endloop
  endfacet
  facet normal 0.729537 0.683941 0
    outer loop
      vertex 17 -11.7 6
      vertex 14 -8.5 0
      vertex 14 -8.5 6
    endloop
  endfacet
  facet normal 0.729537 0.683941 0
    outer loop
      vertex 14 -8.5 0
      vertex 17 -11.7 6
      vertex 17 -11.7 0
    endloop
  endfacet
  facet normal 0 1 -0
    outer loop
      vertex 14 -8.5 0
      vertex 8 -8.5 6
      vertex 14 -8.5 6
    endloop
  endfacet
  facet normal 0 1 0
    outer loop
      vertex 8 -8.5 6
      vertex 14 -8.5 0
      vertex 8 -8.5 0
    endloop
  endfacet
  facet normal -0.184289 0.982872 0
    outer loop
      vertex 8 -8.5 0
      vertex 0 -10 6
      vertex 8 -8.5 6
    endloop
  endfacet
  facet normal -0.184289 0.982872 0
    outer loop
      vertex 0 -10 6
      vertex 8 -8.5 0
      vertex 0 -10 0
    endloop
  endfacet
  facet normal -1 0 0
    outer loop
      vertex 0 -11.5 0
      vertex 0 -10 6
      vertex 0 -10 0
    endloop
  endfacet
  facet normal -1 -0 0
    outer loop
      vertex 0 -10 6
      vertex 0 -11.5 0
      vertex 0 -11.5 6
    endloop
  endfacet
  facet normal -0.418301 -0.908309 0
    outer loop
      vertex 0 -11.5 0
      vertex 7.59999 -15 6
      vertex 0 -11.5 6
    endloop
  endfacet
  facet normal -0.418301 -0.908309 -0
    outer loop
      vertex 7.59999 -15 6
      vertex 0 -11.5 0
      vertex 7.59999 -15 0
    endloop
  endfacet
  facet normal 0 -1 0
    outer loop
      vertex 7.59999 -15 0
      vertex 15 -15 6
      vertex 7.59999 -15 6
    endloop
  endfacet
  facet normal 0 -1 -0
    outer loop
      vertex 15 -15 6
      vertex 7.59999 -15 0
      vertex 15 -15 0
    endloop
  endfacet
  facet normal 0.894427 0.447214 0
    outer loop
      vertex 15 -15 6
      vertex 14 -13 0
      vertex 14 -13 6
    endloop
  endfacet
  facet normal 0.894427 0.447214 0
    outer loop
      vertex 14 -13 0
      vertex 15 -15 6
      vertex 15 -15 0
    endloop
  endfacet
  facet normal -0.0384331 -0.999261 0
    outer loop
      vertex 14 -13 0
      vertex 27 -13.5 6
      vertex 14 -13 6
    endloop
  endfacet
  facet normal -0.0384331 -0.999261 -0
    outer loop
      vertex 27 -13.5 6
      vertex 14 -13 0
      vertex 27 -13.5 0
    endloop
  endfacet
  facet normal -1 0 0
    outer loop
      vertex 27 -15 0
      vertex 27 -13.5 6
      vertex 27 -13.5 0
    endloop
  endfacet
  facet normal -1 -0 0
    outer loop
      vertex 27 -13.5 6
      vertex 27 -15 0
      vertex 27 -15 6
    endloop
  endfacet
  facet normal 0 -1 0
    outer loop
      vertex 27 -15 6
      vertex 27 -15 0
      vertex 33.3923 -15 6
    endloop
  endfacet
  facet normal 0 -1 0
    outer loop
      vertex 33.3923 -15 6
      vertex 50.3036 -15 8.83554
      vertex 47.3036 -15 14.0317
    endloop
  endfacet
  facet normal 0 -1 0
    outer loop
      vertex 35 -15 0
      vertex 33.3923 -15 6
      vertex 27 -15 0
    endloop
  endfacet
  facet normal 0 -1 0
    outer loop
      vertex 33.3923 -15 6
      vertex 35 -15 0
      vertex 50.3036 -15 8.83554
    endloop
  endfacet
  facet normal 0 1 0
    outer loop
      vertex 50.3036 15 8.83554
      vertex 33.3923 15 6
      vertex 47.3036 15 14.0317
    endloop
  endfacet
  facet normal 0 1 -0
    outer loop
      vertex 35 15 0
      vertex 33.3923 15 6
      vertex 50.3036 15 8.83554
    endloop
  endfacet
  facet normal 0 1 0
    outer loop
      vertex 27 15 0
      vertex 33.3923 15 6
      vertex 35 15 0
    endloop
  endfacet
  facet normal 0 1 0
    outer loop
      vertex 33.3923 15 6
      vertex 27 15 0
      vertex 27 15 6
    endloop
  endfacet
  facet normal -1 0 0
    outer loop
      vertex 27 13.5 0
      vertex 27 15 6
      vertex 27 15 0
    endloop
  endfacet
  facet normal -1 -0 0
    outer loop
      vertex 27 15 6
      vertex 27 13.5 0
      vertex 27 13.5 6
    endloop
  endfacet
  facet normal -0.0384331 0.999261 0
    outer loop
      vertex 27 13.5 0
      vertex 14 13 6
      vertex 27 13.5 6
    endloop
  endfacet
  facet normal -0.0384331 0.999261 0
    outer loop
      vertex 14 13 6
      vertex 27 13.5 0
      vertex 14 13 0
    endloop
  endfacet
  facet normal 0.894427 -0.447214 0
    outer loop
      vertex 14 13 6
      vertex 15 15 0
      vertex 15 15 6
    endloop
  endfacet
  facet normal 0.894427 -0.447214 0
    outer loop
      vertex 15 15 0
      vertex 14 13 6
      vertex 14 13 0
    endloop
  endfacet
  facet normal 0 1 -0
    outer loop
      vertex 15 15 0
      vertex 7.59999 15 6
      vertex 15 15 6
    endloop
  endfacet
  facet normal 0 1 0
    outer loop
      vertex 7.59999 15 6
      vertex 15 15 0
      vertex 7.59999 15 0
    endloop
  endfacet
  facet normal -0.418301 0.908309 0
    outer loop
      vertex 7.59999 15 0
      vertex 0 11.5 6
      vertex 7.59999 15 6
    endloop
  endfacet
  facet normal -0.418301 0.908309 0
    outer loop
      vertex 0 11.5 6
      vertex 7.59999 15 0
      vertex 0 11.5 0
    endloop
  endfacet
  facet normal -1 0 0
    outer loop
      vertex 0 10 0
      vertex 0 11.5 6
      vertex 0 11.5 0
    endloop
  endfacet
  facet normal -1 -0 0
    outer loop
      vertex 0 11.5 6
      vertex 0 10 0
      vertex 0 10 6
    endloop
  endfacet
  facet normal -0.184289 -0.982872 0
    outer loop
      vertex 0 10 0
      vertex 8 8.5 6
      vertex 0 10 6
    endloop
  endfacet
  facet normal -0.184289 -0.982872 -0
    outer loop
      vertex 8 8.5 6
      vertex 0 10 0
      vertex 8 8.5 0
    endloop
  endfacet
  facet normal 0 -1 0
    outer loop
      vertex 8 8.5 0
      vertex 14 8.5 6
      vertex 8 8.5 6
    endloop
  endfacet
  facet normal 0 -1 -0
    outer loop
      vertex 14 8.5 6
      vertex 8 8.5 0
      vertex 14 8.5 0
    endloop
  endfacet
  facet normal 0.729537 -0.683941 0
    outer loop
      vertex 14 8.5 6
      vertex 17 11.7 0
      vertex 17 11.7 6
    endloop
  endfacet
  facet normal 0.729537 -0.683941 0
    outer loop
      vertex 17 11.7 0
      vertex 14 8.5 6
      vertex 14 8.5 0
    endloop
  endfacet
  facet normal 0.0374737 -0.999298 0
    outer loop
      vertex 17 11.7 0
      vertex 25 12 6
      vertex 17 11.7 6
    endloop
  endfacet
  facet normal 0.0374737 -0.999298 0
    outer loop
      vertex 25 12 6
      vertex 17 11.7 0
      vertex 25 12 0
    endloop
  endfacet
  facet normal -0.894427 0.447214 0
    outer loop
      vertex 21 4 0
      vertex 25 12 6
      vertex 25 12 0
    endloop
  endfacet
  facet normal -0.894427 0.447214 0
    outer loop
      vertex 25 12 6
      vertex 21 4 0
      vertex 21 4 6
    endloop
  endfacet
  facet normal 0 1 -0
    outer loop
      vertex 21 4 0
      vertex 0 4 6
      vertex 21 4 6
    endloop
  endfacet
  facet normal 0 1 0
    outer loop
      vertex 0 4 6
      vertex 21 4 0
      vertex 0 4 0
    endloop
  endfacet
  facet normal -1 0 0
    outer loop
      vertex 0 0.2 0
      vertex 0 4 6
      vertex 0 4 0
    endloop
  endfacet
  facet normal -1 -0 0
    outer loop
      vertex 0 4 6
      vertex 0 0.2 0
      vertex 0 0.2 6
    endloop
  endfacet
  facet normal -1 0 0
    outer loop
      vertex 0 -4 0
      vertex 0 -0.2 6
      vertex 0 -0.2 0
    endloop
  endfacet
  facet normal -1 -0 0
    outer loop
      vertex 0 -0.2 6
      vertex 0 -4 0
      vertex 0 -4 6
    endloop
  endfacet
  facet normal 0 -1 0
    outer loop
      vertex 0 -4 0
      vertex 21 -4 6
      vertex 0 -4 6
    endloop
  endfacet
  facet normal 0 -1 -0
    outer loop
      vertex 21 -4 6
      vertex 0 -4 0
      vertex 21 -4 0
    endloop
  endfacet
  facet normal 0.500003 7.04485e-06 -0.866024
    outer loop
      vertex 74.9343 -3.69043 23.0561
      vertex 74.7324 -7.6263 22.9395
      vertex 73.9412 -7.21957 22.4827
    endloop
  endfacet
  facet normal 0.500007 -1.07848e-06 -0.866021
    outer loop
      vertex 73.9412 -7.21957 22.4827
      vertex 73.035 -11.021 21.9595
      vertex 72.3344 -10.4332 21.555
    endloop
  endfacet
  facet normal 0.499944 -6.53067e-07 -0.866058
    outer loop
      vertex 75.2702 0 23.25
      vertex 75.7814 -3.89833 23.5451
      vertex 74.9343 -3.69043 23.0561
    endloop
  endfacet
  facet normal 0.500001 -9.43933e-07 -0.866025
    outer loop
      vertex 74.7324 7.6263 22.9395
      vertex 73.9412 7.21957 22.4827
      vertex 73.035 11.021 21.9595
    endloop
  endfacet
  facet normal 0.500006 3.46277e-06 -0.866022
    outer loop
      vertex 68.0172 16.238 19.0625
      vertex 67.5842 15.3719 18.8125
      vertex 64.916 17.8323 17.272
    endloop
  endfacet
  facet normal 0.499992 4.01561e-06 -0.86603
    outer loop
      vertex 64.916 17.8323 17.272
      vertex 64.6484 16.8812 17.1175
      vertex 61.505 17.6528 15.3027
    endloop
  endfacet
  facet normal 0.499975 -9.09488e-05 -0.86604
    outer loop
      vertex 61.5956 18.6473 15.3549
      vertex 61.505 17.6528 15.3027
      vertex 58.2009 18.6473 13.3951
    endloop
  endfacet
  facet normal 0.499994 4.29552e-05 -0.866029
    outer loop
      vertex 58.2009 18.6473 13.3951
      vertex 58.2914 17.6528 13.4473
      vertex 54.8804 17.8323 11.478
    endloop
  endfacet
  facet normal 0.500029 6.69672e-05 -0.866009
    outer loop
      vertex 70.7635 13.934 20.6481
      vertex 70.1841 13.1908 20.3135
      vertex 67.5842 15.3719 18.8125
    endloop
  endfacet
  facet normal 0.499946 -1.09692e-05 -0.866057
    outer loop
      vertex 75.7814 3.89833 23.5451
      vertex 74.9343 3.69043 23.0561
      vertex 74.7324 7.6263 22.9395
    endloop
  endfacet
  facet normal 0.500003 1.01823e-06 -0.866024
    outer loop
      vertex 50.3036 15 8.83554
      vertex 49.6124 13.1908 8.43647
      vertex 47.4621 10.4332 7.19498
    endloop
  endfacet
  facet normal 0.499989 8.17134e-06 -0.866032
    outer loop
      vertex 50.3036 15 8.83554
      vertex 52.2123 15.3719 9.9375
      vertex 49.6124 13.1908 8.43647
    endloop
  endfacet
  facet normal 0.50005 -4.47867e-05 -0.865996
    outer loop
      vertex 72.3344 -10.4332 21.555
      vertex 70.7635 -13.934 20.6481
      vertex 70.1841 -13.1908 20.3135
    endloop
  endfacet
  facet normal 0.500003 -1.01823e-06 -0.866024
    outer loop
      vertex 49.6124 -13.1908 8.43647
      vertex 50.3036 -15 8.83554
      vertex 47.4621 -10.4332 7.19498
    endloop
  endfacet
  facet normal 0.499996 9.34732e-05 -0.866028
    outer loop
      vertex 64.916 -17.8323 17.272
      vertex 61.5956 -18.6473 15.3549
      vertex 61.505 -17.6528 15.3027
    endloop
  endfacet
  facet normal 0.500005 -4.43806e-05 -0.866022
    outer loop
      vertex 58.2914 -17.6528 13.4473
      vertex 61.505 -17.6528 15.3027
      vertex 58.2009 -18.6473 13.3951
    endloop
  endfacet
  facet normal 0.499989 -8.17134e-06 -0.866032
    outer loop
      vertex 52.2123 -15.3719 9.9375
      vertex 50.3036 -15 8.83554
      vertex 49.6124 -13.1908 8.43647
    endloop
  endfacet
  facet normal 0.499994 -4.29552e-05 -0.866029
    outer loop
      vertex 58.2914 -17.6528 13.4473
      vertex 58.2009 -18.6473 13.3951
      vertex 54.8804 -17.8323 11.478
    endloop
  endfacet
  facet normal 0.499975 9.09488e-05 -0.86604
    outer loop
      vertex 61.505 -17.6528 15.3027
      vertex 61.5956 -18.6473 15.3549
      vertex 58.2009 -18.6473 13.3951
    endloop
  endfacet
  facet normal 0.500007 -2.61638e-06 -0.866021
    outer loop
      vertex 70.7635 -13.934 20.6481
      vertex 68.0172 -16.238 19.0625
      vertex 67.5842 -15.3719 18.8125
    endloop
  endfacet
  facet normal 0.500014 -4.4303e-06 -0.866017
    outer loop
      vertex 55.148 -16.8812 11.6325
      vertex 54.8804 -17.8323 11.478
      vertex 52.2123 -15.3719 9.9375
    endloop
  endfacet
  facet normal 0.499992 4.01561e-06 -0.86603
    outer loop
      vertex 55.148 -16.8812 11.6325
      vertex 58.2914 -17.6528 13.4473
      vertex 54.8804 -17.8323 11.478
    endloop
  endfacet
  facet normal 0.499988 -4.24624e-05 -0.866032
    outer loop
      vertex 52.2123 -15.3719 9.9375
      vertex 54.8804 -17.8323 11.478
      vertex 51.7792 -16.238 9.6875
    endloop
  endfacet
  facet normal 0.499984 -4.00395e-05 -0.866034
    outer loop
      vertex 52.2123 -15.3719 9.9375
      vertex 51.7792 -16.238 9.6875
      vertex 50.3036 -15 8.83554
    endloop
  endfacet
  facet normal 0.5 -3.55768e-06 -0.866025
    outer loop
      vertex 47.4621 -10.4332 7.19498
      vertex 50.3036 -15 8.83554
      vertex 35 -15 0
    endloop
  endfacet
  facet normal 0.499999 -1.3101e-06 -0.866026
    outer loop
      vertex 45.8553 -7.21957 6.26729
      vertex 47.4621 -10.4332 7.19498
      vertex 35 -15 0
    endloop
  endfacet
  facet normal 0.499996 5.04148e-06 -0.866028
    outer loop
      vertex 44.8622 -3.69043 5.69395
      vertex 45.8553 -7.21957 6.26729
      vertex 35 -15 0
    endloop
  endfacet
  facet normal 0.500039 8.20191e-07 -0.866003
    outer loop
      vertex 44.8622 -3.69043 5.69395
      vertex 44.3993 -0.2 5.42667
      vertex 44.5445 -0.2 5.51051
    endloop
  endfacet
  facet normal 0.500005 -5.22692e-06 -0.866023
    outer loop
      vertex 44.3993 -0.2 5.42667
      vertex 44.8622 -3.69043 5.69395
      vertex 35 -15 0
    endloop
  endfacet
  facet normal 0.499999 0 -0.866026
    outer loop
      vertex 35 -0.2 0
      vertex 44.3993 -0.2 5.42667
      vertex 35 -15 0
    endloop
  endfacet
  facet normal 0.499999 0 -0.866026
    outer loop
      vertex 35 15 0
      vertex 44.3993 0.2 5.42667
      vertex 35 0.2 0
    endloop
  endfacet
  facet normal 0.500039 -8.20191e-07 -0.866003
    outer loop
      vertex 44.3993 0.2 5.42667
      vertex 44.8622 3.69043 5.69395
      vertex 44.5445 0.2 5.51051
    endloop
  endfacet
  facet normal 0.500005 5.22692e-06 -0.866023
    outer loop
      vertex 44.8622 3.69043 5.69395
      vertex 44.3993 0.2 5.42667
      vertex 35 15 0
    endloop
  endfacet
  facet normal 0.499996 -5.04148e-06 -0.866028
    outer loop
      vertex 45.8553 7.21957 6.26729
      vertex 44.8622 3.69043 5.69395
      vertex 35 15 0
    endloop
  endfacet
  facet normal 0.5 3.55768e-06 -0.866025
    outer loop
      vertex 50.3036 15 8.83554
      vertex 47.4621 10.4332 7.19498
      vertex 35 15 0
    endloop
  endfacet
  facet normal 0.499999 1.3101e-06 -0.866026
    outer loop
      vertex 47.4621 10.4332 7.19498
      vertex 45.8553 7.21957 6.26729
      vertex 35 15 0
    endloop
  endfacet
  facet normal 0.499984 4.00395e-05 -0.866034
    outer loop
      vertex 51.7792 16.238 9.6875
      vertex 52.2123 15.3719 9.9375
      vertex 50.3036 15 8.83554
    endloop
  endfacet
  facet normal 0.500014 4.4303e-06 -0.866017
    outer loop
      vertex 54.8804 17.8323 11.478
      vertex 55.148 16.8812 11.6325
      vertex 52.2123 15.3719 9.9375
    endloop
  endfacet
  facet normal 0.499988 4.24624e-05 -0.866032
    outer loop
      vertex 54.8804 17.8323 11.478
      vertex 52.2123 15.3719 9.9375
      vertex 51.7792 16.238 9.6875
    endloop
  endfacet
  facet normal 0.499992 -4.01561e-06 -0.86603
    outer loop
      vertex 58.2914 17.6528 13.4473
      vertex 55.148 16.8812 11.6325
      vertex 54.8804 17.8323 11.478
    endloop
  endfacet
  facet normal 0.500005 4.43806e-05 -0.866022
    outer loop
      vertex 61.505 17.6528 15.3027
      vertex 58.2914 17.6528 13.4473
      vertex 58.2009 18.6473 13.3951
    endloop
  endfacet
  facet normal 0.499996 -9.34732e-05 -0.866028
    outer loop
      vertex 61.5956 18.6473 15.3549
      vertex 64.916 17.8323 17.272
      vertex 61.505 17.6528 15.3027
    endloop
  endfacet
  facet normal 0.500003 -2.43864e-07 -0.866024
    outer loop
      vertex 64.916 17.8323 17.272
      vertex 67.5842 15.3719 18.8125
      vertex 64.6484 16.8812 17.1175
    endloop
  endfacet
  facet normal 0.500007 2.61638e-06 -0.866021
    outer loop
      vertex 68.0172 16.238 19.0625
      vertex 70.7635 13.934 20.6481
      vertex 67.5842 15.3719 18.8125
    endloop
  endfacet
  facet normal 0.499999 1.40856e-05 -0.866026
    outer loop
      vertex 73.035 11.021 21.9595
      vertex 72.3344 10.4332 21.555
      vertex 70.7635 13.934 20.6481
    endloop
  endfacet
  facet normal 0.50005 4.47867e-05 -0.865996
    outer loop
      vertex 70.7635 13.934 20.6481
      vertex 72.3344 10.4332 21.555
      vertex 70.1841 13.1908 20.3135
    endloop
  endfacet
  facet normal 0.500007 1.07848e-06 -0.866021
    outer loop
      vertex 73.035 11.021 21.9595
      vertex 73.9412 7.21957 22.4827
      vertex 72.3344 10.4332 21.555
    endloop
  endfacet
  facet normal 0.500003 -7.04485e-06 -0.866024
    outer loop
      vertex 74.7324 7.6263 22.9395
      vertex 74.9343 3.69043 23.0561
      vertex 73.9412 7.21957 22.4827
    endloop
  endfacet
  facet normal 0.500011 -1.11332e-05 -0.866019
    outer loop
      vertex 75.7814 3.89833 23.5451
      vertex 76.1362 0 23.75
      vertex 75.2702 0 23.25
    endloop
  endfacet
  facet normal 0.499944 6.53067e-07 -0.866058
    outer loop
      vertex 75.7814 3.89833 23.5451
      vertex 75.2702 0 23.25
      vertex 74.9343 3.69043 23.0561
    endloop
  endfacet
  facet normal 0.500011 1.11332e-05 -0.866019
    outer loop
      vertex 76.1362 0 23.75
      vertex 75.7814 -3.89833 23.5451
      vertex 75.2702 0 23.25
    endloop
  endfacet
  facet normal 0.499946 1.09692e-05 -0.866057
    outer loop
      vertex 74.9343 -3.69043 23.0561
      vertex 75.7814 -3.89833 23.5451
      vertex 74.7324 -7.6263 22.9395
    endloop
  endfacet
  facet normal 0.500001 9.43933e-07 -0.866025
    outer loop
      vertex 73.9412 -7.21957 22.4827
      vertex 74.7324 -7.6263 22.9395
      vertex 73.035 -11.021 21.9595
    endloop
  endfacet
  facet normal 0.499999 -1.40856e-05 -0.866026
    outer loop
      vertex 72.3344 -10.4332 21.555
      vertex 73.035 -11.021 21.9595
      vertex 70.7635 -13.934 20.6481
    endloop
  endfacet
  facet normal 0.500029 -6.69672e-05 -0.866009
    outer loop
      vertex 70.1841 -13.1908 20.3135
      vertex 70.7635 -13.934 20.6481
      vertex 67.5842 -15.3719 18.8125
    endloop
  endfacet
  facet normal 0.500006 -3.46277e-06 -0.866022
    outer loop
      vertex 67.5842 -15.3719 18.8125
      vertex 68.0172 -16.238 19.0625
      vertex 64.916 -17.8323 17.272
    endloop
  endfacet
  facet normal 0.499992 -4.01561e-06 -0.86603
    outer loop
      vertex 64.6484 -16.8812 17.1175
      vertex 64.916 -17.8323 17.272
      vertex 61.505 -17.6528 15.3027
    endloop
  endfacet
  facet normal 0.500003 2.43864e-07 -0.866024
    outer loop
      vertex 67.5842 -15.3719 18.8125
      vertex 64.916 -17.8323 17.272
      vertex 64.6484 -16.8812 17.1175
    endloop
  endfacet
  facet normal -0.499923 -1.25161e-05 0.86607
    outer loop
      vertex 71.7324 -7.6263 28.1356
      vertex 71.9343 -3.69043 28.2522
      vertex 70.9412 -7.21957 27.6789
    endloop
  endfacet
  facet normal -0.500007 1.07848e-06 0.866021
    outer loop
      vertex 70.035 -11.021 27.1557
      vertex 70.9412 -7.21957 27.6789
      vertex 69.3344 -10.4332 26.7512
    endloop
  endfacet
  facet normal -0.500023 -1.31988e-05 0.866012
    outer loop
      vertex 72.7814 -3.89833 28.7413
      vertex 72.2702 0 28.4462
      vertex 71.9343 -3.69043 28.2522
    endloop
  endfacet
  facet normal -0.499928 2.41895e-05 0.866067
    outer loop
      vertex 70.9412 7.21957 27.6789
      vertex 71.7324 7.6263 28.1356
      vertex 70.035 11.021 27.1557
    endloop
  endfacet
  facet normal -0.500006 -3.46277e-06 0.866022
    outer loop
      vertex 64.5842 15.3719 24.0087
      vertex 65.0172 16.238 24.2587
      vertex 61.916 17.8323 22.4682
    endloop
  endfacet
  facet normal -0.500011 3.23521e-06 0.866019
    outer loop
      vertex 61.6484 16.8812 22.3137
      vertex 61.916 17.8323 22.4682
      vertex 58.505 17.6528 20.4988
    endloop
  endfacet
  facet normal -0.499994 6.1899e-06 0.866029
    outer loop
      vertex 58.505 17.6528 20.4988
      vertex 58.5956 18.6473 20.5511
      vertex 55.2009 18.6473 18.5912
    endloop
  endfacet
  facet normal -0.500009 4.22237e-05 0.86602
    outer loop
      vertex 55.2914 17.6528 18.6435
      vertex 55.2009 18.6473 18.5912
      vertex 51.8804 17.8323 16.6741
    endloop
  endfacet
  facet normal -0.499985 3.48205e-06 0.866034
    outer loop
      vertex 67.1841 13.1908 25.5097
      vertex 67.7635 13.934 25.8442
      vertex 64.5842 15.3719 24.0087
    endloop
  endfacet
  facet normal -0.500021 5.78958e-06 0.866013
    outer loop
      vertex 71.9343 3.69043 28.2522
      vertex 72.7814 3.89833 28.7413
      vertex 71.7324 7.6263 28.1356
    endloop
  endfacet
  facet normal -0.499982 -2.61565e-05 0.866036
    outer loop
      vertex 46.6124 13.1908 13.6326
      vertex 47.3036 15 14.0317
      vertex 44.4621 10.4332 12.3911
    endloop
  endfacet
  facet normal -0.500002 -1.61951e-05 0.866025
    outer loop
      vertex 49.2123 15.3719 15.1337
      vertex 47.3036 15 14.0317
      vertex 46.6124 13.1908 13.6326
    endloop
  endfacet
  facet normal -0.499994 -1.34815e-05 0.866029
    outer loop
      vertex 67.7635 -13.934 25.8442
      vertex 69.3344 -10.4332 26.7512
      vertex 67.1841 -13.1908 25.5097
    endloop
  endfacet
  facet normal -0.499982 2.61565e-05 0.866036
    outer loop
      vertex 47.3036 -15 14.0317
      vertex 46.6124 -13.1908 13.6326
      vertex 44.4621 -10.4332 12.3911
    endloop
  endfacet
  facet normal -0.500011 -8.29598e-06 0.866019
    outer loop
      vertex 58.5956 -18.6473 20.5511
      vertex 61.916 -17.8323 22.4682
      vertex 58.505 -17.6528 20.4988
    endloop
  endfacet
  facet normal -0.499985 -4.51535e-05 0.866034
    outer loop
      vertex 58.505 -17.6528 20.4988
      vertex 55.2914 -17.6528 18.6435
      vertex 55.2009 -18.6473 18.5912
    endloop
  endfacet
  facet normal -0.500002 1.61951e-05 0.866025
    outer loop
      vertex 47.3036 -15 14.0317
      vertex 49.2123 -15.3719 15.1337
      vertex 46.6124 -13.1908 13.6326
    endloop
  endfacet
  facet normal -0.500009 -4.22237e-05 0.86602
    outer loop
      vertex 55.2009 -18.6473 18.5912
      vertex 55.2914 -17.6528 18.6435
      vertex 51.8804 -17.8323 16.6741
    endloop
  endfacet
  facet normal -0.499994 -6.1899e-06 0.866029
    outer loop
      vertex 58.5956 -18.6473 20.5511
      vertex 58.505 -17.6528 20.4988
      vertex 55.2009 -18.6473 18.5912
    endloop
  endfacet
  facet normal -0.49999 1.37233e-05 0.866031
    outer loop
      vertex 65.0172 -16.238 24.2587
      vertex 67.7635 -13.934 25.8442
      vertex 64.5842 -15.3719 24.0087
    endloop
  endfacet
  facet normal -0.499995 -2.8208e-06 0.866028
    outer loop
      vertex 51.8804 -17.8323 16.6741
      vertex 52.148 -16.8812 16.8286
      vertex 49.2123 -15.3719 15.1337
    endloop
  endfacet
  facet normal -0.500011 3.23521e-06 0.866019
    outer loop
      vertex 55.2914 -17.6528 18.6435
      vertex 52.148 -16.8812 16.8286
      vertex 51.8804 -17.8323 16.6741
    endloop
  endfacet
  facet normal -0.499971 3.1354e-05 0.866042
    outer loop
      vertex 51.8804 -17.8323 16.6741
      vertex 49.2123 -15.3719 15.1337
      vertex 48.7792 -16.238 14.8837
    endloop
  endfacet
  facet normal -0.499997 4.8309e-05 0.866027
    outer loop
      vertex 48.7792 -16.238 14.8837
      vertex 49.2123 -15.3719 15.1337
      vertex 47.3036 -15 14.0317
    endloop
  endfacet
  facet normal -0.499997 0 0.866027
    outer loop
      vertex 33.3923 -15 6
      vertex 44.4621 -10.4332 12.3911
      vertex 33.3923 -14.4898 6
    endloop
  endfacet
  facet normal -0.5 1.09494e-05 0.866025
    outer loop
      vertex 44.4621 -10.4332 12.3911
      vertex 33.3923 -15 6
      vertex 47.3036 -15 14.0317
    endloop
  endfacet
  facet normal -0.499998 4.90533e-06 0.866026
    outer loop
      vertex 33.3923 -14.0021 6
      vertex 44.4621 -10.4332 12.3911
      vertex 42.8553 -7.21957 11.4634
    endloop
  endfacet
  facet normal -0.499997 0 0.866027
    outer loop
      vertex 44.4621 -10.4332 12.3911
      vertex 33.3923 -14.0021 6
      vertex 33.3923 -14.4898 6
    endloop
  endfacet
  facet normal -0.499989 -1.23679e-05 0.866032
    outer loop
      vertex 33.3923 -13.4034 6
      vertex 42.8553 -7.21957 11.4634
      vertex 41.8622 -3.69043 10.8901
    endloop
  endfacet
  facet normal -0.499995 0 0.866028
    outer loop
      vertex 42.8553 -7.21957 11.4634
      vertex 33.3923 -13.4034 6
      vertex 33.3923 -14.0021 6
    endloop
  endfacet
  facet normal -0.500307 -4.33086e-05 0.865848
    outer loop
      vertex 41.3993 -0.2 10.6228
      vertex 41.8622 -3.69043 10.8901
      vertex 41.5445 -0.2 10.7067
    endloop
  endfacet
  facet normal -0.500008 9.66353e-06 0.866021
    outer loop
      vertex 33.3923 -12.8077 6
      vertex 41.8622 -3.69043 10.8901
      vertex 41.3993 -0.2 10.6228
    endloop
  endfacet
  facet normal -0.5 0 0.866025
    outer loop
      vertex 41.8622 -3.69043 10.8901
      vertex 33.3923 -12.8077 6
      vertex 33.3923 -13.4034 6
    endloop
  endfacet
  facet normal -0.499996 0 0.866027
    outer loop
      vertex 41.3993 -0.2 10.6228
      vertex 33.3923 -0.2 6
      vertex 33.3923 -12.8077 6
    endloop
  endfacet
  facet normal -0.499996 0 0.866027
    outer loop
      vertex 41.3993 0.2 10.6228
      vertex 33.3923 12.8077 6
      vertex 33.3923 0.2 6
    endloop
  endfacet
  facet normal -0.500307 4.33086e-05 0.865848
    outer loop
      vertex 41.8622 3.69043 10.8901
      vertex 41.3993 0.2 10.6228
      vertex 41.5445 0.2 10.7067
    endloop
  endfacet
  facet normal -0.5 0 0.866025
    outer loop
      vertex 33.3923 12.8077 6
      vertex 41.8622 3.69043 10.8901
      vertex 33.3923 13.4034 6
    endloop
  endfacet
  facet normal -0.500008 -9.66353e-06 0.866021
    outer loop
      vertex 41.8622 3.69043 10.8901
      vertex 33.3923 12.8077 6
      vertex 41.3993 0.2 10.6228
    endloop
  endfacet
  facet normal -0.499995 0 0.866028
    outer loop
      vertex 33.3923 13.4034 6
      vertex 42.8553 7.21957 11.4634
      vertex 33.3923 14.0021 6
    endloop
  endfacet
  facet normal -0.499989 1.23679e-05 0.866032
    outer loop
      vertex 42.8553 7.21957 11.4634
      vertex 33.3923 13.4034 6
      vertex 41.8622 3.69043 10.8901
    endloop
  endfacet
  facet normal -0.5 -1.09494e-05 0.866025
    outer loop
      vertex 33.3923 15 6
      vertex 44.4621 10.4332 12.3911
      vertex 47.3036 15 14.0317
    endloop
  endfacet
  facet normal -0.499997 0 0.866027
    outer loop
      vertex 44.4621 10.4332 12.3911
      vertex 33.3923 15 6
      vertex 33.3923 14.4898 6
    endloop
  endfacet
  facet normal -0.499997 0 0.866027
    outer loop
      vertex 33.3923 14.0021 6
      vertex 44.4621 10.4332 12.3911
      vertex 33.3923 14.4898 6
    endloop
  endfacet
  facet normal -0.499998 -4.90533e-06 0.866026
    outer loop
      vertex 44.4621 10.4332 12.3911
      vertex 33.3923 14.0021 6
      vertex 42.8553 7.21957 11.4634
    endloop
  endfacet
  facet normal -0.499997 -4.8309e-05 0.866027
    outer loop
      vertex 49.2123 15.3719 15.1337
      vertex 48.7792 16.238 14.8837
      vertex 47.3036 15 14.0317
    endloop
  endfacet
  facet normal -0.499995 2.8208e-06 0.866028
    outer loop
      vertex 52.148 16.8812 16.8286
      vertex 51.8804 17.8323 16.6741
      vertex 49.2123 15.3719 15.1337
    endloop
  endfacet
  facet normal -0.499971 -3.1354e-05 0.866042
    outer loop
      vertex 49.2123 15.3719 15.1337
      vertex 51.8804 17.8323 16.6741
      vertex 48.7792 16.238 14.8837
    endloop
  endfacet
  facet normal -0.500011 -3.23521e-06 0.866019
    outer loop
      vertex 52.148 16.8812 16.8286
      vertex 55.2914 17.6528 18.6435
      vertex 51.8804 17.8323 16.6741
    endloop
  endfacet
  facet normal -0.499985 4.51535e-05 0.866034
    outer loop
      vertex 55.2914 17.6528 18.6435
      vertex 58.505 17.6528 20.4988
      vertex 55.2009 18.6473 18.5912
    endloop
  endfacet
  facet normal -0.500011 8.29598e-06 0.866019
    outer loop
      vertex 61.916 17.8323 22.4682
      vertex 58.5956 18.6473 20.5511
      vertex 58.505 17.6528 20.4988
    endloop
  endfacet
  facet normal -0.500003 2.43864e-07 0.866024
    outer loop
      vertex 64.5842 15.3719 24.0087
      vertex 61.916 17.8323 22.4682
      vertex 61.6484 16.8812 22.3137
    endloop
  endfacet
  facet normal -0.49999 -1.37233e-05 0.866031
    outer loop
      vertex 67.7635 13.934 25.8442
      vertex 65.0172 16.238 24.2587
      vertex 64.5842 15.3719 24.0087
    endloop
  endfacet
  facet normal -0.50001 3.88627e-06 0.866019
    outer loop
      vertex 69.3344 10.4332 26.7512
      vertex 70.035 11.021 27.1557
      vertex 67.7635 13.934 25.8442
    endloop
  endfacet
  facet normal -0.499994 1.34815e-05 0.866029
    outer loop
      vertex 69.3344 10.4332 26.7512
      vertex 67.7635 13.934 25.8442
      vertex 67.1841 13.1908 25.5097
    endloop
  endfacet
  facet normal -0.500007 -1.07848e-06 0.866021
    outer loop
      vertex 70.9412 7.21957 27.6789
      vertex 70.035 11.021 27.1557
      vertex 69.3344 10.4332 26.7512
    endloop
  endfacet
  facet normal -0.499923 1.25161e-05 0.86607
    outer loop
      vertex 71.9343 3.69043 28.2522
      vertex 71.7324 7.6263 28.1356
      vertex 70.9412 7.21957 27.6789
    endloop
  endfacet
  facet normal -0.500011 1.11332e-05 0.866019
    outer loop
      vertex 73.1362 0 28.9462
      vertex 72.7814 3.89833 28.7413
      vertex 72.2702 0 28.4462
    endloop
  endfacet
  facet normal -0.500023 1.31988e-05 0.866012
    outer loop
      vertex 72.2702 0 28.4462
      vertex 72.7814 3.89833 28.7413
      vertex 71.9343 3.69043 28.2522
    endloop
  endfacet
  facet normal -0.500011 -1.11332e-05 0.866019
    outer loop
      vertex 72.7814 -3.89833 28.7413
      vertex 73.1362 0 28.9462
      vertex 72.2702 0 28.4462
    endloop
  endfacet
  facet normal -0.500021 -5.78958e-06 0.866013
    outer loop
      vertex 72.7814 -3.89833 28.7413
      vertex 71.9343 -3.69043 28.2522
      vertex 71.7324 -7.6263 28.1356
    endloop
  endfacet
  facet normal -0.499928 -2.41895e-05 0.866067
    outer loop
      vertex 71.7324 -7.6263 28.1356
      vertex 70.9412 -7.21957 27.6789
      vertex 70.035 -11.021 27.1557
    endloop
  endfacet
  facet normal -0.50001 -3.88627e-06 0.866019
    outer loop
      vertex 70.035 -11.021 27.1557
      vertex 69.3344 -10.4332 26.7512
      vertex 67.7635 -13.934 25.8442
    endloop
  endfacet
  facet normal -0.499985 -3.48205e-06 0.866034
    outer loop
      vertex 67.7635 -13.934 25.8442
      vertex 67.1841 -13.1908 25.5097
      vertex 64.5842 -15.3719 24.0087
    endloop
  endfacet
  facet normal -0.500006 3.46277e-06 0.866022
    outer loop
      vertex 65.0172 -16.238 24.2587
      vertex 64.5842 -15.3719 24.0087
      vertex 61.916 -17.8323 22.4682
    endloop
  endfacet
  facet normal -0.500011 -3.23521e-06 0.866019
    outer loop
      vertex 61.916 -17.8323 22.4682
      vertex 61.6484 -16.8812 22.3137
      vertex 58.505 -17.6528 20.4988
    endloop
  endfacet
  facet normal -0.500003 -2.43864e-07 0.866024
    outer loop
      vertex 61.916 -17.8323 22.4682
      vertex 64.5842 -15.3719 24.0087
      vertex 61.6484 -16.8812 22.3137
    endloop
  endfacet
  facet normal 0.352236 -0.91355 0.203362
    outer loop
      vertex 61.916 -17.8323 22.4682
      vertex 68.0172 -16.238 19.0625
      vertex 65.0172 -16.238 24.2587
    endloop
  endfacet
  facet normal 0.352236 -0.91355 0.203362
    outer loop
      vertex 68.0172 -16.238 19.0625
      vertex 61.916 -17.8323 22.4682
      vertex 64.916 -17.8323 17.272
    endloop
  endfacet
  facet normal 0.509043 -0.809011 0.293899
    outer loop
      vertex 65.0172 -16.238 24.2587
      vertex 70.7635 -13.934 20.6481
      vertex 67.7635 -13.934 25.8442
    endloop
  endfacet
  facet normal 0.50904 -0.809015 0.293892
    outer loop
      vertex 70.7635 -13.934 20.6481
      vertex 65.0172 -16.238 24.2587
      vertex 68.0172 -16.238 19.0625
    endloop
  endfacet
  facet normal 0.643578 -0.669138 0.371567
    outer loop
      vertex 67.7635 -13.934 25.8442
      vertex 73.035 -11.021 21.9595
      vertex 70.035 -11.021 27.1557
    endloop
  endfacet
  facet normal 0.643581 -0.669131 0.371575
    outer loop
      vertex 73.035 -11.021 21.9595
      vertex 67.7635 -13.934 25.8442
      vertex 70.7635 -13.934 20.6481
    endloop
  endfacet
  facet normal 0.749997 -0.500002 0.433015
    outer loop
      vertex 70.035 -11.021 27.1557
      vertex 74.7324 -7.6263 22.9395
      vertex 71.7324 -7.6263 28.1356
    endloop
  endfacet
  facet normal 0.749996 -0.500012 0.433006
    outer loop
      vertex 74.7324 -7.6263 22.9395
      vertex 70.035 -11.021 27.1557
      vertex 73.035 -11.021 21.9595
    endloop
  endfacet
  facet normal 0.82364 -0.309022 0.475524
    outer loop
      vertex 71.7324 -7.6263 28.1356
      vertex 75.7814 -3.89833 23.5451
      vertex 72.7814 -3.89833 28.7413
    endloop
  endfacet
  facet normal 0.823639 -0.30901 0.475533
    outer loop
      vertex 75.7814 -3.89833 23.5451
      vertex 71.7324 -7.6263 28.1356
      vertex 74.7324 -7.6263 22.9395
    endloop
  endfacet
  facet normal 0.861284 -0.104525 0.497258
    outer loop
      vertex 72.7814 -3.89833 28.7413
      vertex 76.1362 0 23.75
      vertex 73.1362 0 28.9462
    endloop
  endfacet
  facet normal 0.861284 -0.104525 0.497258
    outer loop
      vertex 76.1362 0 23.75
      vertex 72.7814 -3.89833 28.7413
      vertex 75.7814 -3.89833 23.5451
    endloop
  endfacet
  facet normal 0.861284 0.104525 0.497258
    outer loop
      vertex 76.1362 0 23.75
      vertex 72.7814 3.89833 28.7413
      vertex 73.1362 0 28.9462
    endloop
  endfacet
  facet normal 0.861284 0.104525 0.497258
    outer loop
      vertex 72.7814 3.89833 28.7413
      vertex 76.1362 0 23.75
      vertex 75.7814 3.89833 23.5451
    endloop
  endfacet
  facet normal 0.82364 0.309022 0.475524
    outer loop
      vertex 75.7814 3.89833 23.5451
      vertex 71.7324 7.6263 28.1356
      vertex 72.7814 3.89833 28.7413
    endloop
  endfacet
  facet normal 0.823639 0.30901 0.475533
    outer loop
      vertex 71.7324 7.6263 28.1356
      vertex 75.7814 3.89833 23.5451
      vertex 74.7324 7.6263 22.9395
    endloop
  endfacet
  facet normal 0.749997 0.500002 0.433015
    outer loop
      vertex 74.7324 7.6263 22.9395
      vertex 70.035 11.021 27.1557
      vertex 71.7324 7.6263 28.1356
    endloop
  endfacet
  facet normal 0.749996 0.500012 0.433006
    outer loop
      vertex 70.035 11.021 27.1557
      vertex 74.7324 7.6263 22.9395
      vertex 73.035 11.021 21.9595
    endloop
  endfacet
  facet normal 0.643578 0.669138 0.371567
    outer loop
      vertex 73.035 11.021 21.9595
      vertex 67.7635 13.934 25.8442
      vertex 70.035 11.021 27.1557
    endloop
  endfacet
  facet normal 0.643581 0.669131 0.371575
    outer loop
      vertex 67.7635 13.934 25.8442
      vertex 73.035 11.021 21.9595
      vertex 70.7635 13.934 20.6481
    endloop
  endfacet
  facet normal 0.509043 0.809011 0.293899
    outer loop
      vertex 70.7635 13.934 20.6481
      vertex 65.0172 16.238 24.2587
      vertex 67.7635 13.934 25.8442
    endloop
  endfacet
  facet normal 0.50904 0.809015 0.293892
    outer loop
      vertex 65.0172 16.238 24.2587
      vertex 70.7635 13.934 20.6481
      vertex 68.0172 16.238 19.0625
    endloop
  endfacet
  facet normal 0.352236 0.91355 0.203362
    outer loop
      vertex 68.0172 16.238 19.0625
      vertex 61.916 17.8323 22.4682
      vertex 65.0172 16.238 24.2587
    endloop
  endfacet
  facet normal 0.352236 0.91355 0.203362
    outer loop
      vertex 61.916 17.8323 22.4682
      vertex 68.0172 16.238 19.0625
      vertex 64.916 17.8323 17.272
    endloop
  endfacet
  facet normal 0.180065 0.978146 0.10396
    outer loop
      vertex 64.916 17.8323 17.272
      vertex 58.5956 18.6473 20.5511
      vertex 61.916 17.8323 22.4682
    endloop
  endfacet
  facet normal 0.180065 0.978146 0.10396
    outer loop
      vertex 58.5956 18.6473 20.5511
      vertex 64.916 17.8323 17.272
      vertex 61.5956 18.6473 15.3549
    endloop
  endfacet
  facet normal 0 1 0
    outer loop
      vertex 61.5956 18.6473 15.3549
      vertex 55.2009 18.6473 18.5912
      vertex 58.5956 18.6473 20.5511
    endloop
  endfacet
  facet normal 0 1 0
    outer loop
      vertex 55.2009 18.6473 18.5912
      vertex 61.5956 18.6473 15.3549
      vertex 58.2009 18.6473 13.3951
    endloop
  endfacet
  facet normal -0.18006 0.978147 -0.103959
    outer loop
      vertex 58.2009 18.6473 13.3951
      vertex 51.8804 17.8323 16.6741
      vertex 55.2009 18.6473 18.5912
    endloop
  endfacet
  facet normal -0.18006 0.978147 -0.103959
    outer loop
      vertex 51.8804 17.8323 16.6741
      vertex 58.2009 18.6473 13.3951
      vertex 54.8804 17.8323 11.478
    endloop
  endfacet
  facet normal -0.352238 0.913548 -0.203367
    outer loop
      vertex 54.8804 17.8323 11.478
      vertex 48.7792 16.238 14.8837
      vertex 51.8804 17.8323 16.6741
    endloop
  endfacet
  facet normal -0.352236 0.91355 -0.203362
    outer loop
      vertex 48.7792 16.238 14.8837
      vertex 54.8804 17.8323 11.478
      vertex 51.7792 16.238 9.6875
    endloop
  endfacet
  facet normal -0.509049 0.809008 -0.293897
    outer loop
      vertex 51.7792 16.238 9.6875
      vertex 47.3036 15 14.0317
      vertex 48.7792 16.238 14.8837
    endloop
  endfacet
  facet normal -0.509052 0.809005 -0.293901
    outer loop
      vertex 47.3036 15 14.0317
      vertex 51.7792 16.238 9.6875
      vertex 50.3036 15 8.83554
    endloop
  endfacet
  facet normal -0.509049 -0.809008 -0.293897
    outer loop
      vertex 47.3036 -15 14.0317
      vertex 51.7792 -16.238 9.6875
      vertex 48.7792 -16.238 14.8837
    endloop
  endfacet
  facet normal -0.509052 -0.809005 -0.293901
    outer loop
      vertex 51.7792 -16.238 9.6875
      vertex 47.3036 -15 14.0317
      vertex 50.3036 -15 8.83554
    endloop
  endfacet
  facet normal -0.352238 -0.913548 -0.203367
    outer loop
      vertex 48.7792 -16.238 14.8837
      vertex 54.8804 -17.8323 11.478
      vertex 51.8804 -17.8323 16.6741
    endloop
  endfacet
  facet normal -0.352236 -0.91355 -0.203362
    outer loop
      vertex 54.8804 -17.8323 11.478
      vertex 48.7792 -16.238 14.8837
      vertex 51.7792 -16.238 9.6875
    endloop
  endfacet
  facet normal -0.18006 -0.978147 -0.103959
    outer loop
      vertex 51.8804 -17.8323 16.6741
      vertex 58.2009 -18.6473 13.3951
      vertex 55.2009 -18.6473 18.5912
    endloop
  endfacet
  facet normal -0.18006 -0.978147 -0.103959
    outer loop
      vertex 58.2009 -18.6473 13.3951
      vertex 51.8804 -17.8323 16.6741
      vertex 54.8804 -17.8323 11.478
    endloop
  endfacet
  facet normal 0 -1 0
    outer loop
      vertex 55.2009 -18.6473 18.5912
      vertex 61.5956 -18.6473 15.3549
      vertex 58.5956 -18.6473 20.5511
    endloop
  endfacet
  facet normal -0 -1 0
    outer loop
      vertex 61.5956 -18.6473 15.3549
      vertex 55.2009 -18.6473 18.5912
      vertex 58.2009 -18.6473 13.3951
    endloop
  endfacet
  facet normal 0.180065 -0.978146 0.10396
    outer loop
      vertex 58.5956 -18.6473 20.5511
      vertex 64.916 -17.8323 17.272
      vertex 61.916 -17.8323 22.4682
    endloop
  endfacet
  facet normal 0.180065 -0.978146 0.10396
    outer loop
      vertex 64.916 -17.8323 17.272
      vertex 58.5956 -18.6473 20.5511
      vertex 61.5956 -18.6473 15.3549
    endloop
  endfacet
  facet normal 0.180075 0.978143 0.103965
    outer loop
      vertex 58.2914 -17.6528 13.4473
      vertex 52.148 -16.8812 16.8286
      vertex 55.2914 -17.6528 18.6435
    endloop
  endfacet
  facet normal 0.180077 0.978143 0.103968
    outer loop
      vertex 52.148 -16.8812 16.8286
      vertex 58.2914 -17.6528 13.4473
      vertex 55.148 -16.8812 11.6325
    endloop
  endfacet
  facet normal 0.352252 0.913541 0.203375
    outer loop
      vertex 55.148 -16.8812 11.6325
      vertex 49.2123 -15.3719 15.1337
      vertex 52.148 -16.8812 16.8286
    endloop
  endfacet
  facet normal 0.35225 0.913543 0.20337
    outer loop
      vertex 49.2123 -15.3719 15.1337
      vertex 55.148 -16.8812 11.6325
      vertex 52.2123 -15.3719 9.9375
    endloop
  endfacet
  facet normal 0.509027 0.809027 0.293884
    outer loop
      vertex 52.2123 -15.3719 9.9375
      vertex 46.6124 -13.1908 13.6326
      vertex 49.2123 -15.3719 15.1337
    endloop
  endfacet
  facet normal 0.509029 0.809023 0.293889
    outer loop
      vertex 46.6124 -13.1908 13.6326
      vertex 52.2123 -15.3719 9.9375
      vertex 49.6124 -13.1908 8.43647
    endloop
  endfacet
  facet normal 0.64358 0.669132 0.371573
    outer loop
      vertex 49.6124 -13.1908 8.43647
      vertex 44.4621 -10.4332 12.3911
      vertex 46.6124 -13.1908 13.6326
    endloop
  endfacet
  facet normal 0.643581 0.669131 0.371574
    outer loop
      vertex 44.4621 -10.4332 12.3911
      vertex 49.6124 -13.1908 8.43647
      vertex 47.4621 -10.4332 7.19498
    endloop
  endfacet
  facet normal 0.75 0.499998 0.433015
    outer loop
      vertex 47.4621 -10.4332 7.19498
      vertex 42.8553 -7.21957 11.4634
      vertex 44.4621 -10.4332 12.3911
    endloop
  endfacet
  facet normal 0.75 0.499997 0.433016
    outer loop
      vertex 42.8553 -7.21957 11.4634
      vertex 47.4621 -10.4332 7.19498
      vertex 45.8553 -7.21957 6.26729
    endloop
  endfacet
  facet normal 0.823637 0.30902 0.475531
    outer loop
      vertex 45.8553 -7.21957 6.26729
      vertex 41.8622 -3.69043 10.8901
      vertex 42.8553 -7.21957 11.4634
    endloop
  endfacet
  facet normal 0.823637 0.309025 0.475527
    outer loop
      vertex 41.8622 -3.69043 10.8901
      vertex 45.8553 -7.21957 6.26729
      vertex 44.8622 -3.69043 5.69395
    endloop
  endfacet
  facet normal 0.861282 0.104522 0.497261
    outer loop
      vertex 44.8622 -3.69043 5.69395
      vertex 41.5445 -0.2 10.7067
      vertex 41.8622 -3.69043 10.8901
    endloop
  endfacet
  facet normal 0.861283 0.104528 0.497258
    outer loop
      vertex 41.5445 -0.2 10.7067
      vertex 44.8622 -3.69043 5.69395
      vertex 44.5445 -0.2 5.51051
    endloop
  endfacet
  facet normal 0.861282 -0.104522 0.497261
    outer loop
      vertex 41.5445 0.2 10.7067
      vertex 44.8622 3.69043 5.69395
      vertex 41.8622 3.69043 10.8901
    endloop
  endfacet
  facet normal 0.861283 -0.104528 0.497258
    outer loop
      vertex 44.8622 3.69043 5.69395
      vertex 41.5445 0.2 10.7067
      vertex 44.5445 0.2 5.51051
    endloop
  endfacet
  facet normal 0.823637 -0.30902 0.475531
    outer loop
      vertex 41.8622 3.69043 10.8901
      vertex 45.8553 7.21957 6.26729
      vertex 42.8553 7.21957 11.4634
    endloop
  endfacet
  facet normal 0.823637 -0.309025 0.475527
    outer loop
      vertex 45.8553 7.21957 6.26729
      vertex 41.8622 3.69043 10.8901
      vertex 44.8622 3.69043 5.69395
    endloop
  endfacet
  facet normal 0.75 -0.499998 0.433015
    outer loop
      vertex 42.8553 7.21957 11.4634
      vertex 47.4621 10.4332 7.19498
      vertex 44.4621 10.4332 12.3911
    endloop
  endfacet
  facet normal 0.75 -0.499997 0.433016
    outer loop
      vertex 47.4621 10.4332 7.19498
      vertex 42.8553 7.21957 11.4634
      vertex 45.8553 7.21957 6.26729
    endloop
  endfacet
  facet normal 0.64358 -0.669132 0.371573
    outer loop
      vertex 44.4621 10.4332 12.3911
      vertex 49.6124 13.1908 8.43647
      vertex 46.6124 13.1908 13.6326
    endloop
  endfacet
  facet normal 0.643581 -0.669131 0.371574
    outer loop
      vertex 49.6124 13.1908 8.43647
      vertex 44.4621 10.4332 12.3911
      vertex 47.4621 10.4332 7.19498
    endloop
  endfacet
  facet normal 0.509027 -0.809027 0.293884
    outer loop
      vertex 46.6124 13.1908 13.6326
      vertex 52.2123 15.3719 9.9375
      vertex 49.2123 15.3719 15.1337
    endloop
  endfacet
  facet normal 0.509029 -0.809023 0.293889
    outer loop
      vertex 52.2123 15.3719 9.9375
      vertex 46.6124 13.1908 13.6326
      vertex 49.6124 13.1908 8.43647
    endloop
  endfacet
  facet normal 0.352252 -0.913541 0.203375
    outer loop
      vertex 49.2123 15.3719 15.1337
      vertex 55.148 16.8812 11.6325
      vertex 52.148 16.8812 16.8286
    endloop
  endfacet
  facet normal 0.35225 -0.913543 0.20337
    outer loop
      vertex 55.148 16.8812 11.6325
      vertex 49.2123 15.3719 15.1337
      vertex 52.2123 15.3719 9.9375
    endloop
  endfacet
  facet normal 0.180075 -0.978143 0.103965
    outer loop
      vertex 52.148 16.8812 16.8286
      vertex 58.2914 17.6528 13.4473
      vertex 55.2914 17.6528 18.6435
    endloop
  endfacet
  facet normal 0.180077 -0.978143 0.103968
    outer loop
      vertex 58.2914 17.6528 13.4473
      vertex 52.148 16.8812 16.8286
      vertex 55.148 16.8812 11.6325
    endloop
  endfacet
  facet normal 0 -1 0
    outer loop
      vertex 55.2914 17.6528 18.6435
      vertex 61.505 17.6528 15.3027
      vertex 58.505 17.6528 20.4988
    endloop
  endfacet
  facet normal -0 -1 0
    outer loop
      vertex 61.505 17.6528 15.3027
      vertex 55.2914 17.6528 18.6435
      vertex 58.2914 17.6528 13.4473
    endloop
  endfacet
  facet normal -0.180075 -0.978143 -0.103965
    outer loop
      vertex 58.505 17.6528 20.4988
      vertex 64.6484 16.8812 17.1175
      vertex 61.6484 16.8812 22.3137
    endloop
  endfacet
  facet normal -0.180077 -0.978143 -0.103968
    outer loop
      vertex 64.6484 16.8812 17.1175
      vertex 58.505 17.6528 20.4988
      vertex 61.505 17.6528 15.3027
    endloop
  endfacet
  facet normal -0.352242 -0.913547 -0.203365
    outer loop
      vertex 61.6484 16.8812 22.3137
      vertex 67.5842 15.3719 18.8125
      vertex 64.5842 15.3719 24.0087
    endloop
  endfacet
  facet normal -0.352242 -0.913547 -0.203365
    outer loop
      vertex 67.5842 15.3719 18.8125
      vertex 61.6484 16.8812 22.3137
      vertex 64.6484 16.8812 17.1175
    endloop
  endfacet
  facet normal -0.509032 -0.809022 -0.293887
    outer loop
      vertex 64.5842 15.3719 24.0087
      vertex 70.1841 13.1908 20.3135
      vertex 67.1841 13.1908 25.5097
    endloop
  endfacet
  facet normal -0.509032 -0.809022 -0.293887
    outer loop
      vertex 70.1841 13.1908 20.3135
      vertex 64.5842 15.3719 24.0087
      vertex 67.5842 15.3719 18.8125
    endloop
  endfacet
  facet normal -0.643583 -0.669132 -0.371569
    outer loop
      vertex 67.1841 13.1908 25.5097
      vertex 72.3344 10.4332 21.555
      vertex 69.3344 10.4332 26.7512
    endloop
  endfacet
  facet normal -0.643583 -0.669132 -0.371569
    outer loop
      vertex 72.3344 10.4332 21.555
      vertex 67.1841 13.1908 25.5097
      vertex 70.1841 13.1908 20.3135
    endloop
  endfacet
  facet normal -0.750003 -0.499998 -0.43301
    outer loop
      vertex 73.9412 7.21957 22.4827
      vertex 69.3344 10.4332 26.7512
      vertex 72.3344 10.4332 21.555
    endloop
  endfacet
  facet normal -0.750003 -0.499998 -0.43301
    outer loop
      vertex 69.3344 10.4332 26.7512
      vertex 73.9412 7.21957 22.4827
      vertex 70.9412 7.21957 27.6789
    endloop
  endfacet
  facet normal -0.823637 -0.309032 -0.475523
    outer loop
      vertex 74.9343 3.69043 23.0561
      vertex 70.9412 7.21957 27.6789
      vertex 73.9412 7.21957 22.4827
    endloop
  endfacet
  facet normal -0.823636 -0.30902 -0.475531
    outer loop
      vertex 70.9412 7.21957 27.6789
      vertex 74.9343 3.69043 23.0561
      vertex 71.9343 3.69043 28.2522
    endloop
  endfacet
  facet normal -0.86128 -0.10452 -0.497265
    outer loop
      vertex 75.2702 0 23.25
      vertex 71.9343 3.69043 28.2522
      vertex 74.9343 3.69043 23.0561
    endloop
  endfacet
  facet normal -0.861283 -0.104533 -0.497257
    outer loop
      vertex 71.9343 3.69043 28.2522
      vertex 75.2702 0 23.25
      vertex 72.2702 0 28.4462
    endloop
  endfacet
  facet normal -0.86128 0.10452 -0.497265
    outer loop
      vertex 71.9343 -3.69043 28.2522
      vertex 75.2702 0 23.25
      vertex 74.9343 -3.69043 23.0561
    endloop
  endfacet
  facet normal -0.861283 0.104533 -0.497257
    outer loop
      vertex 75.2702 0 23.25
      vertex 71.9343 -3.69043 28.2522
      vertex 72.2702 0 28.4462
    endloop
  endfacet
  facet normal -0.823637 0.309032 -0.475523
    outer loop
      vertex 70.9412 -7.21957 27.6789
      vertex 74.9343 -3.69043 23.0561
      vertex 73.9412 -7.21957 22.4827
    endloop
  endfacet
  facet normal -0.823636 0.30902 -0.475531
    outer loop
      vertex 74.9343 -3.69043 23.0561
      vertex 70.9412 -7.21957 27.6789
      vertex 71.9343 -3.69043 28.2522
    endloop
  endfacet
  facet normal -0.750003 0.499998 -0.43301
    outer loop
      vertex 69.3344 -10.4332 26.7512
      vertex 73.9412 -7.21957 22.4827
      vertex 72.3344 -10.4332 21.555
    endloop
  endfacet
  facet normal -0.750003 0.499998 -0.43301
    outer loop
      vertex 73.9412 -7.21957 22.4827
      vertex 69.3344 -10.4332 26.7512
      vertex 70.9412 -7.21957 27.6789
    endloop
  endfacet
  facet normal -0.643583 0.669132 -0.371569
    outer loop
      vertex 72.3344 -10.4332 21.555
      vertex 67.1841 -13.1908 25.5097
      vertex 69.3344 -10.4332 26.7512
    endloop
  endfacet
  facet normal -0.643583 0.669132 -0.371569
    outer loop
      vertex 67.1841 -13.1908 25.5097
      vertex 72.3344 -10.4332 21.555
      vertex 70.1841 -13.1908 20.3135
    endloop
  endfacet
  facet normal -0.509032 0.809022 -0.293887
    outer loop
      vertex 70.1841 -13.1908 20.3135
      vertex 64.5842 -15.3719 24.0087
      vertex 67.1841 -13.1908 25.5097
    endloop
  endfacet
  facet normal -0.509032 0.809022 -0.293887
    outer loop
      vertex 64.5842 -15.3719 24.0087
      vertex 70.1841 -13.1908 20.3135
      vertex 67.5842 -15.3719 18.8125
    endloop
  endfacet
  facet normal -0.352242 0.913547 -0.203365
    outer loop
      vertex 67.5842 -15.3719 18.8125
      vertex 61.6484 -16.8812 22.3137
      vertex 64.5842 -15.3719 24.0087
    endloop
  endfacet
  facet normal -0.352242 0.913547 -0.203365
    outer loop
      vertex 61.6484 -16.8812 22.3137
      vertex 67.5842 -15.3719 18.8125
      vertex 64.6484 -16.8812 17.1175
    endloop
  endfacet
  facet normal -0.180075 0.978143 -0.103965
    outer loop
      vertex 64.6484 -16.8812 17.1175
      vertex 58.505 -17.6528 20.4988
      vertex 61.6484 -16.8812 22.3137
    endloop
  endfacet
  facet normal -0.180077 0.978143 -0.103968
    outer loop
      vertex 58.505 -17.6528 20.4988
      vertex 64.6484 -16.8812 17.1175
      vertex 61.505 -17.6528 15.3027
    endloop
  endfacet
  facet normal 0 1 0
    outer loop
      vertex 61.505 -17.6528 15.3027
      vertex 55.2914 -17.6528 18.6435
      vertex 58.505 -17.6528 20.4988
    endloop
  endfacet
  facet normal 0 1 0
    outer loop
      vertex 55.2914 -17.6528 18.6435
      vertex 61.505 -17.6528 15.3027
      vertex 58.2914 -17.6528 13.4473
    endloop
  endfacet
  facet normal 0 -1 0
    outer loop
      vertex 0 0.2 0
      vertex 33.3923 0.2 6
      vertex 0 0.2 6
    endloop
  endfacet
  facet normal 0 -1 0
    outer loop
      vertex 33.3923 0.2 6
      vertex 44.3993 0.2 5.42667
      vertex 44.5445 0.2 5.51051
    endloop
  endfacet
  facet normal 0 -1 -0
    outer loop
      vertex 33.3923 0.2 6
      vertex 0 0.2 0
      vertex 35 0.2 0
    endloop
  endfacet
  facet normal 0 -1 0
    outer loop
      vertex 33.3923 0.2 6
      vertex 35 0.2 0
      vertex 44.3993 0.2 5.42667
    endloop
  endfacet
  facet normal 0 -1 0
    outer loop
      vertex 41.3993 0.2 10.6228
      vertex 44.5445 0.2 5.51051
      vertex 41.5445 0.2 10.7067
    endloop
  endfacet
  facet normal 0 -1 0
    outer loop
      vertex 44.5445 0.2 5.51051
      vertex 41.3993 0.2 10.6228
      vertex 33.3923 0.2 6
    endloop
  endfacet
  facet normal 0 1 0
    outer loop
      vertex 44.5445 -0.2 5.51051
      vertex 41.3993 -0.2 10.6228
      vertex 41.5445 -0.2 10.7067
    endloop
  endfacet
  facet normal 0 1 -0
    outer loop
      vertex 44.3993 -0.2 5.42667
      vertex 41.3993 -0.2 10.6228
      vertex 44.5445 -0.2 5.51051
    endloop
  endfacet
  facet normal 0 1 0
    outer loop
      vertex 41.3993 -0.2 10.6228
      vertex 44.3993 -0.2 5.42667
      vertex 33.3923 -0.2 6
    endloop
  endfacet
  facet normal 0 1 -0
    outer loop
      vertex 35 -0.2 0
      vertex 33.3923 -0.2 6
      vertex 44.3993 -0.2 5.42667
    endloop
  endfacet
  facet normal 0 1 0
    outer loop
      vertex 0 -0.2 0
      vertex 33.3923 -0.2 6
      vertex 35 -0.2 0
    endloop
  endfacet
  facet normal 0 1 0
    outer loop
      vertex 33.3923 -0.2 6
      vertex 0 -0.2 0
      vertex 0 -0.2 6
    endloop
  endfacet
endsolid OpenSCAD_Model
