solid OpenSCAD_Model
  facet normal 0 -1 0
    outer loop
      vertex -17.5 -15 -1.5
      vertex -12.5 -15 1.5
      vertex -17.5 -15 1.5
    endloop
  endfacet
  facet normal 0 0 -1
    outer loop
      vertex -17.5 -15 -1.5
      vertex -17.5 15 -1.5
      vertex -12.5 -10 -1.5
    endloop
  endfacet
  facet normal -1 0 0
    outer loop
      vertex -17.5 -15 -1.5
      vertex -17.5 -15 1.5
      vertex -17.5 15 1.5
    endloop
  endfacet
  facet normal 0 0 -1
    outer loop
      vertex -17.5 -15 -1.5
      vertex -12.5 -10 -1.5
      vertex 12.5 -10 -1.5
    endloop
  endfacet
  facet normal 0 -1 0
    outer loop
      vertex -17.5 -15 -1.5
      vertex 12.5 -15 1.5
      vertex -12.5 -15 1.5
    endloop
  endfacet
  facet normal 0 0 1
    outer loop
      vertex -12.5 -15 1.5
      vertex 12.5 -15 1.5
      vertex -12.5 -10 1.5
    endloop
  endfacet
  facet normal 0 0 -1
    outer loop
      vertex -12.5 -10 -1.5
      vertex -17.5 15 -1.5
      vertex -12.5 10 -1.5
    endloop
  endfacet
  facet normal -1 0 0
    outer loop
      vertex -17.5 -15 -1.5
      vertex -17.5 15 1.5
      vertex -17.5 15 -1.5
    endloop
  endfacet
  facet normal 0 1 0
    outer loop
      vertex -17.5 15 -1.5
      vertex -17.5 15 1.5
      vertex 17.5 15 -1.5
    endloop
  endfacet
  facet normal 0 0 -1
    outer loop
      vertex -17.5 15 -1.5
      vertex 17.5 15 -1.5
      vertex -12.5 10 -1.5
    endloop
  endfacet
  facet normal 0 1 0
    outer loop
      vertex -17.5 15 1.5
      vertex -12.5 15 1.5
      vertex 17.5 15 -1.5
    endloop
  endfacet
  facet normal 0 0 1
    outer loop
      vertex -12.5 10 1.5
      vertex 12.5 10 1.5
      vertex -12.5 15 1.5
    endloop
  endfacet
  facet normal 0 0 -1
    outer loop
      vertex -17.5 -15 -1.5
      vertex 12.5 -10 -1.5
      vertex 17.5 -15 -1.5
    endloop
  endfacet
  facet normal 0 -1 0
    outer loop
      vertex -17.5 -15 -1.5
      vertex 17.5 -15 -1.5
      vertex 17.5 -15 1.5
    endloop
  endfacet
  facet normal 0 -1 0
    outer loop
      vertex -17.5 -15 -1.5
      vertex 17.5 -15 1.5
      vertex 12.5 -15 1.5
    endloop
  endfacet
  facet normal 0 0 -1
    outer loop
      vertex 12.5 -10 -1.5
      vertex 12.5 10 -1.5
      vertex 17.5 -15 -1.5
    endloop
  endfacet
  facet normal 1 0 0
    outer loop
      vertex 17.5 -15 -1.5
      vertex 17.5 15 -1.5
      vertex 17.5 -15 1.5
    endloop
  endfacet
  facet normal 0 0 1
    outer loop
      vertex -12.5 -10 1.5
      vertex 12.5 -15 1.5
      vertex 12.5 -10 1.5
    endloop
  endfacet
  facet normal 0 0 -1
    outer loop
      vertex -12.5 10 -1.5
      vertex 17.5 15 -1.5
      vertex 12.5 10 -1.5
    endloop
  endfacet
  facet normal 0 1 0
    outer loop
      vertex -12.5 15 1.5
      vertex 12.5 15 1.5
      vertex 17.5 15 -1.5
    endloop
  endfacet
  facet normal 0 0 -1
    outer loop
      vertex 17.5 -15 -1.5
      vertex 12.5 10 -1.5
      vertex 17.5 15 -1.5
    endloop
  endfacet
  facet normal 1 0 0
    outer loop
      vertex 17.5 -15 1.5
      vertex 17.5 15 -1.5
      vertex 17.5 15 1.5
    endloop
  endfacet
  facet normal 0 1 0
    outer loop
      vertex 17.5 15 -1.5
      vertex 12.5 15 1.5
      vertex 17.5 15 1.5
    endloop
  endfacet
  facet normal 0 0 1
    outer loop
      vertex -12.5 15 1.5
      vertex 12.5 10 1.5
      vertex 12.5 15 1.5
    endloop
  endfacet
  facet normal 1 0 0
    outer loop
      vertex -12.5 -10 -1.5
      vertex -12.5 -2.5 1.5
      vertex -12.5 -10 1.5
    endloop
  endfacet
  facet normal 1 0 0
    outer loop
      vertex -12.5 -10 -1.5
      vertex -12.5 2.5 1.5
      vertex -12.5 -2.5 1.5
    endloop
  endfacet
  facet normal 0 1 0
    outer loop
      vertex -12.5 -10 -1.5
      vertex -12.5 -10 1.5
      vertex 12.5 -10 -1.5
    endloop
  endfacet
  facet normal 1 0 0
    outer loop
      vertex -12.5 -10 -1.5
      vertex -12.5 10 -1.5
      vertex -12.5 10 1.5
    endloop
  endfacet
  facet normal 1 0 0
    outer loop
      vertex -12.5 -10 -1.5
      vertex -12.5 10 1.5
      vertex -12.5 2.5 1.5
    endloop
  endfacet
  facet normal 0 -1 0
    outer loop
      vertex -12.5 10 -1.5
      vertex 12.5 10 1.5
      vertex -12.5 10 1.5
    endloop
  endfacet
  facet normal 0 1 0
    outer loop
      vertex -12.5 -10 1.5
      vertex 12.5 -10 1.5
      vertex 12.5 -10 -1.5
    endloop
  endfacet
  facet normal -1 0 0
    outer loop
      vertex 12.5 -10 -1.5
      vertex 12.5 -10 1.5
      vertex 12.5 10 -1.5
    endloop
  endfacet
  facet normal -1 0 0
    outer loop
      vertex 12.5 -10 1.5
      vertex 12.5 -2.5 1.5
      vertex 12.5 10 -1.5
    endloop
  endfacet
  facet normal 0 -1 0
    outer loop
      vertex -12.5 10 -1.5
      vertex 12.5 10 -1.5
      vertex 12.5 10 1.5
    endloop
  endfacet
  facet normal -1 0 0
    outer loop
      vertex 12.5 10 -1.5
      vertex 12.5 -2.5 1.5
      vertex 12.5 2.5 1.5
    endloop
  endfacet
  facet normal -1 0 0
    outer loop
      vertex 12.5 10 -1.5
      vertex 12.5 2.5 1.5
      vertex 12.5 10 1.5
    endloop
  endfacet
  facet normal -1 0 0
    outer loop
      vertex 12.5 -15 1.5
      vertex 12.5 -15 4.5
      vertex 12.5 -10 1.5
    endloop
  endfacet
  facet normal -1 0 0
    outer loop
      vertex 12.5 -15 4.5
      vertex 12.5 -2.5 1.5
      vertex 12.5 -10 1.5
    endloop
  endfacet
  facet normal 0 -1 0
    outer loop
      vertex 12.5 -15 1.5
      vertex 17.5 -15 1.5
      vertex 17.5 -15 4.5
    endloop
  endfacet
  facet normal 0 -1 0
    outer loop
      vertex 12.5 -15 1.5
      vertex 17.5 -15 4.5
      vertex 12.5 -15 4.5
    endloop
  endfacet
  facet normal 0 0 1
    outer loop
      vertex 12.5 -15 4.5
      vertex 17.5 -15 4.5
      vertex 12.5 -2.5 4.5
    endloop
  endfacet
  facet normal 1 0 0
    outer loop
      vertex 17.5 -15 1.5
      vertex 17.5 15 1.5
      vertex 17.5 -15 4.5
    endloop
  endfacet
  facet normal -1 0 0
    outer loop
      vertex 12.5 -15 4.5
      vertex 12.5 -2.5 4.5
      vertex 12.5 -2.5 1.5
    endloop
  endfacet
  facet normal 0 0 1
    outer loop
      vertex 17.5 -15 4.5
      vertex 12.5 2.5 4.5
      vertex 12.5 -2.5 4.5
    endloop
  endfacet
  facet normal -1 0 0
    outer loop
      vertex 12.5 10 1.5
      vertex 12.5 2.5 1.5
      vertex 12.5 2.5 4.5
    endloop
  endfacet
  facet normal 0 0 1
    outer loop
      vertex 17.5 -15 4.5
      vertex 12.5 15 4.5
      vertex 12.5 2.5 4.5
    endloop
  endfacet
  facet normal 1 0 0
    outer loop
      vertex 17.5 -15 4.5
      vertex 17.5 15 1.5
      vertex 17.5 15 4.5
    endloop
  endfacet
  facet normal 0 0 1
    outer loop
      vertex 17.5 -15 4.5
      vertex 17.5 15 4.5
      vertex 12.5 15 4.5
    endloop
  endfacet
  facet normal -1 0 0
    outer loop
      vertex 12.5 10 1.5
      vertex 12.5 15 4.5
      vertex 12.5 15 1.5
    endloop
  endfacet
  facet normal 0 1 0
    outer loop
      vertex 12.5 15 1.5
      vertex 12.5 15 4.5
      vertex 17.5 15 1.5
    endloop
  endfacet
  facet normal -1 0 0
    outer loop
      vertex 12.5 10 1.5
      vertex 12.5 2.5 4.5
      vertex 12.5 15 4.5
    endloop
  endfacet
  facet normal 0 1 0
    outer loop
      vertex 17.5 15 1.5
      vertex 12.5 15 4.5
      vertex 17.5 15 4.5
    endloop
  endfacet
  facet normal 0 -1 0
    outer loop
      vertex -17.5 -15 1.5
      vertex -12.5 -15 1.5
      vertex -12.5 -15 4.5
    endloop
  endfacet
  facet normal 1 0 0
    outer loop
      vertex -12.5 -15 1.5
      vertex -12.5 -10 1.5
      vertex -12.5 -15 4.5
    endloop
  endfacet
  facet normal 0 -1 0
    outer loop
      vertex -17.5 -15 1.5
      vertex -12.5 -15 4.5
      vertex -17.5 -15 4.5
    endloop
  endfacet
  facet normal 1 0 0
    outer loop
      vertex -12.5 -10 1.5
      vertex -12.5 -2.5 4.5
      vertex -12.5 -15 4.5
    endloop
  endfacet
  facet normal 1 0 0
    outer loop
      vertex -12.5 -10 1.5
      vertex -12.5 -2.5 1.5
      vertex -12.5 -2.5 4.5
    endloop
  endfacet
  facet normal -1 0 0
    outer loop
      vertex -17.5 -15 1.5
      vertex -17.5 -15 4.5
      vertex -17.5 15 4.5
    endloop
  endfacet
  facet normal 0 0 1
    outer loop
      vertex -17.5 -15 4.5
      vertex -12.5 -15 4.5
      vertex -17.5 15 4.5
    endloop
  endfacet
  facet normal 0 0 1
    outer loop
      vertex -12.5 -15 4.5
      vertex -12.5 -2.5 4.5
      vertex -17.5 15 4.5
    endloop
  endfacet
  facet normal -1 0 0
    outer loop
      vertex -17.5 -15 1.5
      vertex -17.5 15 4.5
      vertex -17.5 15 1.5
    endloop
  endfacet
  facet normal 0 0 1
    outer loop
      vertex -17.5 15 4.5
      vertex -12.5 -2.5 4.5
      vertex -12.5 2.5 4.5
    endloop
  endfacet
  facet normal 1 0 0
    outer loop
      vertex -12.5 15 4.5
      vertex -12.5 2.5 4.5
      vertex -12.5 2.5 1.5
    endloop
  endfacet
  facet normal 0 1 0
    outer loop
      vertex -17.5 15 1.5
      vertex -17.5 15 4.5
      vertex -12.5 15 1.5
    endloop
  endfacet
  facet normal 1 0 0
    outer loop
      vertex -12.5 10 1.5
      vertex -12.5 15 4.5
      vertex -12.5 2.5 1.5
    endloop
  endfacet
  facet normal 1 0 0
    outer loop
      vertex -12.5 15 1.5
      vertex -12.5 15 4.5
      vertex -12.5 10 1.5
    endloop
  endfacet
  facet normal 0 0 1
    outer loop
      vertex -12.5 2.5 4.5
      vertex -12.5 15 4.5
      vertex -17.5 15 4.5
    endloop
  endfacet
  facet normal 0 1 0
    outer loop
      vertex -12.5 15 1.5
      vertex -17.5 15 4.5
      vertex -12.5 15 4.5
    endloop
  endfacet
  facet normal 0 -1 0
    outer loop
      vertex 12.5 -2.5 1.5
      vertex -12.5 -2.5 4.5
      vertex -12.5 -2.5 1.5
    endloop
  endfacet
  facet normal 0 0 1
    outer loop
      vertex -12.5 -2.5 4.5
      vertex 12.5 -2.5 4.5
      vertex -12.5 2.5 4.5
    endloop
  endfacet
  facet normal 0 0 -1
    outer loop
      vertex -12.5 2.5 1.5
      vertex 12.5 2.5 1.5
      vertex -12.5 -2.5 1.5
    endloop
  endfacet
  facet normal 0 1 0
    outer loop
      vertex -12.5 2.5 1.5
      vertex -12.5 2.5 4.5
      vertex 12.5 2.5 4.5
    endloop
  endfacet
  facet normal 0 0 -1
    outer loop
      vertex 12.5 -2.5 1.5
      vertex -12.5 -2.5 1.5
      vertex 12.5 2.5 1.5
    endloop
  endfacet
  facet normal 0 -1 0
    outer loop
      vertex 12.5 -2.5 1.5
      vertex 12.5 -2.5 4.5
      vertex -12.5 -2.5 4.5
    endloop
  endfacet
  facet normal 0 1 0
    outer loop
      vertex -12.5 2.5 1.5
      vertex 12.5 2.5 4.5
      vertex 12.5 2.5 1.5
    endloop
  endfacet
  facet normal 0 0 1
    outer loop
      vertex -12.5 2.5 4.5
      vertex 12.5 -2.5 4.5
      vertex 12.5 2.5 4.5
    endloop
  endfacet
endsolid OpenSCAD_Model
