solid OpenSCAD_Model
  facet normal 0 -1 0
    outer loop
      vertex -10 -34 0
      vertex -5.5 -34 0
      vertex -10 -34 1.5
    endloop
  endfacet
  facet normal 0 -1 0
    outer loop
      vertex -5.5 -34 0
      vertex -5.5 -34 1.5
      vertex -10 -34 1.5
    endloop
  endfacet
  facet normal -1 0 0
    outer loop
      vertex -5.5 -45 0
      vertex -5.5 -45 1.5
      vertex -5.5 -34 1.5
    endloop
  endfacet
  facet normal -1 0 0
    outer loop
      vertex -5.5 -45 0
      vertex -5.5 -34 1.5
      vertex -5.5 -34 0
    endloop
  endfacet
  facet normal -1 0 0
    outer loop
      vertex -10 -34 0
      vertex -10 -34 1.5
      vertex -10 34.6606060564518 1.5
    endloop
  endfacet
  facet normal 0 0 -1
    outer loop
      vertex -10 -34 0
      vertex -10 34.6606060564518 0
      vertex -5.5 -34 0
    endloop
  endfacet
  facet normal 0 0 1
    outer loop
      vertex -10 -34 1.5
      vertex -5.5 -34 1.5
      vertex -10 34.6606060564518 1.5
    endloop
  endfacet
  facet normal 0 -1 0
    outer loop
      vertex -5.5 -45 0
      vertex 3.75 -45 0
      vertex -5.5 -45 1.5
    endloop
  endfacet
  facet normal 0 0 -1
    outer loop
      vertex -5.5 -45 0
      vertex -5.5 -34 0
      vertex 3.75 -45 0
    endloop
  endfacet
  facet normal 0 0 1
    outer loop
      vertex -5.5 -45 1.5
      vertex 3.75 -45 1.5
      vertex -5.5 -34 1.5
    endloop
  endfacet
  facet normal 0 0 -1
    outer loop
      vertex -5.5 -34 0
      vertex -10 34.6606060564518 0
      vertex 3.75 -34 0
    endloop
  endfacet
  facet normal 0 0 1
    outer loop
      vertex -5.5 -34 1.5
      vertex 3.75 -34 1.5
      vertex -10 34.6606060564518 1.5
    endloop
  endfacet
  facet normal -1 0 0
    outer loop
      vertex -10 -34 0
      vertex -10 34.6606060564518 1.5
      vertex -10 34.6606060564518 0
    endloop
  endfacet
  facet normal -0.8488969090835594 0.5285584525370671 0
    outer loop
      vertex -10 34.6606060564518 0
      vertex -10 34.6606060564518 1.5
      vertex -3.5622641518712044 45 1.5
    endloop
  endfacet
  facet normal -0.8488969090835594 0.5285584525370671 0
    outer loop
      vertex -10 34.6606060564518 0
      vertex -3.5622641518712044 45 1.5
      vertex -3.5622641518712044 45 0
    endloop
  endfacet
  facet normal 0 0 -1
    outer loop
      vertex -10 34.6606060564518 0
      vertex -3.5622641518712044 45 0
      vertex -0.29999999701976776 42 0
    endloop
  endfacet
  facet normal 0 0 1
    outer loop
      vertex -10 34.6606060564518 1.5
      vertex -0.29999999701976776 42 1.5
      vertex -3.5622641518712044 45 1.5
    endloop
  endfacet
  facet normal 0 0 -1
    outer loop
      vertex -10 34.6606060564518 0
      vertex -0.29999999701976776 42 0
      vertex 0.5982779040932655 40.76362653076649 0
    endloop
  endfacet
  facet normal 0 0 1
    outer loop
      vertex -10 34.6606060564518 1.5
      vertex 0.5982779040932655 40.76362653076649 1.5
      vertex -0.29999999701976776 42 1.5
    endloop
  endfacet
  facet normal 0 0 1
    outer loop
      vertex -10 34.6606060564518 1.5
      vertex 7 32.5 1.5
      vertex 0.5982779040932655 40.76362653076649 1.5
    endloop
  endfacet
  facet normal 0 0 -1
    outer loop
      vertex -3.5622641518712044 45 0
      vertex 0.5982779040932655 43.23637346923351 0
      vertex -0.29999999701976776 42 0
    endloop
  endfacet
  facet normal 0.8090169958631159 0.5877852502441848 0
    outer loop
      vertex -0.29999999701976776 42 0
      vertex -0.29999999701976776 42 1.5
      vertex 0.5982779040932655 40.76362653076649 0
    endloop
  endfacet
  facet normal 0 0 1
    outer loop
      vertex -3.5622641518712044 45 1.5
      vertex -0.29999999701976776 42 1.5
      vertex 0.5982779040932655 43.23637346923351 1.5
    endloop
  endfacet
  facet normal 0.8090169958631159 -0.5877852502441848 0
    outer loop
      vertex -0.29999999701976776 42 0
      vertex 0.5982779040932655 43.23637346923351 1.5
      vertex -0.29999999701976776 42 1.5
    endloop
  endfacet
  facet normal 0 -1 0
    outer loop
      vertex -5.5 -45 1.5
      vertex 3.75 -45 0
      vertex 3.75 -45 1.5
    endloop
  endfacet
  facet normal 0 0 -1
    outer loop
      vertex -5.5 -34 0
      vertex 3.75 -34 0
      vertex 3.75 -45 0
    endloop
  endfacet
  facet normal 0 0 1
    outer loop
      vertex -5.5 -34 1.5
      vertex 3.75 -45 1.5
      vertex 3.75 -34 1.5
    endloop
  endfacet
  facet normal 1 0 0
    outer loop
      vertex 3.75 -45 0
      vertex 3.75 -34 0
      vertex 3.75 -45 1.5
    endloop
  endfacet
  facet normal 1 0 0
    outer loop
      vertex 3.75 -34 0
      vertex 3.75 -34 1.5
      vertex 3.75 -45 1.5
    endloop
  endfacet
  facet normal 0 0 -1
    outer loop
      vertex -10 34.6606060564518 0
      vertex 10 -34 0
      vertex 3.75 -34 0
    endloop
  endfacet
  facet normal 0 0 1
    outer loop
      vertex -10 34.6606060564518 1.5
      vertex 3.75 -34 1.5
      vertex 10 -34 1.5
    endloop
  endfacet
  facet normal 0 0 1
    outer loop
      vertex -10 34.6606060564518 1.5
      vertex 10 -34 1.5
      vertex 7 -12.5 1.5
    endloop
  endfacet
  facet normal 0 -1 0
    outer loop
      vertex 3.75 -34 0
      vertex 10 -34 0
      vertex 3.75 -34 1.5
    endloop
  endfacet
  facet normal 0 -1 0
    outer loop
      vertex 10 -34 0
      vertex 10 -34 1.5
      vertex 3.75 -34 1.5
    endloop
  endfacet
  facet normal 0 0 1
    outer loop
      vertex 10 -34 1.5
      vertex 10 -12.5 1.5
      vertex 7 -12.5 1.5
    endloop
  endfacet
  facet normal 1 0 0
    outer loop
      vertex 10 -34 0
      vertex 10 45 0
      vertex 10 -34 1.5
    endloop
  endfacet
  facet normal 1 0 0
    outer loop
      vertex 10 -34 1.5
      vertex 10 45 0
      vertex 10 -12.5 1.5
    endloop
  endfacet
  facet normal 0 0 -1
    outer loop
      vertex -10 34.6606060564518 0
      vertex 0.5982779040932655 40.76362653076649 0
      vertex 10 -34 0
    endloop
  endfacet
  facet normal 0 0 1
    outer loop
      vertex -10 34.6606060564518 1.5
      vertex 7 -12.5 1.5
      vertex 7 32.5 1.5
    endloop
  endfacet
  facet normal 0 0 -1
    outer loop
      vertex 10 -34 0
      vertex 0.5982779040932655 40.76362653076649 0
      vertex 2.0517220944166183 41.23587917536497 0
    endloop
  endfacet
  facet normal 0 0 -1
    outer loop
      vertex 10 -34 0
      vertex 2.0517220944166183 41.23587917536497 0
      vertex 2.0517220944166183 42.76412082463503 0
    endloop
  endfacet
  facet normal 0.8090169958631159 -0.5877852502441848 0
    outer loop
      vertex -0.29999999701976776 42 0
      vertex 0.5982779040932655 43.23637346923351 0
      vertex 0.5982779040932655 43.23637346923351 1.5
    endloop
  endfacet
  facet normal -0.30901699424896234 0.9510565163360887 0
    outer loop
      vertex 0.5982779040932655 40.76362653076649 0
      vertex 0.5982779040932655 40.76362653076649 1.5
      vertex 2.0517220944166183 41.23587917536497 0
    endloop
  endfacet
  facet normal 0.8090169958631159 0.5877852502441848 0
    outer loop
      vertex -0.29999999701976776 42 1.5
      vertex 0.5982779040932655 40.76362653076649 1.5
      vertex 0.5982779040932655 40.76362653076649 0
    endloop
  endfacet
  facet normal -0.30901699424896234 -0.9510565163360887 0
    outer loop
      vertex 0.5982779040932655 43.23637346923351 0
      vertex 2.0517220944166183 42.76412082463503 1.5
      vertex 0.5982779040932655 43.23637346923351 1.5
    endloop
  endfacet
  facet normal 0 1 0
    outer loop
      vertex -3.5622641518712044 45 0
      vertex -3.5622641518712044 45 1.5
      vertex 10 45 1.5
    endloop
  endfacet
  facet normal -0.30901699424896234 -0.9510565163360887 0
    outer loop
      vertex 0.5982779040932655 43.23637346923351 0
      vertex 2.0517220944166183 42.76412082463503 0
      vertex 2.0517220944166183 42.76412082463503 1.5
    endloop
  endfacet
  facet normal -1 0 0
    outer loop
      vertex 2.0517220944166183 41.23587917536497 0
      vertex 2.0517220944166183 41.23587917536497 1.5
      vertex 2.0517220944166183 42.76412082463503 0
    endloop
  endfacet
  facet normal 0 0 -1
    outer loop
      vertex -3.5622641518712044 45 0
      vertex 10 45 0
      vertex 0.5982779040932655 43.23637346923351 0
    endloop
  endfacet
  facet normal -0.30901699424896234 0.9510565163360887 0
    outer loop
      vertex 2.0517220944166183 41.23587917536497 0
      vertex 0.5982779040932655 40.76362653076649 1.5
      vertex 2.0517220944166183 41.23587917536497 1.5
    endloop
  endfacet
  facet normal -1 0 0
    outer loop
      vertex 2.0517220944166183 42.76412082463503 0
      vertex 2.0517220944166183 41.23587917536497 1.5
      vertex 2.0517220944166183 42.76412082463503 1.5
    endloop
  endfacet
  facet normal 0 0 1
    outer loop
      vertex -3.5622641518712044 45 1.5
      vertex 0.5982779040932655 43.23637346923351 1.5
      vertex 10 45 1.5
    endloop
  endfacet
  facet normal 0 0 1
    outer loop
      vertex 0.5982779040932655 40.76362653076649 1.5
      vertex 7 32.5 1.5
      vertex 2.0517220944166183 41.23587917536497 1.5
    endloop
  endfacet
  facet normal 0 0 1
    outer loop
      vertex 2.0517220944166183 41.23587917536497 1.5
      vertex 7 32.5 1.5
      vertex 2.0517220944166183 42.76412082463503 1.5
    endloop
  endfacet
  facet normal 0 0 -1
    outer loop
      vertex 0.5982779040932655 43.23637346923351 0
      vertex 10 45 0
      vertex 2.0517220944166183 42.76412082463503 0
    endloop
  endfacet
  facet normal 0 0 1
    outer loop
      vertex 0.5982779040932655 43.23637346923351 1.5
      vertex 2.0517220944166183 42.76412082463503 1.5
      vertex 10 45 1.5
    endloop
  endfacet
  facet normal 0 0 -1
    outer loop
      vertex 10 -34 0
      vertex 2.0517220944166183 42.76412082463503 0
      vertex 10 45 0
    endloop
  endfacet
  facet normal 1 0 0
    outer loop
      vertex 10 45 0
      vertex 10 32.5 1.5
      vertex 10 -12.5 1.5
    endloop
  endfacet
  facet normal 0 1 0
    outer loop
      vertex -3.5622641518712044 45 0
      vertex 10 45 1.5
      vertex 10 45 0
    endloop
  endfacet
  facet normal 0 0 1
    outer loop
      vertex 2.0517220944166183 42.76412082463503 1.5
      vertex 7 32.5 1.5
      vertex 10 45 1.5
    endloop
  endfacet
  facet normal 0 0 1
    outer loop
      vertex 10 45 1.5
      vertex 7 32.5 1.5
      vertex 10 32.5 1.5
    endloop
  endfacet
  facet normal 1 0 0
    outer loop
      vertex 10 45 1.5
      vertex 10 32.5 1.5
      vertex 10 45 0
    endloop
  endfacet
  facet normal 0 -1 0
    outer loop
      vertex 10 -12.5 15
      vertex 7 -12.5 1.5
      vertex 10 -12.5 1.5
    endloop
  endfacet
  facet normal 0 -1 0
    outer loop
      vertex 7 -12.5 15
      vertex 7 -12.5 1.5
      vertex 10 -12.5 15
    endloop
  endfacet
  facet normal -1 0 0
    outer loop
      vertex 7 -12.5 15
      vertex 7 32.5 1.5
      vertex 7 -12.5 1.5
    endloop
  endfacet
  facet normal 1 0 0
    outer loop
      vertex 10 32.5 15
      vertex 10 -12.5 1.5
      vertex 10 32.5 1.5
    endloop
  endfacet
  facet normal 0 1 0
    outer loop
      vertex 7 32.5 15
      vertex 10 32.5 1.5
      vertex 7 32.5 1.5
    endloop
  endfacet
  facet normal -1 0 0
    outer loop
      vertex 7 -12.5 15
      vertex 7 32.5 15
      vertex 7 32.5 1.5
    endloop
  endfacet
  facet normal 1 0 0
    outer loop
      vertex 10 -12.5 15
      vertex 10 -12.5 1.5
      vertex 10 32.5 15
    endloop
  endfacet
  facet normal 0 0 1
    outer loop
      vertex 7 -12.5 15
      vertex 10 -12.5 15
      vertex 7 32.5 15
    endloop
  endfacet
  facet normal 0 0 1
    outer loop
      vertex 7 32.5 15
      vertex 10 -12.5 15
      vertex 10 32.5 15
    endloop
  endfacet
  facet normal 0 1 0
    outer loop
      vertex 7 32.5 15
      vertex 10 32.5 15
      vertex 10 32.5 1.5
    endloop
  endfacet
endsolid OpenSCAD_Model
